<?xml version="1.0" encoding="UTF-8"?>
<svg id="Capa_1" data-name="Capa 1" xmlns="http://www.w3.org/2000/svg" width="33.22mm" height="33.2mm" viewBox="0 0 94.16 94.11">
  <defs>
    <style>
      .cls-1 {
        fill: #4fb7f7;
        stroke-width: 0px;
      }
    </style>
  </defs>
  <g id="OBJECTS">
    <path class="cls-1" d="m67.04,5.35l.61-.47c.45.09.86.31,1.19.62-.18.6-1.08,1-.33,1.71.41.07.51-.4.84-.37.23-.37-.17-.67-.15-1.14.62.21,1.2.51,1.72.89,0,.44-.71.48-.44,1.07.17.16.39.25.62.26.42-.19.11-.67.39-1,.81.53,1.78.85,2.32,1.77.17.28.28.28.9.43,0,.11-.05.22-.07.33,0,.07,0,.15,0,.22.16.42.54-.19.68.16s.68-.13.91.32c.13.26.47.42.72.62,3.18,2.61,6,5.64,8.38,9,.42.59,1.21,1.07.9,2,.73.63.18,1.45.35,2.27.53-.38.72-1.06.47-1.66.18.27.37.54.54.82,2.73,4.61,4.66,9.66,5.68,14.92.1.54.35,1.11-.13,1.69-.18.21,0,.68,0,1,.35.23.59.59.67,1-.07.13-.18.11-.3.1-.14-.04-.28.04-.32.17,0,0-.07.12,0,.16.4.63.25,1.44.68,2,.27.38-.27.74-.06,1,.23.21.35.53.32.84,0,.48.18,1-.36,1.42-.35.27,0,.86-.3,1.23.08.28.31.48.59.54.08.61.06,1.23-.05,1.83-.12.58-.38,1.15-1,1.23s-.92.53-1.54.72c.44.33.86.14,1.22.27,0,.41.22.44.58.37-.11.29-.47.08-.58.32l-.11.89c-.24.33-.6.18-.94.36-.27.75-1,1-1.78,1.16.73,0,.82.83,1.38,1-.11.43-.44-.17-.57.12-.2-.2-.17-.49-.28-.77-.73.12-1.46.61-2.14.05-.73.29-.5.91-.53,1.4,0,.2.18.43,0,.66-.48-.35-.89-.37-1.25.23.35.21.8.17,1.12-.08q1,.46,1.12,1.36l.33.1c-.83.5-1.79.72-2.75.65-.38.26-.72.58-1,.94-.09.35.36.44.3.76-.47.45-1.19.54-1.76.22,0,.49-.43.62-.74.77-.2.43.29.94-.29,1.21q.79.81.23,1.74c1,.14,1.16.79.94,1.62.62.13.75,1,1.56.62-.16.42-.37.21-.5.34-.09.21-.09.45,0,.66v.26c-.4.41-.56,0-.64-.25-.17-.53-.53-.99-1-1.29,0-.49.59-.89,0-1.34-.32.34-.7.6-1.13.79-.59,0-.43-.44-.49-.73-.19-.08-.4-.08-.59,0h0l.2-.29c.06-.27-.32-.22-.31-.46.14-.85.57-1.63,1.22-2.2-.17-1.21.81-2,.94-2.91.37-.42.77-.19,1-.46,0-.4-.36-.31-.64-.48,1.16-3.23,1.95-6.59,2.35-10,.3-.49.79-.09.93-.69,0-.28-.5,0-.59-.27-.32-2.19-.35-4.42-.09-6.62l-.37-.62c-.06-.4.34-.62.2-.93s-.23-.21-.37-.13c-.08-.44.03-.89.3-1.24-.41-.09-.71-.45-.71-.87-.11-.71-.28-1.41-.49-2.1-.18-.7-.4-1.38-.61-2.09.06-.42.52-.58.69-1-.17-.59-.49-1.29.36-1.74-.25-.27-.15-.54,0-.8-.3-.27-.67-.45-1.07-.5,0-1,.87-1.11,1.46-1.52.18.34,0,.8.5.9.19-.05.34-.2.38-.39-.05-.28-.18-.54-.37-.75-.39-.14-.85,0-1.16-.21-.82.22-1.16,1.18-2.12,1,0,.47.84.73.27,1.24-.31.1-.45-.11-.56-.33-.68-1.35-1.34-2.72-2-4-.24-.45-.62-.81-.9-1.23-3.66-5.56-8.69-10.09-14.6-13.16-4.04-2.1-8.42-3.45-12.94-4-3.25-.43-6.54-.43-9.79,0-4.4.53-8.68,1.82-12.64,3.82-.24-.1-.12-.53-.47-.54-.52.77-1.2,1.42-2,1.9-3.19,1.92-6.1,4.28-8.64,7-.51.55-1,1.12-1.47,1.72s-.75.92-1.38.85c-.23.34.05.49.11.69-1.36,1.93-2.58,3.96-3.65,6.06-2.06,4.25-3.35,8.82-3.83,13.51-.22,2.37-.22,4.76,0,7.13.16,2.37.57,4.71,1.22,7,.68,2.24,1.54,4.43,2.56,6.54,1,2.14,2.43,4,3.7,6.16-.76.17-1.44.57-1.94,1.16l.3,1.18c.61-.19,1.02-.76,1-1.4.33-.26.78-.18,1-.56.42.3.61.82.47,1.32-.1.42-.36,1.08.29,1.43.79-.06.54-.6.49-1.12.42.31.81.66,1.15,1.06.16.6-.52.62-.41,1l-.64.18c-.09-.33-.12-.69-.42-.82s-.42.31-.68.19,0-.49-.26-.62c-.22.08-.36.28-.37.51.06.25.38.52.2,1.1,0,.26-.63.07-.93.54.72-.1.88.42,1.11.68.26.1.56.03.76-.17-.18.52-.79.83-.7,1.5s-.91.9-.09,1.72c.74-.59,1.41-1.26,2-2,.23.24.55.38.89.38.18-.42.48-.79-.23-1,0-.06,0-.11,0-.17,0-.42.29-.44.6-.42,0,.22,0,.49.23.66.11.02.21.02.32,0,.14,0,.24-.11.25-.25,0-.36-.46-.33-.65-.55-.06-.75-.64-.23-.91-.44-.25.32-.15.64-.21.93-.62,0,0-.52-.29-.66s-.52.15-.75-.09c.6-.09,1-.33,1-1,.42-.2.89.58,1.27-.09,1,.47,1.12,1.57,1.64,2.43l.51-.37c.55,0,.65.45.71,1,.48.03.94.2,1.32.49,4.99,3.78,10.82,6.29,17,7.32.36,0,.72.12,1,.35-.19.13-.48,0-.69.25,0,.41.58.4.59.77.41,0,.75-.33.75-.75,0-.09-.01-.17-.04-.25.86-.38,1.31.32,2,.45.21-.21.45-.48.85-.32s.38.69.26,1.05c.16.13.38.15.56.06.14-.33.09-.71-.11-1,.9-.14,1.67-.28,2.33.41.42-.35.81-.73,1.36-.46.22.11.34,0,.53,0,.92-.41,1.98-.35,2.85.16.08.32-.07.42-.37.44s-.55-.3-.91-.37c-.04.5-.25.97-.6,1.33.72.34,1.08,1,1.85,1.22.11.36.11.74,0,1.1-.42.07-.54-.43-.91-.32-.24.81-.23.82.57.87.67.64.09,1.92,1.23,2.29.42-.42,0-.53-.15-.71,0-.32.47-.29.55-.72-.38-.65-.23-1.55-.63-2.34-.07-.18-.07-.38,0-.56.37-.93.54-1.94.49-2.94.5-.12.19.66.49.54.58-.13.33-.48.34-.67.78-.38,1.67-.48,2.52-.29.18.15.13.61.55.61.37-.36-.13-.73,0-1.11.56-.26,1.14-.47,1.73-.64.33.15.16.61.53.63.43-.19-.08-.5.27-.89l2.31-.95c.42.26.53.91,1.13.87.22-.25.16-.41,0-.52s-.24-.3-.29-.49c1.23-.9,2.57-1.63,4-2.16.32-.42.73-.76,1.19-1,.54-.34,1.05-.73,1.55-1.07.48-.08.76.24,1.07.46l.66-.35c-.43-.17-.56-.52-.86-.9.85.09,1,.73,1.3,1.24h0c-.64.08-1,.59-1.45.83,0,.57.44.29.64.41.24.4-.05.93.41,1.31.23.19.13.59-.11.86-.27.29-.45.66-.51,1.06-.4,0-.55-.24-.71-.51.42-.64.31-1.5-.27-2,.03.38.03.75,0,1.13-.02.4-.12.78-.31,1.13-.5.7-.14,1.36-.07,2h0c-.13,0-.28.1-.26.2.13.64-.23,1.32.1,1.93.58.19.84-1,1.51-.19-.8,1.27-2.29,1.55-3.46,2.35-.87-.59-1.89-.71-2.71-1.32l-.15.2.78,1.88c-2.16,1.16-4.47,2.01-6.87,2.51-.28-.16,0-.36-.08-.6-.88,0-1.07,1.34-2,1.12-.58,0-.2-.61-.61-.66-.43.1-.54.4-.47.88-.81.28-1.69.24-2.47-.11-.34,0-.4.35-.62.61-.88-.29-1.71.29-2.61.27s-1.84,0-2.76,0h-2.75c-.91,0-1.52-.5-2.36-.25,0-.8.36-1,1.24-.83-.89-.74-.28-1.69-.79-2.39.39-.22.6-.64.55-1.08-.31.06-.57-.12-.77.12l.07.82-1.25.36c-.35-.3,0-.57-.12-.85l-.46-.1c-.11-.08-.14.09-.07,0s.07,0,.1,0c.47,0,1,0,1-.67-1-.25-1.26-.18-2.12.68,0,.22.19.33.32.49.1.34-.44,0-.34.28-.12.37.26.37.35.58,0,.47-.69.38-.79.83.08.26.37.23.55.36.24-.21.3-.58.71-.73.27.52.08,1.52,1.15,1.36.16.22.16.52,0,.74-.67-.3-1.42-.37-2.13-.2-.1-.4.18-.89-.41-1.09-.51,0-.3.64-.67.82-.52-.03-1.04-.12-1.53-.29l.35-.95c-.66-.73-1.56-.2-2.43-.66.23.84,1,.41,1.25,1-.9-.41-1.82,0-2.69-.3s-1.73-.6-2.61-.86c-.4-.12-.38-.62-.95-.74,0,0-.06.34-.45.14-.33-.67-1.09-1.01-1.81-.81-.22,0-.52-.16-.77-.27-2.38-1.14-4.67-2.48-6.83-4-.36-.25-.66-.51-.5-.88-.35-.35-.44,0-.61,0-.23-.06-.41-.24-.49-.46.37-.6.52-1.3.45-2,.06-.3-.12-.59-.41-.69l-1.77.82c.46.29.91.13,1.33.18-.16.86-.46,1.08-1,.65-.95-.66-1.79-1.46-2.51-2.37-.11-.16-.18-.41-.33-.47-1.33-.55-1.87-1.91-2.9-2.74l-.09-1.19c-.33-.27-.41.2-.73.06-.6-.5-.96-1.22-1-2-.18-.25-.36.08-.57,0-.35-.31-.64-.68-.86-1.09-1.91-2.82-3.51-5.84-4.77-9-.28-.69-.27-1.49-.6-2.11-.84-1.83-1.43-3.76-1.74-5.75-.46-1.94-.73-3.92-.81-5.91.03-.35-.06-.7-.25-1v-5c.17-.31.25-.65.24-1,.18-1.57.35-3.15.55-4.72-.02-1.06.6-2.02,1.56-2.45-.16-.43-.75-.34-.83-.79s.48-.31.43-.66c-.03-1.03.18-2.06.61-3,.16-1.1.94-2.01,2-2.33.05-.22.03-.45-.07-.66-.36-.58-.36-1.31,0-1.89.18-.3.33-.63.5-.95h0c.25.53.74.22,1.12.31-.09.43.28.57.5.81-.37.23-.6.63-.59,1.07.11.07.2.15.3.2s.24,0,.3.23c-.24.69-.36,1.42-.36,2.15.55-.15,1.15-.15,1.32-.85l-.58-.26c.33-.62.06-1.25,0-1.88.29-.49.78-.83,1.34-.94-.31-.15-.66-.21-1-.18-.26,0-.31-.21-.34-.42.13-.27.67-.2.58-.72-.36.04-.71.18-1,.4-.14-.17,0-.46-.1-.55-.66-.62-.27-1.25-.06-1.87.14-.33.32-.64.52-.94,1.15-1.87,2.42-3.67,3.8-5.38.08.24,0,.58.31.69.15.04.32,0,.44-.1-.15-.28,0-.57,0-.87l-.34-.09c1.11-1.42,2.36-2.73,3.71-3.92.42.15.81.38,1-.22,0-.23-.39-.05-.43-.32.65-.71,1.36-1.35,2.13-1.93.15.37.57.47.73.67.3.59,0,1-.06,1.56.55.13.66.72,1.06,1,.32-.14.56-.31.61-.62-.22-.35-.54-.63-.91-.81.65.06.57-.31.47-.61s-.46-.74-.42-1.21h.52c.06.44.27.84.6,1.13.35-.06.64-.32.73-.67-.28-.38-.62-.72-1-1-.25.14-.53.18-.81.13l-.52-.36c.22-.5.81-.73,1.32-.51,0,0,.01,0,.02,0h0c0,.37.4.3.71.55-.08-.69.8-.58.79-1.19.52.1,1.03-.22,1.16-.73l-.61-.32c0,.4-.46.37-.58.68-.02.08-.04.15-.05.23l-.23-.54c.49-.62,1.28-.57,1.91-.87.36-.94,1.3-1.07,2-1.52l.39.34c.14-.5.82-.27.93-.67.17-.62.7-.7,1.14-.91.66-.38,1.37-.66,2.1-.85.73-.24,1.44-.54,2.12-.89,2.28-.79,4.62-1.4,7-1.83,2-.32,4-.88,6.08-.38.2-.14.16-.3.13-.45h4.8c.35.29,1,.17,1.06.82.52-.2.83-.47,1.37-.43,1.86.16,3.7.46,5.51.9.22.26-.14.48.14.61s.35-.41.67-.39c.97.17,1.92.43,2.84.77.15.39.15.81,0,1.2.24.21.51.24.68-.06.4-.7,1-.57,1.57-.39.61.17,1.2.42,1.74.75-.15-.02-.31.03-.42.14,0,.25.25.37.39.55-.36.05-.64-.37-1.09-.1-.19.15-.06.58-.51.78-.19,0-.5.06-.8.12-.12.03-.2.16-.17.28.1.38.48.17.68.32l.37,1.23c.13-.87.77-.17,1.08-.73,0-.56.42-1.11.57-1.75.2-.14.41-.27.44-.54.36-.01.72.11,1,.34,0,.3-.36.29-.48.47.15.28.47.12.63.3-.76.41-1,.82-.87,1.42,0,.18.09.47.41.53l.56-.29c-.58-.57-.28-1.01-.02-1.5Zm-33.58,84.35c.11-.23.37-.47-.14-.71-.13.35-.69.38-.68.86.29.32.47.09.67,0,.25.49.87.44,1.18.84.3-.14.64-.18.76-.56l-.56-.58c-.51-.21-.85.09-1.23.15Zm-20.79-15.42c0,.19,0,.4.12.55,1,0,.8-1,1.35-1.3-.38-.47-1-.23-1.15-.85-.56.35-.43.77-.32,1.18-.48.23-.6-.43-1-.41l-.31.29c0,.43.35.68.43,1-.48.18-.95.27-1.18.74q.35.23,1.41,0c.22-.29.33-.64.33-1-.02-.2.14-.2.32-.2Zm1.67-59.68c-.38.04-.74.22-1,.5.34,1-.55,1.95,0,3,.75-.44.26-1.23.63-1.68.3-.51.46-1.09.46-1.68.3-.07.64.08.89-.21.11-.36.08-.75-.09-1.09-.32.42-.34,1.01-.89,1.13v.03Zm47.9,73.82l.41.77c-.52.4-.69,1.11-.41,1.71h.83c.35-.37.61-.82.74-1.31-.32-.06-.36-.32-.38-.62s.07-.55-.16-.8c-.36.36-.81-.42-1.16.1-.35.17-.32-.46-.77-.26-.31.53-.31,1.18,0,1.71.37-.56.96-.7.9-1.33v.03ZM10.77,22.04c.26.72-.35,1.24-.73,1.85.25.16.55.2.83.12.22-.13.07-.32.17-.45.6-.03,1.14-.36,1.43-.88l-.34-.29c.23-.11.56.06.72-.28.08-.39.09-.79.05-1.18,0-.34.63-.67.21-1.15-1.22.26-1.68,1.3-2.34,2.26Zm46.55,67.46c.23.37.57.26.63.41.25.8-.7,1.47,0,2.19.31-.23.07-.64.41-.93.69.24.78-.58,1.25-.86.22-.08.45.29.67-.07l-.21-1.21c-.58,0-.55.52-.77.85.18-.65-.19-1.1-.43-1.66-.64.37-.81,1.06-1.55,1.28Zm-37.9-8.22c.35-1.14-1-1.35-1.17-2.2-.56.19-1.09.47-1.57.82-.09,0-.06.14.05.2.28.27.55-.17.85-.07.3.36.63.7.35,1.34l1-.4c.08.2.04.48.49.31ZM88,30.44c-.14.64-.6,1.17-1.23,1.37-.44.14-.45.37-.32.71.42,0,.83.25,1.28.07.38-.64.64-1.34.76-2.07-.15-.12-.31-.08-.49-.05v-.03Zm-82.76,1.34c-.22-.26.19-.43.06-.68q-.64-.71-.88-.57c-.24.14.29.37.16.64s-.52-.12-.5.4c.57.22.8,1,1.55,1.09.19-.38.67-.45.82-.85-.12-.22-.36-.25-.57-.34-.2.1-.23.47-.64.31Zm2.46,2.27c.8.12.05,1.2.91,1.43.14-1,.66-1.86.18-2.83-.2-.07-.41-.04-.58.08.44.62-.39.77-.51,1.32Zm-5,4.86c-.7.49-.36,1.26-.46,1.88,0,.24.39.34.75.25.17-.33.52-.6.62-1-.4-.31-.52-.76-.87-1.13h-.04Zm18.47-21.22c-.16-.95.43-1.79.14-2.84-.72.75-.61,1.78-1.19,2.41.2.47.44.61,1.05.43Zm58.16,2.67c.47-.44.5-1.09.78-1.6-.42-.6-.75-.12-1.19,0,.15.38-.3.62-.19,1,.13.26.34.47.6.6Zm9.11,18.8c.37-.58.74-1.11.05-1.7-.4.11-.77.31-1.09.58.49.24.29.97,1.04,1.12Zm-22.11,44.6c-.75-.35-.51-1-.4-1.44-.19-.21-.35-.32-.56-.19-.34.38.07.84-.14,1.24s0,.79.42,1c.1,0,.19.15.34,0l.34-.61Zm-17.13,6.27c-.3-.22-.45-.62-.88-.72l-.75.56c.35.46.81.8,1.35,1l.28-.84ZM83.71,25.73c.71-.25.78-.79.8-1.42-.5-.16-.93-.24-1.24.32-.06.41.52.59.44,1.1Zm-35.73,61.75c0,.41.26.31.42.42-.14.19-.51,0-.54.36.39.19.84.22,1-.2s.64-.91.16-1.49c-.42.21-.78.52-1.04.91Zm20.2-.91c-.21-.3-.11-.67-.4-.89-.37-.05-.74-.15-1.06.14.47,1.24.51,1.27,1.46.75ZM5.78,36.22c.75.06,1-.48,1.39-.83-.11-.25-.31-.46-.56-.57-.61.15-.99.77-.84,1.38,0,0,0,.01,0,.02Zm86.28.53c-.34-.63.17-1.2-.3-1.76-.52.06-.94.48-1,1,.56-.13.61.56,1.3.76ZM10,71.14c.36-.59,1-.68,1.28-1.17-.79-.56-.87-.53-1.65.52l.37.65Zm2.41-42.57l-1.11-.17c.49.47-.18.9,0,1.31.29-.13.38.27.63.21.3-.39.46-.86.48-1.35Zm79.39,21.77c.31-.78.22-1.66-.24-2.36-.37.08-.43.3-.38.47.09.66.3,1.3.62,1.89ZM11.98,26.08q.31.95,1.06,1.19c-.36-.6.15-1.42-.71-1.8l-.35.61Zm52.49,61.75c.33-.57.08-1-.31-1.49-.93.3-.08,1-.52,1.41.25.15.55.18.83.08ZM17.33,17.89c.46-.14.5-.19,1.08-1.27-.25-.14-.55-.14-.8,0-.34.33-.45.83-.28,1.27Zm29.81,74.94c-.47-.19-.13-.71-.46-.91-.26,0-.4.07-.59.39.58.32,0,1,.33,1.48.45-.16.48-.51.72-.96Zm9.1-5.28c.23-.24.34-.53.73-.6-.31-.45-.2-1-.38-1.47-.3.1-.55.32-.67.62l.35.25c-.04.36-.28.71-.03,1.2Zm3.32-79.52c-.34-.32-.37-.82-.56-1.3-.36.43-.52,1.17-.3,1.44s.54.31.86-.14Zm4.51,2.05c.08-1-.07-1.43-.51-1.44-.26.21-.4.54-.37.88l.88.56ZM9.83,26.65c.53.15,1.08-.16,1.23-.69.01-.04.02-.08.03-.12-.29-.22-.64-.34-1-.34.02.4-.07.8-.26,1.15Zm78.44,28.52c.14-.23.11-.52-.08-.71-.37.25-.83,0-1.32.08l.58.85.82-.22Zm-25,29.51c-.01-.13-.01-.26,0-.39.06-.14.06-.31,0-.45q-.84-.06-.89.83c.28.15.62.15.91,0h-.02Zm25.84-38.33c0,.21.09.41.25.55.2.2-.21.44.06.6.19.1.43.06.57-.1-.02-.34.04-.69.18-1-.33-.14-.7-.15-1.04-.05h-.02Zm-6.89-18.3c.32-.67.91-.73,1.31-1.05.02-.26-.14-.49-.39-.56-.33.44-1.24.49-.9,1.61h-.02Zm5.13-1.29c.3-.28.53-.62.68-1-.3-.38-.61-.19-.91-.18-.13.41-.04.86.25,1.18h-.02ZM33.7,4.85c-.22.26-.22.65,0,.91.29-.62.7.31,1.07-.16,0-.7-.64-.58-1.07-.75ZM14.5,78.75c-.29.5.39.62.26,1-.11.17-.43.18-.16.59.57.07.61-.42.72-.83-.2-.33-.48-.59-.82-.76ZM5.79,38.48c.12-.09.23-.18.33-.28.03-.06.05-.13.06-.2q-.71-.69-1.42-.14c.48,0,.67.36,1.03.62Zm0,25.37c.58-.52.65-.75.28-1-.31,0-.6.16-.78.41-.03.3.19.56.49.59,0,0,0,0,0,0h.01Zm6.77,3c0,.22-.47-.05-.47.33.2.26.35.61.8.52,0-.51.35-1,0-1.43-.6.01-.14.36-.33.55v.03Zm37,24.79c.65.2.75-.18.83-.67l-.84-.18c-.12.27-.12.58,0,.85Zm-.75.6c-.19.5.1.77.38,1.19.2-.34.53-.39.49-.74-.2-.31-.56-.47-.92-.41l.05-.04ZM68.66,9.4c-.55-.13-.94-.09-1,.53.02.2.2.35.4.33,0,0,.01,0,.02,0,.34-.16.56-.49.58-.86Zm21.47,33.43c-.36.8.18,1.17.81,1.79.09-.94-.77-1.18-.81-1.79Zm-2.34-15.88c-.63-.31-.74.17-.88.5s.07.49.41.58c.23-.33.39-.69.47-1.08ZM5.98,34.66c-.39-.68-.75-.24-1.16,0,.13.26.34.46.6.58.25-.12.45-.32.56-.58Zm60.33,52.35c-.16-.76-.38-1.09-1-1,.03.53.33.76,1,1Zm13.36-68.84c-.09-.29-.31-.52-.6-.63-.43.28-.52.57,0,.92l.6-.29ZM7.1,52.8c-.37.37.09.6.26,1.21,0-.6.49-.57.5-.93-.14-.28-.47-.4-.76-.28Zm-.82-19.06l-.74-1c-.27.42-.15.97.26,1.25.03.02.06.04.1.05l.38-.3ZM53.05,6.83c-.34.49-.42.81,0,1.13.37-.36.35-.68,0-1.13Zm-8.82,82.53c-.18.28-.14.64.08.88.22,0,.45.09.6-.27-.18-.25-.42-.45-.68-.61Zm18.88-3.58c.35.49.68.33,1,.26,0-.3,0-.49-.18-.61s-.5.18-.82.35Zm1.45-1.7c-.89.13-1,.28-.62.86.15-.32.62-.33.62-.86Zm-49.84-8.27c.1-.53-.11-1.07-.54-1.39-.12.53.09,1.08.54,1.39Zm74.84-22.86c-.18-.23-.12-.52-.42-.58-.25.1-.43.31-.51.57.06.15.18.28.34.33l.59-.32Zm-.65,2.77c-.02.24.08.47.26.63.32-.11.7-.14.83-.63h-1.09ZM12.18,72.72q.43-.47-.11-.94c-.51.42-.09.67.09.97l.02-.03Zm-5.54-2.44c.7-.17.59-.63.49-1.16-.57.28-.44.75-.49,1.16ZM59.32,3.63c.65.34,1,0,1.6-.18-.53-.22-1.13-.16-1.6.18ZM13.79,24.19c.25-.09.42-.23.39-.52-.07-.18-.22-.33-.41-.39-.06,0-.14,0-.26.08.04.29.14.57.28.83Zm-4.7,6.48c.1.41-.4.55-.12.94.27,0,.53-.07.65-.37s-.13-.36-.53-.57Zm28.47,59.61l-.25-1.28c-.42.48-.54.88.25,1.28Zm26.68-2c-.25.35-.28.82-.07,1.2q.39-.77.07-1.2Zm-4.34.14v-1c-.19-.12-.43-.08-.57.09.23.21,0,.68.57.87v.04Zm-48.98-24.14c-.59.5-.28.8.1,1.24.14-.41.1-.86-.1-1.24Zm16.82,25c.32.3.82.3,1.14,0-.44,0-.62-.51-1.14.05v-.05ZM69.11,8.45c0-.39.56-.71-.14-1-.11.31-.55.56.14,1Zm-34.7.83q.44-.39,0-.84c-.18.25-.18.59,0,.84Zm-10.8.15q0,.52.36.77c.16-.39.06-.65-.36-.77Zm47.22,2.22q.32.42.68,0c-.22-.25-.44-.21-.68,0Zm12.13,9.74c.39.29.64.35.83-.06-.23-.32-.5-.3-.83.06ZM3.04,37.13q.05-.51-.35-.79c-.13.39-.08.66.35.79Zm-1.21,7.68c.16-.13.19-.37.06-.53-.02-.02-.04-.04-.06-.06-.13-.14-.34-.15-.48-.03-.03.03-.06.07-.08.11.07.26.29.46.56.51Zm88.54,1c0-.32.5-.33.53-.71q-.79.18-.53.72h0ZM3.38,62.28c.31.04.63-.04.89-.22-.11-.24-.36-.37-.62-.33-.21.09-.32.33-.27.55Z"/>
    <path class="cls-1" d="m56.25,15.18c.19-.14.41-.23.65-.24h5c-.73,1.22-.71,1.34.29,1.64.4-.16.17-.7.49-.86.09-.09.13-.06.19,0,.17.37.23.77.17,1.17v9.48c.03.28.03.56,0,.84-.08.57-.56,1-1.14,1-1.23.16-2.48.13-3.7-.08-.39-.1-.66.15-1,.15-1.1,0-2.2-.09-3.3-.13-.3,0-.31-.51-.67-.35-.15.08-.22.25-.18.41.51,1.34.08,2.72.21,4.07-.04.44,0,.88.12,1.31.38.31.84.2,1.26.2h6.84c1.44,0,1.78.35,1.67,1.81-.15,2.11-.35,4.22-.55,6.33-.05.3-.12.6-.22.89-.4.12-.72-.1-1.16-.08.18.61.86.54,1.16,1.29-.07,1-.14,2.27-.28,3.58-.09.87-.44,1.18-1.31,1.25-1.11.18-2.24.15-3.33-.09,0,0-.07-.07-.1-.06-1.43.45-2.93,0-4.41.33-.31.53-.06,1.12-.24,1.72-.77.1-1.43.6-1.74,1.31,0,.24.13.45.32.59.3-.19.09-.65.41-.84l1-.3c.03.12.06.24.07.36v3c0,1.2.23,2.45-.64,3.44.18.26.35.18.5.18.49.49-.11.67-.29.93,0,.3.28.29.38.47s-.27.38-.28.42c.34,1.98.45,3.99.34,6-.24-.13-.16-.36-.35-.38h-.2c-.35.58,0,.86.52,1,.06.35-.33.59-.17.93l-.43.44c-.52.23-.58-.59-1.17-.45.14.42-.54,1,.35,1.28l-.38.42c.04.34.21.65.48.86.32-.06.68.2,1,.06,0-.09.12-.15.13-.22s-.11-.28-.25-.37c0-.27.21-.38.42-.51v6.2c0,.39.08.81-.33,1.07l-.07-.83c-.4-.1-.72-.33-1.08-.29-.55.7.48.71.44,1.2.03.15.17.24.32.21.05-.01.1-.04.14-.08.03-.03.07-.05.11-.06.3.18.49.51.49.86.02.73-.05,1.46-.19,2.17-.21.09-.26-.35-.43-.18-.44.16-.17.66-.66.87h-4.33l-.12-1.74c-.21-.35-.68-.25-.84-.6.28-.31.28-.77,0-1.08.32-.3.23-.63.09-1-.15-.03-.3-.07-.45-.12-.18-.06-.33-.22-.62-.11l-.47.41c-.07-.2-.28-.3-.48-.24,0,0-.01,0-.02,0-.55.2-.91.72-.91,1.3,0,.57.07,1.15.11,1.76.39.35.68.8.85,1.29.28,0,.47.07.63-.19-.08-.48-.54-.79-.67-1.25-.36-.59.55-1,.25-1.56.35-.51,1-.52,1.51-1v.61c-.37.26-.46.77-.2,1.14.05.08.12.14.2.2-.23.24-.28.59-.13.88.16.42.23.87.2,1.32h-3.08c-.28-.12-.1-.51-.19-.53-.3-.11-.63-.05-.88.15-1.1.78-2.3.46-3.45.32-.57-.11-.96-.63-.91-1.21-.09-.45-.09-.92,0-1.37.39,0,.37.65.84.54.45-.92.31-1.13-.89-1.26-.06-.43-.06-.88,0-1.31.3-.34.72-.55,1.17-.6-.4-.35-.74-.22-1.1-.23v-6.04c0-.16.5,0,.59-.33s-.49-.34-.63-.85c.13-1.48-.06-3.14,0-4.82s0-3.43,0-5c.12-.39.49-.25.59-.5s-.39-.37-.58-.63v-1.42c.37,0,.62.48,1.06.12-.14-.48-.52-.86-1-1-.15-1.07.15-2.07,0-3.12-.19-1.05-.27-2.11-.26-3.18-.51,0-.45.51-.94.64-.84.14-1.71.14-2.55,0-.5-.14-.4-.71-.5-1.11-.71.15-.74,1.06-1.59,1-.57-.23-.58-.85-.58-1.45v-11.75c0-1.47.3-1.74,1.78-1.75h3.11c.38.05.77.01,1.14-.11.34-.38.23-.8.24-1.18,0-1.56-.07-3.13.06-4.68.35-4.15,1.84-7.75,5.32-10.3,1.78-1.27,3.84-2.08,6-2.39,1.66-.23,3.33-.32,5-.25.35,0,.76-.09.89.42.3-.42.86-.55,1.32-.32-.35,0-.73,0-.85.44l.6.52c-.21.05-.47,0-.63.21s-.15.58.14.82c.6,0,.61-.45.63-.88.62-.24.62-.35.31-.98Zm-16.81,53.15c-.24-.34-.51-.63-1-.33.1.49.49.45.83.48.18.2.44.32.72.33.17-.17.18-.45,0-.62,0,0,0,0,0,0-.24-.11-.43.04-.55.15Zm1.55-26.18c-.3.06-.6.13-.61.54.21.24.41.47.73.12.49-.06.57-.39.57-.78-.3-.11-.52-.11-.69.12Zm-1.56,17.28c-.22-.16,0-.46-.19-.63-.18-.09-.4-.05-.54.1.17.28,0,.68.34.93l-.13.37c.46.15.95.11,1.38-.1-.6-.1-.32-.72-.86-.67Zm11.54-31.66c-.16-.67-.74-.5-1.23-.69-.08.65-.33,1.23.29,1.85.2-.48.16-1.07.79-1,.06.29-.3.49-.15.84.68.53.82,1.6,1.69,2,.49-.26.61-.66.77-1.2-.44.18-.93.12-1.32-.15.2-.52.03-.83-.84-1.65Zm-.56,47.83c.44-.19.32-.5.12-.76-.21-.32-.64-.4-.96-.19-.01,0-.03.02-.04.03-.26.17-.43.44-.79.42-.11,0-.15,0-.14-.09.21-.14.53-.19.49-.55-.17-.19-.49-.05-.69-.4.05-.41-.17-.81-.54-1-.56.51-.12,1.3-.57,1.85l.4.38c-.21.36-.6-.06-.85.2.14.37.07.74.6,1,1,.5,1,.66.59,1.8-.01.11-.01.23,0,.34,1.24,0,.38.77.42,1.24l.83.11c.53-.52.34-1.28.69-1.83.26.15.6.06.75-.21.05-.1.08-.2.07-.31,0-.44.32-.65.46-1-.63,0-.55-.7-.89-1l.05-.03Zm-4.74-35.88c0-.92,1.1-.35,1.17-1.18-.37-.16-.4-.65-.64-.85s-.52,0-.65.13c-.11.11-.18.25-.21.4-.12.52,0,1.07.33,1.5Zm5.67,22.7c.06.48-.08.97-.37,1.36.25.49.72.24.84.35.29.28-.15.65.43.66.33-.68,0-1.39,0-2.12l-.9-.25Zm-4.69-4.6c-.4-.95-1.06-1.77-1.89-2.38.3,0,.48-.13.38-.35-.21-.47-.6-.35-1-.22-.11.66.36.94.76,1.33s.88.72.82,1.39l.93.23Zm-6.86-4.13c-.85,0-.74.81-1.38,1.08.64.23.85.68,1.18,1,.87-.67.04-1.34.2-2.08Zm3,25.58c-.18-.41-.3-.84-.35-1.28-.03-.29-.17-.55-.4-.73-.16-.07-.36-.01-.45.14l.38,1-.41,1.02c.41-.01.78.5,1.21-.14h.02Zm-9.89-33.72c-.46-.39,0-.9-.34-1.37-.6.65-.31-.71-.85-.37-.39.73.54,1.26.17,2l1.02-.26Zm10.35-16.21c-.22-.12-.28-.34-.46-.22s-.22.4-.55.21-.62,0-.71.35.17.49.45.58c.51-.16.96-.48,1.27-.92Zm8.31,2.76c-.46-.62-.83-1.33-1.79-1.08.04.27.24.48.51.53.32.1.06.54.42.65.29.04.59.01.86-.1Zm0,34.76c.17-.56-.1-1.12.44-1.37.1.09.17.28.36.12.09-.19.05-.42-.11-.56-.48-.2-.82.24-1.37.26.46.45-.09,1.11.68,1.55Zm-3-1.43c.24,0,.18.46.48.17.19-.47-.05-1.01-.52-1.19-.05-.02-.11-.04-.17-.05-.36.35-.45.89-.22,1.34.27.14.34-.02.36-.27h.07Zm-7.7,3.48c-.57.56-1,.83-1.22,1.31.12.3.46.46.76.34.02,0,.05-.02.07-.03.38-.39.28-.88.39-1.62Zm18.63-51.33c-.47-.63-.94-.17-1.42-.14.37.34.7.71,1,1.11.22-.28.37-.61.42-.97Zm-18,33.52c-.22.16-.26.47-.09.69,0,0,0,0,0,0,1,.07,1.4,0,1.58-.22-.5-.35-1.07-.29-1.53-.47h.04Zm1.41,11.18c.21.71.49,1.15,1.27,1-.79-.3.09-1.33-.73-1.62-.23.17-.03.62-.54.62Zm-3.89,2.32c0,.31,0,.65-.35.89.4.1.71.33,1.12.28.12-.27.12-.57,0-.84-.2-.22-.47-.35-.77-.36v.03Zm4.64-11.72c.48-.27.65-.88.37-1.36-.02-.03-.04-.06-.06-.1-.29-.06-.59.08-.72.35.23.28.05.7.41,1.11Zm5.27-8.76q.07-1.06-1-1.41c.3.42.18.81.34,1.14l.23.12c.14.06.28.11.43.15Zm-2.7-9.3c-.82.45-.84.48-.53,1.21.25-.22.55-.37.88-.43.1-.32-.01-.54-.35-.78Zm-11.66,5.46c-.27.21-.33.59-.16.88.27.54,1,.06,1.28.71.14-1-.54-.85-.87-1-.25-.19.12-.43-.25-.59Zm16.7,34.35q.95-.18.67-1.05c-.37.28-1.04.23-.72,1.07l.05-.02Zm-4.48-10.79c-.16-.37-.16-.78,0-1.15-.47-.17-.72,0-.89.29.15.37.18.85.89.86Zm-1.45,9c-.09-.38-.32-.72-.65-.94-.1.26-.12.54-.08.82-.01.16.05.32.17.43.22.13.38,0,.56-.29v-.02Zm4.46-30.86c-.45,0-.59-.31-.92-.26s-.51.31-.54.69c.49.24.9.08,1.46-.41v-.02Zm-5.77-18.9c-.22-.33-.52-.6-.86-.8l-.37.71c.34.18.65.52,1.23.11v-.02Zm2.6,10.38q-.39-.57-.94-.5c.13.19-.17.44.17.66.13.01.25.01.38,0,.13-.04.26-.08.39-.14v-.02Zm.84,34.72c.84.57.94.57,1.68,0-.55-.14-1.13-.13-1.68.02v-.02Zm-2-40c-.24.36-.13.84.23,1.08.01,0,.02.01.03.02h.27l.07-.71c-.36.11-.3-.42-.65-.39h.05Zm3.1,22.73c-.47-.86-1-.3-1.5-.48.37.7.85.46,1.5.48Zm1.35,21.05c-.36.47-.63.77-.36,1.18.17.14.41.14.58,0l-.22-1.18Zm-1.45-10.24c-.33,0-.71-.29-1,.24.28.34.63.27.89.38.14-.17.18-.41.11-.62Zm-4.64-1q.4-1.18-.56-1.13l.56,1.13Zm11-34.54c-.28-.45-.65-.26-.92-.39s-.34,0-.32.31c.36-.02.68.52,1.21.09h.03Zm-3.55,8.1l-.6.86c.16.18.4.28.64.27.17-.36.16-.78-.04-1.13Zm-8.82,9.27c-.25-.4.33-.88-.1-1.28-.35.49-.67.93.1,1.3v-.02Zm-1.78,3.73c.26,0,.5.11.62-.22-.07-.36-.43-.42-.65-.67-.16.28-.15.62.03.89Zm4.35,26.17c-.32,0-.63.13-.84.37v.23h.9c.09-.2.07-.43-.06-.61h0Zm-5.59-21.53c-.16.41-.16.87,0,1.28.6-.44.55-.85,0-1.28Zm10.34,17.68c-.28-.03-.53.18-.56.46,0,.05,0,.1,0,.15.19.19.5.2.69,0,0,0,0,0,0,0,.04-.21.1-.43-.15-.61Zm-7.87-.65c.16-.43.5-.61.52-1-.8.06-.86.24-.52,1Zm7.51-46.29c-.13-.23-.27-.41-.58-.32-.2.27-.22.55.06,1,.07-.39.39-.43.52-.68Zm5.75,4.62c-.36.19-.93-.21-1.27.61.55-.3,1.03-.07,1.27-.61Zm-10,9.68c0-.32.34-.61.06-.93q-.43.33-.02.92h-.04Zm2,17.2q.84-.53.65-1.27l-.65,1.27Zm.56,6.75c.32-.02.63-.12.9-.29-.06-.25-.3-.42-.55-.38-.23.14-.34.4-.29.66h-.06Zm-8.1,13.66c-.25-.43-.51-.57-.93-.32.13.27.25.54.68.6l.25-.28Zm13.36-54.54c-.24.11-.68,0-.64.5.45.21.63-.01.64-.5Zm-2.49,5.85c.25-.28.47-.47.38-.77-.05-.12-.19-.17-.31-.13-.28.23-.23.52-.07.9Zm-8.4,49.09q.56.34,1-.07c-.33-.14-.7-.11-1,.07Zm9.72-2.34c-.26.39-.38.64.13.84.2-.28.27-.5-.13-.84Zm-7.94-5.94c.17-.36.17-.77,0-1.13-.46.4-.47.72,0,1.13Z"/>
    <path class="cls-1" d="m75.13,74.41v.41c.51.13,1.13.14,1.27.77.38.1.53-.23.75-.28.41.13.48.55.75.71.65-.2.2-.66.26-1,.38.03.71.24.9.57.73-.67,1,.12,1.53.52-.12-.51.47-.75.29-1.22h0c.62.21,1-.24,1.54-.5l.17.61c-.06.34-.42.28-.55.6.38.63.38,1.43,0,2.06l.43.36c-.73.97-1.58,1.86-2.51,2.64h0c.15-1-.87-1-1.38-1.42.2-.33.39,0,.62-.12,0-.66.74-1.35,0-2-.34,0-.46.3-.6.62-1-.66-2.07.26-3.19-.09.06-.54-.32-.88-.55-1.27-.94-.12-.32.71-.65.94h0c-.04-.3-.19-.57-.42-.76-.38.35-.9.48-1.4.35,0-.4.38-.54.64-.78.38-.07.64.5,1.13.17.33-.31-.09-.67-.11-.92.2-.65.83-.57,1.13-.93l-.05-.04Zm5.77,3.72c-.4-.36.11-1.22-.86-1.34-.29.47-.29,1.06,0,1.53.26.28.52.21.86-.19Z"/>
    <path class="cls-1" d="m84.96,70.28v-.17l.77-.29c.29.24,0,.43,0,.6.23.67.91.62,1.35.91-.1.54-.35,1.05-.7,1.47-.28.16-.73-.27-.87.3,0-.33,0-.68-.38-.81-.16,0-.36.16-.33.24.29.76-.29,1.55.14,2.33-.35.89-1.09,1.58-2,1.88.75-.77.62-1.66.92-2.38-.46-.49-.77-1.08-1.48-1.16h0c.51-.41-.1-.65-.16-1,.15-.34,1-.6.05-1-.35-.17-.16-.93-.78-1-.33-.34-.57-.87-1.53-.38.9,0,.4,1,1.14,1-.11.7-.93,1.07-.77,1.8-.27.15-.26,0-.34-.1-.09-.04-.19-.07-.29-.09-.07-.91-.25-1.81-.54-2.68-.32.64-.4,1.38-.21,2.07l-.89-1.13,2.41-3.56c.26.09.39.43.71.26h0c-.15.27-.51.4-.5.76.03.21.18.38.39.44.6.08.86.49,1.13,1,.41.59.64,1.28.66,2,0,.3.25.48.62.44l.31-.58c.4-.16.9.1,1.16-.4.23.24-.23.76.49.72.16-.39.18-.82.06-1.22-.1-.27-.34-.27-.54-.27Z"/>
    <path class="cls-1" d="m88.8,64.9l.41.09c.18-.3.46-.56.33-1-.22-.18-.63-.07-.74-.48.74-.69,1.79-.76,2.66-1.25-.24.83-1.35.44-1.62,1.22-.24.35-.07.72.06,1.06-.07.3-.4.43-.39.68,0,.43.45.48.59.78-.3.96-.8,1.84-1.47,2.59-.23.19-.29-.25-.5-.12-.15.28-.13.33.31.79l-.5.71c-.46-.1-.14-.58-.42-.8l-.78.21c-.19-.09-.29-.3-.24-.51.13-.33.71-.1.84-.73-.13-.04-.24-.1-.33-.2.6-.43.74-1.27.3-1.87,0,0,0-.01-.01-.02.55.2,1,.36,1-.39,0-.33.19-.64.5-.76Z"/>
    <path class="cls-1" d="m72.49,78.71c.49-.2.93-.64,1.43-.19.33-.14.23-.67.69-.54.24.19-.15.46.11.66.28-.06.56-.06.84,0l.2-.44c.54.21.53,1,1.36,1-.39.28-.76,0-1,.36.2.42.47.8.8,1.12.08.35,0,.72.18,1.07-.38.36-.71.58-1.07.06-.08-.26.2-.34.22-.57-.59-.34-1.02-.89-1.21-1.54-.43-.08-.83-.21-1.1.06s-.57,0-.85,0-.16.45-.57.42c.48-.51.08-1-.06-1.42l.03-.05Z"/>
    <path class="cls-1" d="m75.13,74.4c.13-.18.35-.29.58-.28.33,0,.69.26,1.06-.08-.31-.27-.74-.47-.67-1.1l1.46-1.49c.42.61.32,1.53,1.4,1.65-.74.46-1.71.39-1.75,1.42-.67.12-1.35.08-2-.11h-.08Z"/>
    <path class="cls-1" d="m83.88,65.01c.84-.17.65-1.47,1.66-1.31.33.3,0,.55,0,.83-.48-.16-.69.34-1.26.34.37.49.69.82.65,1.33q.71-.41,1.3.83c-1.35.36-1.79.12-2-1.13.04-.31-.17-.48-.35-.89Z"/>
    <path class="cls-1" d="m79.93,74.4c-.58-.11-.34-.69-.59-1,.29.22.6.39.94.52.33-.47.77-.85,1.28-1.1.34,0,.45.4.76.37h0c-.07.9-.83,1-1.44,1.2h0c0-.16.07-.31-.16-.46-.17.29-.69,0-.79.46h0Z"/>
    <path class="cls-1" d="m72.25,85.2c-.32,0-.43.32-.72.38l-1.44-.62h0c.47-.21.29-.83.72-1.09l.39.2c.2.33.57.18.84.3s.22.54.21.84h0Z"/>
    <path class="cls-1" d="m79.93,80.64c-.44.53-.93,1.02-1.46,1.46-.41-.29-.11-.66-.26-.93s-.52,0-.53-.36c.48-.35.9.25,1.36.08.24-.08.19-.32.28-.49l.63.26-.02-.02Z"/>
    <path class="cls-1" d="m75.38,83.96l-1.12.12c-.23-.81.19-1.53.58-2.45,0,.88-.22,1.7.53,2.21v.12Z"/>
    <path class="cls-1" d="m92.25,57.13c-.33-.07-.23-.5-.52-.59.27-.26.41-.77,1-.45-.04.39-.21.75-.48,1.04Z"/>
    <path class="cls-1" d="m72.25,85.2c.4.22.41,1,1.17.73-.25.32-.6.54-1,.61-.36-.41-.15-.9-.22-1.34h.05Z"/>
    <path class="cls-1" d="m74.41,81.36c-.43.26-.75.13-1.14.22l.35-.58c.25.07.56.01.79.36Z"/>
    <path class="cls-1" d="m41.83,91.75c.15-.37.34-.56.7-.43.13.09.16.24.1.31-.18.25-.39.47-.8.12Z"/>
    <path class="cls-1" d="m86.83,63.74c-.2-.21-.69-.15-.55-.65.13-.17.37-.2.53-.07.02.02.05.04.07.07.07.21.05.45-.05.65Z"/>
    <path class="cls-1" d="m80.89,74.4v.47h0c-.69.19-.91.08-.95-.48h0c.31.39.63.07,1,0h-.05Z"/>
    <path class="cls-1" d="m74.17,77.28c-.27.3-.53.62-1,.13l1-.14h0Z"/>
    <path class="cls-1" d="m78.06,79.52c0,.38-.12.69-.69.34l.69-.34Z"/>
    <path class="cls-1" d="m52.12,68.39l.43-.44c.29.24.21.52.09.8-.28.02-.4-.17-.52-.36Z"/>
    <path class="cls-1" d="m75.38,83.96v-.12h.59q-.2.44-.59.12Z"/>
    <path class="cls-1" d="m5.05,26.16l.46-1c.28.12.3.36.39.54-.12.46-.53.39-.86.47h.01Z"/>
    <path class="cls-1" d="m19.93,9.35c.12-.31,0-.8.65-.85l-.65.86h0Z"/>
    <path class="cls-1" d="m50.4,75.61c-.41.22-.61,1-1.38.44.43-.35.74-.85,1.39-.45h-.01Z"/>
  </g>
</svg>