<?xml version="1.0" encoding="UTF-8"?>
<svg id="Capa_1" data-name="Capa 1" xmlns="http://www.w3.org/2000/svg" width="33.15mm" height="33.21mm" viewBox="0 0 93.97 94.13">
  <defs>
    <style>
      .cls-1 {
        fill: #4fb7f7;
        stroke-width: 0px;
      }
    </style>
  </defs>
  <g id="OBJECTS">
    <path class="cls-1" d="m81.22,79.31c-1.66,1.89-3.52,3.61-5.54,5.11-2.66,2.06-5.53,3.82-8.58,5.24-.6-.12-1.15-.41-1.58-.85-.33.46.3.75-.09,1.17-.3.1-.76-.18-1.14.11,0,.27.33.2.37.48s-.32.25-.5.32c-2.2.85-4.45,1.55-6.75,2.08-.49.11-.92.18-1.29-.26l-.28.54c-1.86.44-3.77.69-5.68.77-3.43.24-6.88.09-10.27-.46-1.42-.27-2.86-.42-4.26-.82s-2.85-.76-4.22-1.31c-.39-.15-.75-.26-.86-.71-.39.1-.8.1-1.19,0-3.32-1.37-6.48-3.11-9.42-5.18-.05-.05-.1-.11-.13-.18.06-.1.22-.14.11-.32s-.69,0-1-.29c.06-.94-1.1-.73-1.42-1.39-1.1-.2-1.66-1.14-2.39-1.82l-1.3-1.23c-.86-.76-.93-1.11-.4-2.15.15-.28.15-.43-.13-.57s-.29.33-.41.5c-.13.26-.34.47-.6.6-1.62-1.75-3.09-3.65-4.38-5.66.29-.52,1.23-.5,1-1.3.38-.25.82,0,1.07-.36,0-.32.2-.71-.27-.82-.27.14,0,.44-.29.53s-.28-.33-.47-.44q-.84.22-1.32,1.07c.14.38.18.79.1,1.18-.26-.35-.39-.78-.37-1.21-.83-.37-1.31-1.24-1.19-2.14-.27-.15-.58-.21-.76-.57-1-1.94-1.86-3.94-2.59-6,.36-.48.52-1.07.47-1.66-.5.11-1.09.31-1.14-.54,0-.29.52-.28.42-.64s-.57-.4-.91-.69c-.02-.89-.21-1.78-.56-2.6-.24-.92-.35-1.88-.54-2.82-.07-.33-.13-.63.24-.81-.62-1-.86-2.93-.76-6.28.19-.14.38-.27.55-.42s0-.15.07-.21c0-.35-.4-.23-.57-.52.39-.42.07-.94.07-1.46.03-1.31.17-2.63.4-3.92,0-.23.08-.47.1-.7-.04-.64.23-1.27.72-1.69-.14-1.25.03-2.53.49-3.7.28-.49,1.43,0,1.17-1.09-.31-.07-.51.35-.88,0,0-.27.25-.59.32-.94l.71-.19c.05-.38-.41-.52-.33-.88s.23-.27.39-.34c-.08-1,.9-3.13,2-5.21.64.14.81-.84,1.56-.54.06-.65.51-1.17,0-1.73.32-.38.18-.9.44-1.31,1.14-1.79,2.38-3.5,3.74-5.12.22-.27.43-.61.87-.47.43-1.41,4-4.92,5.17-5.11.31-.21.13-.61.48-.88,3.57-2.87,7.55-5.21,11.8-6.93,1.18-.46,2.38-.91,3.57-1.35.65-.19,1.32-.3,2-.32.54-.06.63.23.88.78.13.09.46-.06.76-.07.32-.4.12-.83.29-1.29.72-.46,1.61-.55,2.41-.24.54-.72,1.31-.63,2.07-.51.22.41-.17.62-.15,1-.26-.29-.28-.73-.74-.64s-.06.49,0,.73l-.57.28v.2c.52.41.78,1.06.71,1.71,0,.31.08.61.56.78,0-.83,1-1.26.79-2.06s.47-1.4-.18-2q.83-.26,1.51.12c.21-.28.55-.43.9-.39.25,0,.59.12.68-.28h1.68l.15,1.42c.34,0,.39-.25.54-.33.46.2.98.2,1.44,0-.4-.38-.85-.6-.93-1.11h1.92c.34.23.74.34,1.15.31,1.07.06,2.14.18,3.2.36l.29.52c.86-.78,1.71,0,2.4,0,1,.47.3,2,1.57,2.1q.62-.77-.09-1.29c.31-.31.78-.39,1.17-.19.77.28,1.57.49,2.34.8s1.42.38,2.11.65c.92.36,1.82.77,2.74,1.13.34.14.6.42.72.76.62-.05,1.27-.17,1.45.71.43.02.85.17,1.2.43,0,.88.07.91,1.27.71.44.39.21.87.23,1.28-.3.24-.48-.13-.78,0-.21.08-.34.3-.31.53-.26.26-.71,0-1,.35.13.53.67.53,1.06.75.31-.17.17-.76.66-.71s.33.55.8.5c.54-.53.4-1.32.52-2.15.66.5,1.34.95,2.06,1.36.74.36.94,1.24,1.82,1.51.81.3,1.46.93,1.77,1.74.11.06.55,0,.84.31l-.6,1c-.17,0-.24,0-.61.26.53.13,1,.44,1.33.88.41-.46.53-1.11.31-1.68,1,1,2,2,2.89,3s1.76,2.07,2.59,3.15c.9,1.03,1.61,2.2,2.1,3.48.39,1.23,1.86,1.83,1.91,3.28l-.43.31c.15.54.67.34,1.09.58.33,1.17,1.55,2.16,1,3.75.5.17.88.58,1,1.09,1.15,3.31,1.93,6.74,2.33,10.23.26,2.62.34,5.26.24,7.89-.1.53-.14,1.07-.11,1.61l-1.58.22c.15.86.67.08.92.32.1.29,0,.59.15.9.58,1.08.24,1.56-1,1.49q.22.63,1,.55c0,.4-.45.53-.55.86q.39.57,0,2.06c-.27.33-.85.24-1,.73h0c-.23-.05-.6-.15-.64.09-.08.49-.53.23-.75.46.09.49.82.52.7,1.07.24,0,.38-.14.53,0q.4,1.16-.23,2.26c-.45-.16-.1-.46-.13-.69-.29-.59-.92-.93-1.57-.83-.15-.4.31-.3.36-.53-.04-.29-.18-.56-.4-.76-.49-.1-1-.02-1.45.21.4.62.85,1.2,1.35,1.74.07.1.44.46.72,0,.15.64.17,1.32,1,1.32-.17.69-.41,1.36-.71,2-.59,0-1.07,0-1.07-.7-.8-.06-.61,1.17-1.39,1-.18.17-.07.3,0,.34.28.14.4.48.26.76,0,.02-.02.03-.03.05-.12.31-.43.49-.76.44-.39-.13-.76.06-1.12,0l-.27-.55c-.29.08-.15.45-.45.57-.47.08-.63-.5-1-.55-.11-.23.2-.45-.12-.56-.07.02-.14.04-.21.07-.22.11.08.78-.55.5-.07,0-.27.25-.42.39,0,.65.44.88,1,1l.58-.51c.23.08.51.07.49.49.92-.62,1.76-.13,2.66-.07l.37-.4.12.45h0c-.2,0-.38.14-.45.33.06.33.41.46.55.77-.1.37-.27.71-.51,1-.09-.37-.2-.73-.33-1.08-.04-.2-.24-.33-.44-.29-.08.02-.15.06-.2.12-.24-.32-.56-.17-1-.18.41.56,0,1,0,1.49-.52,0-.59.38-.73.69.17.37.38,0,.67.19-.43.76-.48,1.66-.89,2.46,0,.31.35.42.4.7-.08.53-.58.59-.91.85s-.7.38-.89.74c-.32.12-.62,0-.87-.07-.13.16-.15.29,0,.36.34.18.62.45.81.78-.74,1.02-1.58,1.97-2.51,2.83-.08-.22.26-.4,0-.71-.24.13-.55-.05-.82.21.02.41.3.63.72.63ZM3.58,59.12c.25-.25.3-.64.12-.94-.17-.13-.41-.13-.58,0,0,.31.11.61.31.84-.15.42-.75.64-.55,1.36.31-.5,1.05-.54.7-1.26ZM78.21,15.78c-.29-.26-.63-.46-1-.59-.17.2-.14.51.06.68,0,0,0,0,0,0l.75.06c.45.46.86,0,1.3,0-.03-.3-.17-.57-.4-.77-.22.21-.26.69-.72.62ZM28.52,87.2c.38-.09.78-.05,1.14.12,0-.34-.15-.67-.4-.91-.23-.07-.48-.07-.71,0l-.18.64c-.27.16-.49.39-.63.67l.37.92c.21-.58.96-.82.41-1.44ZM40.13,5.2c-.31-.38.36-.49.23-.82q-.73,0-1,1.12c.32.09.62.16.88-.13l.29.36c.23-.15.35-.43.3-.7l-.27-.21c-.18.08-.32.22-.41.4l-.02-.02ZM15.66,73.31c.05.3-.33.7.2.89.28.1.43-.1.56-.31-.08-.34-.14-.7-.61-.72,0-.22,0-.48-.2-.64q-.76.12-1.14.89l-.38.09-.07,1.25.68.61.52-.27c-.09-.55-.3-1.07-.61-1.54.3-.23.68-.32,1.05-.25Zm65-.23c.51.31-.28.81.27,1.22.12-.65.86-1,.55-1.74-.36-.16-.78,0-.94.36,0,0,0,0,0,0-.17-.37-.65-.42-.82-.87-.05.13-.1.26-.13.4-.01.14-.01.29,0,.43.2.21.47.35.76.38.07-.03.17-.15.26-.21l.05.03ZM2.66,41.15c.18-.09.31-.26.35-.46-.27-.5-.67-.41-1.22-.26l.47.33c-.36.38-.53.78-.09,1.24l.36-.19c.24,0,.17.35.44.44.37-.15.8-.29.5-.88l-.81-.22Zm80.19,28.29c.37.27.29.74.5,1.12.49-.77.74-1.68.7-2.59-.16-.12-.36-.19-.57-.18-.26.38,0,.87-.23,1.26-.14-.65-.56-.42-1-.28.36.12.36.54.6.67Zm-14.87,11.4q-.46,1.26-1.46,1.47c.43.5,1,.21,1.43.31-.33.87.41,1.71-.07,2.63.56-.17,1.15-.25,1.74-.24,0,.19,0,.4.14.57s.42-.11.71-.3c-.33-.07-.07-.52-.49-.53l-.22.12c-.46-.64-.87-1.31-1.23-2,0-.16-.27-.26-.42-.39.23-.25.64,0,.82-.26s0-.41-.09-.58,0-.39-.19-.52l-.56-.19c.18-.09.31-.25.37-.44-.15-.44-.51-.42-.88-.4.3-.22.64-.38.94-.6.75-.75,1.66-1.32,2.66-1.66.36-.02.64-.32.63-.68,0-.45.57-.83,1.17-.79,0,.22,0,.49.22.65s.52.15.74-.09c0-.51-.7-.27-.81-.69-.05-.24.04-.49.25-.63,1.46-1.34,2.8-2.8,4-4.37.2-.25.46-.21.67-.34.25-.9.76-1.72,1.47-2.33.92.27,0,.86.39,1.3.3-.34.66-.62,1.06-.84.09-.51-.42-.57-.44-1-.12-.96.21-1.92.89-2.6.19-.13.32-.34.34-.57.15-.7.41-1.38.78-2,.13-.37.43-.43.77-.4.32.51.92.77,1.51.64.14-.87-.35-1.59-.09-2.38h-.25l-.51,1.6h-.45c.1-.41-.29-.73-.21-1.22.69-.33.1-1.47,1.06-1.66-.28-.72-.25-.87.48-2.86.27-.07.24.31.58.31l.91-.36-1.39-.72c.2-.67.36-1.36.46-2.06,0-.57-.1-1.24.66-1.59.22-.1,0-.48-.16-.69.15-.33.64-.18.82-.5-.27-.24-.63-.06-.87-.45.43-5.81-.4-11.64-2.44-17.1-2.09-5.5-5.38-10.46-9.64-14.51.27-.65-.09-1.23-.12-2-.51.43-.45.92-.51,1.4-.47-.39-.85-.74-1.26-1.05-.6-.38-.83-1.14-.56-1.79.1-.27.24-.5,0-.75-.48.23-.84.65-1,1.16-1.8-1.12-3.43-2.43-5.3-3.36v-.11c.2-.2.58,0,.75-.38-.6-.31-.48-.86-.31-1.4l-.95-.26-.81.6c0,.47.32.53.62.64-.22.18-.48.29-.76.33l-2.28-1,.72-.15c-.19-.36-.22-.78-.09-1.16.16-.53.25-1.08.26-1.64.13-.61-.14-1.13-.56-1.09-.44-.02-.88.16-1.18.48-.24.37-.3.82-.16,1.24.17.63.17,1.28,0,1.91l-4.23-1.26c.1-.31-.1-.47-.38-.57-.43.28-.97.35-1.46.2-2.45-.39-4.91-.62-7.39-.69-.96.12-1.93.15-2.9.1-.29-.48-.68-.76-1.23-.55-.23.32.2.43,0,.74-1,.12-2,.23-3,.38-.53.07-1.09-.1-1.56.35-.29.28-.67.11-1-.14l-.08-.55c-.27-.18-.62-.18-.89,0-.16.21-.13.51.08.67.22.06.51-.16.74.06,0,.16,0,.31-.22.37-.59.24-1.21.41-1.84.48-.28,0-.57-.08-.78.18-.49.64-1.15.51-1.83.3-.05.42-.34.78-.74.91-.34.1-.68.23-1,.38-3.8,1.88-7.3,4.29-10.41,7.17-1.74,1.65-3.09,3.64-4.84,5.28-.72,1.73-2,3.15-2.77,4.84-.13.27-.21.61-.54.75-.69-.27-.27-1.1-.76-1.46-.62.88-.18,1.51.52,2-.1.4-.6.14-.64.6.29.31.2.67,0,1.11-1.07,2.48-1.85,5.07-2.34,7.73-.28,1.45-.48,2.92-.58,4.39-.19,2.68-.08,5.37.31,8.02.26,1.43.07,2.93.67,4.31.14.29.25.58.34.89.17.65-.16,1.11-.81,1-.41-.04-.82.06-1.17.29.54.22.66.86,1.14,1.06.57,0,.7-.78,1.36-.61.17.85-.76,1.07-1,1.72.13.24.11.67.62.71.19-.39,0-1.14.91-1,.49,1.78,1.68,3.28,2.08,5.13.02.24.17.46.4.55.33.11.43.44.55.73s-.35.35-.2.62c.8.14,1.19.62,1.3,1.59-.48-.34-.89-.59-1.33-.25.28.46.71.81,1.21,1-.33.52-.29,1.19.1,1.66.39-.25.67.1.93.31.37-.48-.21-1,.34-1.42l2.08,2.53-.26,1.33c-.25.39-.83,0-.87.59.14.39.63.33.8.79s.7.39,1.08,0c-.38-.64.19-1,.47-1.75l2.36,2.82c-.07.08-.74,0-.33.62.18.25.64,0,.76.35-.16.19-.43.09-.56.38.45.46-.15,1.39.7,1.79.49-.21.83-.65.93-1.17-.22-.37-.61-.69-.18-1.19l1.44,1.05c2.47,1.83,5.15,3.33,8,4.48,3.59,1.45,7.39,2.35,11.25,2.66,2.3.24,4.62.24,6.92,0,.42-.11.87-.06,1.26.13,1.44-.61,3.01-.84,4.56-.67.11-.71.75-.63,1.25-.7.38-.06.75-.17,1.1-.34,1.14-.58,2.35-1.01,3.59-1.3.7-.12,1.13-.75,1.84-.68,1.01-.82,2.14-1.5,3.34-2l.49.52ZM21.17,14.96c-.1.19-.31.41-.07.6.2.17.5.15.68-.05.01-.01.02-.03.03-.04.16-.25.56,0,.73-.4l-.36-.55q.47-.56-.27-1.25l-1.12.79c-.15.42.06.68.38.9Zm27.13-8.4c0,.58.1,1.08.77,1.29l.22-1-.84-.4c0-.19,0-.4.15-.54.38,0,.34.49.66.53.33-.25.3-.7.57-1,.19.19.26.47.6.41l.3-.27c-.34-.89-1.07-1.41-1.57-1.1,0,.19.2.4.06.62-.63.21-1.22.5-1.77.86l.85.6Zm20.55,4.66c-.23-.4.15-.84-.1-1.27-.61-.21-.91.33-1.54.55.64.32.84,1,1.51.87-.35.38-.64.81-.88,1.27l1.56,1.48c-.18-.75,1.21-.74.75-1.57-.31,0-.56.24-.85,0,0-.47.15-1.02-.45-1.33ZM11.6,75.77l-.46.14c.42.38-.23,1,.46,1.34.48-.27.64-.76,1-1-.1-.26-.34-.43-.62-.45.12-.33.55,0,.71-.41-.34-.67.1-1.11.68-1.49-.25-.29-.62-.44-1-.4-.14,0-.11.48-.44.45-.61-.39-1.46-.57-1.68-.27,0,.2-.1.47.1.72s.69-.15.81.26.46.28.79.39c-.43.09-.71.36-1.1.13-.22-.12-.34.1-.32.34.26.32.72.03,1.07.25Zm-4.79-11.77c.26.45.32.99.16,1.48-.08.32-.12.51.12.69.22.19.55.19.77,0,.32-.25.53-.6.59-1,.41-.18.85,0,1.28-.29-.33-.11-.64-.34-.88-.28-.5.13-.65,0-.71-.44.14-.49.85-.34.9-1l-1.09-.07c-.27.24-.08.56-.33.7-.29-.05-.58.02-.81.21ZM32.34,6.13c-.63-.39-1.39-.5-2.1-.32-.29.29.18.54,0,.76s-.43.08-.52.31c.17.36.23.85.7.82s.08-.48.33-.6c.28.16.42.49.78.55l.18-.4c.2-.32.53.16.63-.32,0-.3-.5-.19-.51-.52l.51-.28Zm5-1.51c-.89.08-1.07.66-1.15,1.22,0,.29.3.16.34.34-.19.34-.19.76,0,1.1.42-.3,1-.15,1.4-.35,0-.29-.35-.3-.3-.55s.49-.29.4-.65q-.51-.36-.67-1.11h-.02ZM5.52,59.53c-.13.79-.74,1.34-.67,2.14.1,0,.21.16.31.15.4,0,.75-.29,1.12-.24.22-.39.25-.85.09-1.27-.33-.21-.61-.47-.85-.78Zm76.26,13.65c1.29.34,1.29.33,1.84-1.11-.16-.21-.29-.46-.6-.47q-.45.52-1.24.74c-.15.27.09.53,0,.84Zm-63.43,6.13v1.17c-.31.12-.61.19-.63.64.37-.11.75-.13,1.13-.07.58-.63.75-1.55.41-2.34l-.91.6Zm-9.83-9.65c.45-.13.72-.6.59-1.05-.03-.09-.07-.17-.12-.25-.36-.56.14-.78.29-1.14-.85-.59-1,.29-1.5.56.59.53.09,1.39.74,1.88Zm17.37,18.23c-.15-.65-.37-1.15-.1-1.67l-1.65-.31.06,1.06,1.69.92Zm-10.72-11.27c-.71-.33-1,.23-1.37.62-.06.46-.05.88.6,1.06.12-.6.66-.72,1.11-.88-.01-.3-.13-.58-.34-.8ZM43.87,4.03c.66-.4,1.43-.58,1.39-1.51-.11-.23-.34-.37-.59-.36l-.83.6c-.11.42-.1.86.03,1.27Zm-8.35-1.16c-.17.64-1.07.68-1,1.44.4.5.87.3,1.3.25q.29-.71-.3-1.69Zm23.2,86.1c.36.18.72.24.92,0s.8-.3.94-.82,0-.58-.22-.65c-.7,0-.3,1-1,.83-.14-.09,0-.45-.36-.35-.48.24-.36.62-.28.99ZM47.52,5.5c.36-.47.48-1,1.09-1.27l-.84-.6-.87.3c.62.38-.15,1.21.62,1.57Zm-14.46-1.43c-.39-.88-1.25,0-1.65-.68-.18.32-.14.71.08,1,.48-.23.71.34,1.11.47.23-.21.39-.49.46-.79Zm38,6.76c-.62-.07-1.2-.34-1.65-.78-.24.65.03,1.37.64,1.7.47-.16.47-.58,1.05-.92h-.04Zm-19.54-4.4c.52.2.86.05,1-.41s-.1-1-.93-1.22c.42.66-.23,1.02-.07,1.63Zm33.61,55.81c-.08.24.3.35.34.6-.18.1-.5.08-.34.44.66.08,1.17-.2,1.19-.69l-.33-.66c-.21.23-.47-.12-.86.31ZM5.52,30.37c-.49-.27-.06-.83-.51-1.13-.45.19-.76.63-.77,1.12.37.61.76.1,1.28.01Zm82.87,31.64c-.09.43-.43,1,.43,1.36.14-.56-.27-1.14.15-1.58-.41-.3-.4-1.1-1.17-.75.06.41.48.56.59.97Zm-81.81-3.59q-1.06-.21-1.55.61l1.33.21c.01-.28.39-.45.22-.82Zm35.46,31.89c.04-.4.16-.79.35-1.14,0-.07-.07-.2-.12-.32-.32.24-.74.06-1.07.37.29.28,0,.76.36,1.07l.48.02ZM73.2,11.15c.48-.19.87-.54,1.1-1-.41-.16-.59-.47-.94-.82.02.65-.45,1.09-.16,1.82ZM52.52,1.31c-.14.51-.14,1.06,0,1.57.45-.14.79-.53.86-1-.16-.45-.47-.51-.86-.57Zm26,20.07l.28-.88c-.31-.17-.65-.28-1-.33,0,.33,0,.67-.32.9.33.16.68.26,1.04.31ZM3.67,54.95c.06-.33.46-.66.05-1.15-.55.06-.82.46-1.15.9.36.11.61.44,1.1.25Zm18.51,30.91c.2-.33,0-.61,0-.85.28-.08.4-.17.29-.45-.2-.15-.47-.15-.67,0,0,.4-.47.76-.21,1.23.16.15.4.18.59.07Zm62.22-16.81c.7-.1.18.86.86.81.15-.55.6-1.09,0-1.7-.2.37-.5.68-.86.89ZM57.89,9.62c.54-.2.22-.66.56-.73s.29-.36.23-.63c-.39-.08-.78-.06-1.16.05-.24.58.51.74.37,1.31ZM8.19,60.25c-.31.31-.86,0-1.23.63.56-.14.77.33,1.18.38l.61-.37c-.07-.26-.23-.41-.56-.64ZM61.16,6.31c-.36-.27-.81-.37-1.25-.29,0,.39-.51.75,0,1.14l1.25-.85ZM4.26,33.97c-.06.6-.62.22-.81.66l.69.65c.22-.32.73-.17.78-.75l-.66-.56Zm.86-1q.68-.54.24-1.43c-.2.13-.46-.14-.66.11s.13.43.29.58-.09.42.13.71v.03Zm80-8.53c-.21-.46-.71-.71-1.2-.6.07.42-.08.82.36,1.18.1-.39.55-.21.8-.61l.04.03Zm-11.4-11.26c-.07-.6.06-1.21.37-1.73-.18-.21-.5-.23-.7-.06-.02.02-.04.04-.06.06.02.49-.26,1.07.39,1.73Zm-12.14,75.31c.66,0,.32.83.83,1,.16-.07.36-.18.31-.31-.11-.32,0-.71-.33-1s-.56-.09-.81.31ZM54.99,3.04c.11-.56.61-1.17-.22-1.67-.32.54-.23,1.23.22,1.67ZM15.52,76.01c-.48-.39-.92-.65-1.58-.14.58.35.91.82,1.58.14Zm-6.43-51.29c.15-.36.2-.75.13-1.13-.62-.27-.75.15-.9.63.2.16.3.43.77.5Zm67.23-6.69c.62-.35.25-.66,0-1-.37.04-.67.31-.76.67.25.14.44.36.76.33Zm-52.67,63.07c-.31-.37-.23-.85-.58-1.12l-.58.57c.24.36.47.76,1.16.55Zm-6.31-1.79q-.55,0-.8.6c.26.13.54.2.83.22.15-.26.13-.57-.03-.82Zm-.29-.29c0-.4-.11-.8-.3-1.15-.45.32-.41.71-.2,1.15h.5ZM54.99,4.85c.26-.39,0-.79.18-1.25-.72.27-.89.64-.66,1.23l.48.02Zm-.2,1.89c-.18-.4,0-.8,0-1.28-.9.61-.9.74,0,1.28Zm20.44,12.47c.55.27.92.18,1.41-.41-.62-.11-1.04-.27-1.41.41Zm-25.91,69.1c.02.32.27.57.59.57.22-.26.53-.5.1-1-.21.09-.49.1-.69.43ZM2.52,55.97c0-.26.33-.42.23-.74s-.47-.39-.91-.14c.44.15-.23.79.68.88Zm2.36,10.5c.22-.13.41-.27.35-.57-.27-.16-.5-.47-1-.31-.04.49.29.72.6.88h.05ZM58.52,4.58c-.43-.38.19-.88-.46-1.19-.11.28-.39.45-.34.8s.26.41.8.39Zm-2.83,1.16q.49-.57-.27-.93c-.2.41-.16.72.28.93h-.01Zm7.5.76c.42,0,.39-.38.51-.64-.28-.11-.33-.47-.65-.44-.07.37-.02.75.15,1.08h-.01Zm3.16-.38l.23,1.26c.45-.46.27-.93.47-1.25-.21-.18-.39-.18-.69-.01h0Zm10.21,7.45c-.54-.12-1.14-.61-1.54.28.5-.25,1.07.03,1.55-.28h-.01Zm4.29,9.25c.26,0,.49.11.65-.21-.03-.35-.3-.63-.65-.68-.16.27-.16.62,0,.89h0Zm8.42,31c-.07.41-.4.69-.58,1.09l.71.27c.13-.45.09-.92-.12-1.34v-.02Zm-32.51,34.2c0-.6.69-.95-.07-1.4-.17.39-.55.69.07,1.4ZM8.34,34.82c0,1,.09,1.11.61.92v-.66l-.61-.26Zm78.58,29.28c.4,0,.25-.31.4-.42s.44-.21.29-.52q-.86.15-.69.94Zm-30.32,24.88q.65.09,1.1-.26c-.05-.26-.29-.43-.55-.39l-.55.65Zm-4.28-80.78c.58-.49.58-.84,0-1.18-.21.37-.21.81,0,1.18Zm-26.57,1.58c.19-.27.15-.64-.09-.87-.17.21-.56.1-.56.51s.42.32.65.36Zm-9.87,9c.41,0,.58-.22.57-.58-.15-.19-.42-.22-.6-.08-.03.02-.05.05-.08.08-.06.19-.02.39.11.54v.04Zm41.64,67.53c.12.43.58.49.83.77q.06-.91-.83-.77Zm6.55-.1c.19-.3.6-.06.78-.44-.25-.33-.52-.47-.89-.19-.06.22,0,.45.15.61l-.04.02Zm-33.71-.5c-.64-.79-.69-.81-1.23-.4.37.22.79.36,1.23.4Zm-4.84-4.52c-.31.11-.62-.25-.9.07.19.31.37.63.79.6.23-.16.24-.34.11-.67Zm49.46-3.8q-.63-.45-.92.29c.34,0,.68.23.95-.29h-.03Zm1.38-2.83c.82-.66.88-1,.43-1.34-.27.35-.1.78-.4,1.34h-.03Zm9.94-16.09c.8,0,.91-.17.73-.91-.31.24-.55.55-.7.91h-.03Zm-.91,2c-.14-.43-.37-.83-.69-1.16q-.09.82.72,1.12l-.03.04Zm-75.42,8.74c0,.29,0,.45.08.6.27-.16.58.26.87-.07l-.25-.53h-.7ZM44.26,1.99c.46-.27.82-.66,1.06-1.13-.8-.04-.94.45-1.06,1.13Zm-1.36,4.39c.16.17.38.28.61.3.21-.24.21-.6,0-.84-.28.06-.52.26-.61.54Zm4.5,1.08c0-.34.42-.46.19-.91l-1.07.29c.49.12.55.47.88.62ZM4.4,37.89q-.59-.18-1.05,0c.25.42.53.42,1.03,0h.02Zm3.22,6.73c-.18-.22-.46-.24-.74-.37-.08.43,0,.73.4.84.19-.08.32-.26.32-.47h.02Zm48.9,44.69l.61.88c.19-.05.33-.2.37-.39-.26-.14-.35-.57-.98-.49Zm4.31-4.89c-.33.36-.31.63,0,.89.09.06.15,0,.25-.12s.22-.46-.26-.74v-.03Zm1.73-.7c.34-.14.73-.1.7-.64-.45-.08-.81-.16-.74.67l.04-.03Zm23.21-19.41c0,.37-.4.71-.09,1.16.31-.36.66-.7.09-1.16ZM44.87,4.82c-.21.34-.19.78.06,1.09.06-.33.59-.67-.06-1.09Zm-11.67,1.49c.14.6.32.82.78.61.01-.54-.35-.51-.78-.61Zm-4.21.55c-.53-.13-.72.06-.81.72.34-.27.68-.27.81-.77v.05Zm37,2.12q-.4.49.09.85c.14-.29.12-.63-.05-.9l-.04.05Zm-10.66,79.41c.32.52.61.6,1.1.16-.33-.2-.73-.25-1.1-.16ZM6.69,25.69c-.04.37.05.75.24,1.07.29-.45.3-.75-.24-1.07Zm-2,11.41c.07-.3-.11-.45-.38-.58-.15.18-.23.4-.25.63.18.16.46.14.62-.04,0,0,0,0,0-.01Zm3.15,3.1q-.61-.27-.9.08c.19.1.36.31.6.22s.16-.19.3-.3Zm-1.32,3.53q.7.22,1-.33l-1,.33Zm.8,2.67c-.35.09-.56.25-.58.64.57.12.78-.09.55-.64h.03Zm.72,5.38c.12-.25.18-.49-.17-.66-.34.12-.25.48-.41.7.18.1.39.08.55-.04h.03Zm82.08,4.38c-.03-.32-.27-.59-.58-.66-.16.09-.27.18-.26.37.22.2.51.31.81.29h.03Zm-63.28,25.94c-.39.13-.73.37-1,.68.56.14.86.02,1-.68Zm-7.17-7c-.11.4-.57.61-.14,1,.1-.06.24-.1.28-.18.11-.28.05-.59-.14-.81h0Zm69.85-12c.38-.42.39-.43.26-.71,0-.07-.18-.09-.3-.15-.14.27-.13.59.04.85h0Z"/>
    <path class="cls-1" d="m87.2,68.49c-.06.35.29.5.35.77s-.47.25-.59.51c-.32-.46.25-.83.24-1.28Z"/>
    <path class="cls-1" d="m89.44,67.22l-.2-.64c.19-.3.48-.39.91-.7-.29.57-.35,1-.74,1.32l.03.02Z"/>
    <path class="cls-1" d="m87.1,69.92c.28,0,.54.3.83,0,.06.27-.06.55-.31.69-.33-.09-.29-.49-.52-.69Z"/>
    <path class="cls-1" d="m6.02,24.31c0-.18.11-.31.29-.41.13.16.13.38,0,.54-.04.02-.21,0-.29-.13Z"/>
    <path class="cls-1" d="m88.71,67.45l.73-.23h0c0,.23,0,.47-.27.58-.18-.05-.34-.16-.44-.32l-.02-.03Z"/>
    <path class="cls-1" d="m22.19,70.31c-1.07-1.05-1.91-2.31-2.47-3.7-.05-.62.78-.77.59-1.38,0-.06-.11-.1-.18-.17-.37-.08-.47.32-.76.49-.07-.16-.21-.31-.18-.43.09-.61-.02-1.23-.3-1.77-.2-.49-.47-1,.15-1.49.22-.17.14-.51,0-.78-.23,0-.22.17-.31.28s-.06,0-.07,0c-.21-.33.06-.86.62-1.2l-.23-.49c.31,0,.59.28.9,0-.09-.26-.43-.49-.24-.85-.33-.19-.74-.13-1,.14-.13-.3-.19-.86,0-.86.57,0,.31-.71.8-.74.22,0,.17-.54.49-.65-.18-.5-.75-.14-1.08-.61-.16-.78-.26-1.56-.31-2.35v-8c-.02-.15-.02-.3,0-.45.2-.65.74-.48.91-.82-.1-.69-.59,0-.83-.27-.13-.28-.16-.6-.07-.9.09-1.17.09-2.35,0-3.52.05-1.16-.06-2.33,0-3.48.12-1.66-.06-3.31,0-5,.35-5.42,3.83-10.15,8.9-12.1,1.65-.59,3.39-.89,5.15-.9h10.55c.17-.01.33-.01.5,0,.38.18.11.4.17.57s.33.16.52.1,0-.44.21-.65c.4,0,.84-.17,1.15.23,0,.43-.47.05-.5.37.59.51.67.47,1.18-.57.38-.11.77-.11,1.15,0,.37.18.12.64.42.83.28-.16.09-.54.34-.74.4-.15.84-.21,1.27-.15,1.56,0,3.12-.07,4.68,0,1.37.07,2.74,0,4.11,0h4.08c2,.09,3.96.67,5.68,1.69.56.44,1.18.8,1.84,1.07,0,.83-1,1.51-.17,2.28-.12.25-.6,0-.59.52.27.25.63-.11.92.09.24-.72.36-1.48.34-2.24,1.12.82,2.05,1.87,2.73,3.07,1.49,2.25,2.25,4.9,2.18,7.59.05,1.55.02,3.11-.1,4.66-.06.5.11,1.08.1,1.64v14.63c0,.5,0,1-.4,1.23.55,1.11.58,2.41.08,3.55.49.54.31,1.29.27,1.91-.24.54-.69.37-1,.54.13.55.81.61,1,1.18-.65.32-1.35.49-2.07.51.43.64,1.19,0,1.6.72-.12.38.35,1-.22,1.56-1.09.25-1.22.59-.55,1.48.46-.33.35-.94.68-1.33,0,1.34-.64,2.6-1.73,3.38-.12.3,0,.59-.21,1-1.27,2.06-3.14,3.68-5.36,4.65-1.93.94-4.06,1.4-6.21,1.34-1.5-.1-3.07,0-4.61,0-8,.07-16.05,0-24.08,0-1.58.06-3.15-.18-4.64-.71-.3-.4-.05-.86-.31-1.21-.34.17-.2.71-.72.79-.5-.24-.98-.52-1.43-.85-.56-.31-1.29-.53-1.54-1-.23-.48-.52-.94-.86-1.35-.31.07-.68.26-.82-.27.47-.58.78-1.32,1.26-1.83,1.1-1.16,1.2-1.14,1.4-2.61,0-.19,0-.41.34-.57,1.59,2.67,4.46,4.3,7.57,4.3-.24.63.27,1.17-.1,1.7-.35.19-.85.12-1.1.58l.24.29c.82-.3,1.61-.68,2.36-1.11.08-.26.05-.54-.08-.78,0-.28-.59.26-.55-.3.22-.47.68-.42,1.11-.42h17.55c.39-.05.79-.03,1.18.07.42.24.39.75.83.81.31-.18,0-.63.43-.83.52-.07,1.05-.07,1.57,0,.09.23-.12.45.12.59.51.07.65-.51,1.09-.64h3.4c2.17.07,4.3-.64,6-2,.16-.13.31-.43.6-.18-.35.28-.23.66-.33,1,.31.09.5.09.64-.08.1-.27.04-.57-.16-.78.23,0,.49.05.64-.21s-.25-.66-.07-1.12c.92-1.32,1.53-2.82,1.77-4.41.53-.13,1.12.2,1.36-.47-.43-.3-.94,0-1.29-.32-.12-.22-.09-.49.08-.67.39.53.73.54,1.23,0-.3-.49-.68-.45-1.1-.16-.44-1-.39-1.4.19-1.72.38.31,0,.73.14,1.06.65.29.9-.25,1.26-.6-.41-.33.05-.84-.28-1.2-.43-.09-.74.46-1.38.17.33-1.18-.68-2.38,0-3.57.36-.19.47.23.76.08-.21-.74.68-1.52-.08-2.31l-.37.5h0c-.07-.42-.51-.66-.49-1.17.08-1.49.09-3,.13-4.48h.53l.43.68c.18-.39.75,0,.89-.71-.47.24-.79-.08-1.18-.12-.15-.25-.39-.43-.68-.5l.37-.48c-.79-.89-.41-1.93-.46-2.89-.06-1.04-.06-2.08,0-3.12-.09-.92.03-1.86.35-2.73-.44-.25-.36-.68-.36-1.06v-3.48c.02-.92-.09-1.83-.34-2.71-.54-1.88-1.72-3.5-3.33-4.6-.42-.22-.71-.63-.78-1.1-1.36.18-2.47-.49-3.65-.57-.16-.65.53-1,.19-1.49.23-.07.46,0,.64-.22l.09-.54c.27-.44.3-.99.07-1.46-.45.25-1.05,0-1.34.57.21.23.65.31.62.75-.26.29-.37-.1-.58-.12-.35.23-.61.61-1.07.75.16.8-.29,1.6-1.06,1.87-1.14-.24-2.46.36-3.67-.38-1.19.26-2.38.68-3.57,0,.06-1-1.42-.73-1.24-1.89-.67,1.06-.69,1.26-.25,2h0c-.85.18-1.73.15-2.57-.07-.05-.34-.21-.66-.46-.9-.26,0-.49-.07-.6.3.15.4.5.68.92.74-.52.31-1-.14-1.49-.06-1.33.16-2.66.22-4,.17h-9.95c-1.4-.03-2.78.32-4,1-2.99,1.64-4.77,4.86-4.57,8.26.07,5.07,0,10.15,0,15.23,0,.59-.15,1.2-.09,1.75.16,1.32,0,2.64.1,4,.03.44-.13.87-.43,1.19,0,.05,0,.15,0,0,0,.44.3.28.41.51v6.5c-1.19.59-.09,1.42-.29,2,.23.43.73.15.85.56l-.75.66c-.41,0-.76-.17-1.16.07.3.4-.35.55-.26,1s.75.39.84.88c-.09.17-.27.15-.41.19-.2.06-.35.23-.4.43l.27.38c.1.17.14.37.1.57q-.64.6-.66,1.47ZM54.94,20.59c-.14-.65-.54-.47-1-.35.19.29.51.47.85.49,0,.46-.82.53-.58,1l.57.27c-.27.16-.49.39-.62.67q.48.4,1.12-.08l-.35-.46c.36-.5.59-1.02.01-1.54Zm-6.14,1c.12-.28.33-.48.31-.85-.45-.15-.5-.69-.88-1.05-.15.22-.54.1-.56.3,0,.47.23.44.43.51-.47.34-.45.8-.44,1.42.4-.37.79-.26,1.14-.32h0Zm21.44,42.9l1.57,1.76c.45-.7.47-.73.17-1s-.92-.7-1.21-1.14c-.24.01-.44.16-.53.38Zm-2.96-40.18c.71.72,1.19,0,1.67.12.36-.8-.32-1.08-.52-1.61-.32.39-.08.84-.31,1.24l-.84.25Zm-45.65,27.56l-1,1.35c.27.6.73.21,1.28.23-.39-.57.09-.86.36-1.26l-.64-.32Zm50.89-24.02c.21-.14.47-.15.63-.42-.05-.31-.2-.59-.44-.79-.48-.09-.97-.03-1.41.18.71.13.7.73,1.22,1.03Zm-31.77-5.06c-.12-.28-.34-.51-.61-.65-.49.09-.8.33-.79.87l.92.32c.23-.1.41-.3.48-.54Zm33.64,35.76l-1,1.22c.46-.08.93,0,1.34.21.17-.17.27-.4.29-.64l-.63-.79Zm-52.14,9.36c-.39-.54-.8-.49-1.22-.09-.13.32.03.69.35.82.01,0,.02,0,.04.01.18-.34.69-.28.83-.74Zm43.72-45.11c-.33-.1-.68.07-.78.4-.02.06-.03.13-.03.19.65.52,1,.52,1.19,0-.12-.19-.13-.46-.38-.59Zm-2.1,48.67c.15.36-.11.75.4,1,.17-.62.7-1,.58-1.68-.51.02-.54.52-.98.68Zm-40.24-17.8c-.12-.29-.17-.61-.16-.92.03-.35-.23-.65-.58-.68-.02,0-.04,0-.06,0-.11-.02-.22.03-.27.14.1.25.46.29.52.61s-.37.62,0,.94c.19.06.39.03.55-.09Zm50.34-2c-.23,0-.24.47-.58.28s-.44-.18-.54.23c.25.42,1,0,1.16.67,0-.4.36-.39.52-.67-.27-.08-.37-.35-.56-.52h0Zm1.36-3.05c-.31-.22-.44-.66-1.09-.56.38.44.11.94.38,1.35.37-.11.65-.42.71-.8h0Zm-12-24.81c.87-.62.89-.67.51-1.51.05.55-.73.8-.48,1.5h-.03Zm-27.62,46.32q.05.86.9.68c-.09-.41-.16-.87-.9-.68Zm-15.19-21.77c-.38-.24-.67-.56-1.1-.25.02.23.12.44.28.61.29.14.65.02.79-.28.01-.03.02-.06.03-.08Zm51.88-17.93c.28.19.66.12.85-.16.03-.04.05-.08.06-.12-.07-.24-.3-.4-.55-.39-.26.11-.41.39-.36.67Zm1.9,17c.22.26.34.43.6.32l.32-.65c-.15-.19-.29-.39-.64-.24l-.28.57Zm-54.25-4.8c-.31-.54-.64-.26-1-.27,0,.3-.16.58.16.8l.84-.53Zm6.67,26.37c-.45.31-.87.65-.57,1.32.58-.29.47-.85.57-1.32Zm3.8,1.31c-.31,0-.6.14-.79.39.28.47.62.24.92.24.03-.28.03-.47-.13-.63Zm38-49.41q-.8.13-.39.73c.23-.13.3-.38.39-.73Zm-48.11,9.48c.14.34.52.5.86.37.05-.02.1-.05.14-.08.18-.08.08-.25,0-.39-.3-.11-.56.09-1,.1Zm2.7,27.62l.75,1.31c.15-.66.12-1.08-.75-1.31Zm44,13.88c-.31.28-.42.71-.27,1.1.26-.28.68-.48.28-1.1h-.01Zm3.71-6.35c-.24-.04-.47.1-.56.32.02.23.12.44.28.61h.28v-.93Zm-49.87-10.87c-.02-.31-.27-.55-.58-.56-.17.17-.17.45,0,.62.19.1.42.08.58-.06Zm2,5c-.29-.52-.57-.53-.88,0,.24.19.58.2.83.02l.05-.02Zm-3.75.89c.17.39.36.57.7.29.08-.06.1-.18.15-.28-.27-.19-.63-.19-.9.01l.05-.02Z"/>
    <path class="cls-1" d="m41.28,29.12c1.09-.78,2.43-1.14,3.77-1,.18.5-.57.43-.43.86.34.19.64-.11.87,0,.39-.28.25-.66.41-.95.11-.04.22-.07.34-.09,1.07-.11,2.16.03,3.17.4.25.1.47,0,.69,0,1.06-.09,2.12.2,3,.81q-.6.73-.44,1.69l1-.82c.21,0,.2.29.34.42.36.16.26-.81.81-.25l-.9,1.29c.25.25.25.84.73.85.54.09,1.1-.01,1.57-.3.28-.27.62-.48,1-.6,0-.28-.3-.23-.27-.44,0,0,.13-.11.17-.09.71.21,1.21.85,1.25,1.59l-.49.23c-.12.26.29.23.23.5-.3.18-.72.19-1,.48-.18.73,1.1.49.82,1.29-.22.19-.35.47-.36.76.48.18.69,0,.75-.37.2,0,.4,0,.57-.12.42-.45-.58-.9,0-1.34-.25-.54-.06-1.1-.15-1.75.44.14.8.46,1,.88.16.46.73.35.85.91,0,.34-.67.21-.75.73.94.34.94,1.33,1.31,2.14-.52.5-1.32-.22-1.91.28.28.34.72,0,1.06.38.29.53-.74,1.4.4,1.84l.61-.3c.07-.19.07-.4,0-.59h0c.19.06.4.06.59,0,.62-.61,0-1.51.56-2.25.49.65.92,1.36,1.26,2.1-.44.44-.79.91-.45,1.46-.18.41-.69.31-.69.79.31.19.57.47.75.79.61-.53.61-1.28.84-2,1.03,2.34,1.55,4.87,1.53,7.43-.08.4-.47.05-.61.35.26.67.76,1.32.37,2.17-.07.08-.36,0-.35.41.49.64,0,1.3-.17,2-.33,1.49-.89,2.92-1.66,4.24-.2.34-.32.74-.73.94-.34-.17-.35-.59-.62-.84-.37-.11-.76-.11-1.13,0,.21.49.29,1.02.23,1.55l.84.54c-.49.56-.94,1.11-1.43,1.63-.31.34-.59.81-1.2.53-.25.68-.38,1.41-1.33,1.23-.31-.05,0,.48-.37.44,0-.26.06-.56-.18-.83-.2.23-.43.42-.37.75s.26.18.41.22c-.18.46-.6.59-1,.74-.42-.13-.26-.58-.5-.78-.45-.2-.75.1-1,.27-.29.46.2.77.11,1.32-4.35,2.07-9.33,2.38-13.91.89.3-.37.45-.84.43-1.32l1-.79-.71-.94c-.29.48-.44,1.03-.42,1.59-.24.02-.47-.03-.68-.14-.5-.32-1.11-.42-1.68-.28l-.43-.2c.22-.48.92-.09,1.13-.57-.05-.24-.23-.23-.37-.25-.15-.03-.29-.13-.35-.27.07-.43.55-.21.74-.49l-.13-.31c.35-1,.13-1.55-.75-1.64.2.5.69.9.6,1.51-.44.26-1.07.29-1.11.95-.63,0-.77-.52-1.08-.82l-1,.19c-.23.23-.15.47-.11.7h0q-1-.6-.53-2.2c-.62.17-1.07.41-1.22,1-.91-.61-.95-.7-.7-1.46.34-.89.02-1.89-.76-2.43-.44.41.35.91-.11,1.31q-1.33-.36-1.97-1.47c-5.26-8.94-2.27-20.45,6.67-25.71.43-.26.88-.49,1.33-.71.41-.21.81-.55,1.33-.4.22.42-.23.92.16,1.32.2.1.45.06.61-.1.03-.51.13-1,.3-1.48Zm-10,23.63c-.74,0-.87.11-.8,1,.39-.19.72-.48.95-.85.15-.39.68-.79,0-1.23-.23.36-.11.73-.16,1.08h0Zm13.2-20c.21.33.55.55.94.62.48-.17.9-.46,1.22-.85-.19-.13-.44-.4-.59-.22-.43.5-1,.25-1.43.3l.62-.54c-.25-.38,0-.86-.25-1.21-.19-.16-.48-.16-.67,0-.03.6-.29,1.26.2,1.88l-.04.02Zm8.04,30.46c.3-.06.64.09.9-.24.17-.52.02-1.1-.4-1.46-.29.11-.62.16-.79.57.21.26.15.62.17,1-.31-.23-.61-.08-.9,0-.07.34.14.45.37.6.18-.26.52-.19.65-.47Zm5.37-4.45c-.45,0-.48-.47-.82-.61,0,.49-.71.65-.52,1.32.36.24.93.38,1,1,.43-.2.51-.47.38-.82s-.48-.06-.56-.36c.13-.28.55-.1.66-.41s.63-.79.14-1.19l-.7.53.42.54Zm-10.37-27.37c.16-.77.68-1.53,0-2.31-.56.08-.91.42-.72.67s.42,0,.45.29c-.16.29-.53.05-.76.35.51.2.54.76.84,1.14s-.11.7-.13,1,.4.34.6.5c-.47.05-.92.18-1.34.39-.38.42-1.03.47-1.46.1-1,.7-1.39.85-1.43.58s.38-.17.37-.5c-.36-.13-.74-.13-1.1,0-.45.2-.09.67-.34,1-.37.27-.85.35-1.29.22-1,1.2-2.47,1.69-3.36,2.9-.31-.33-.63-.3-.84-.07s-.74.67-.69,1.19c0,.6-.2,1.19-.56,1.67-1.84,3.25-1.81,6.7-1.07,10.22.89,1,.87,2.43,1.89,3.34.53.47.53,1.39,1.34,1.7.11,0,.11.36.16.55.49-.21.75.14,1.05.38,1.55,1.3,3.4,2.18,5.39,2.55,2.57.5,5.23.19,7.62-.88.52-.38,1.2-.46,1.79-.22.23-1.33,1.44-1.61,2-2.29.46-.2.72.3,1,0s-.13-.43-.09-.6c.13-.45.65-.46.73-1,.18-.65.45-1.27.8-1.84.83-1.48,1.29-3.15,1.33-4.85,0-.57.31-.93.83-1.31-.38-.5-.48-1.15-.26-1.74-.17-.54-.52-.14-.73-.46-.3-1.37-.81-2.68-1.53-3.89-.18-.29,0-.49.11-.75-.53-.11-.96-.49-1.14-1-.2-.45-.91-.58-1.12-1.14.27-.59.45-1.26,1.17-1.45,0-.78-.69-1-1-1.46.19-.57-.32-.94-.32-1.49-.32.2-.55.35-.62.64l.23.36c.19.76-.48.58-.56,1.12s.49.48.69.79c-.15.18-.34.2-.35.39.13.37.65.49.61,1-1-.67-2-1.34-2.92-2-.4-.28-1-.25-1.26-.74-1.21.13-2.28-.5-3.52-.55.14-.19.11-.46-.08-.61.47-.06.95,0,1.4.14,0-.53-.65-.92,0-1.33-.43-.17-.79-.49-1-.91-.15.21-.55-.11-.81.21Zm12.9,20.83l-.32.59c.17.31.16.73.46,1,.68-.19.83-.87,1.31-1.17.05-.42.01-.84-.11-1.24-.69-.24-1.44-.21-2.11.09.02.57.56.3.77.73Zm1.61-3.15c-.33-.23-.84-.11-.78-.68.12,0,.24,0,.36,0,.14,0,.26.2.47,0l.17-.51c-.73-.25-1.54-.12-2.16.35.3.77.14,1.77,1.1,2.2.65-.29.68-.84.84-1.36Zm-2.72,7.44c.71-.42.73-1.25,1.34-1.66-.32-.15-.47-.44-.81-.25s-.88.29-.92.9l.39,1.01Zm-17.21-24.1h-.91c-.15-.43-.18-.44-.66-.42,0,.35-.2.68,0,1.09l1.27.32c.17-.3.28-.64.3-.99Zm-5.58,4.09c.52-.7.71-1.59.55-2.44-.86.47-.92.77-.55,2.44Zm-5.8,14.39c.45.08.43-.34.62-.5s.46-.39.68-.59c-.11-.21-.22-.37-.46-.36s-.24.4-.64.55c-.12,0-.46-.27-.75.07l.55.83Zm29.39-10.5c-.28-.32-.65-.56-.8-1-.41.2-.5.49-.38.75s.23.87.83.9l.35-.65Zm-25-1c-.3-.14-.65-.1-.9.12.27.5.1,1.14.34,1.7.97-.36.14-1.22.55-1.8v-.02Zm26.78,6.64c.43.17.65-.15.94-.37,0-.43.2-.92-.38-1.42,0,.45-.14.74-.49.92-.09.06.13.59-.08.89v-.02Zm-25.37,13.93c.51-.33.66-1.01.34-1.52-.03-.05-.06-.09-.1-.13-.22-.09-.47-.03-.63.15l.39,1.5Zm7.72,3.35q-.08-.9-.94-.72l.09,1.28.85-.56Zm-5.87-31.5c-.28-.25-.39-.51-.76-.59-.23.51-.31,1.08-.22,1.63.55-.16.54-.7.98-1.03h0Zm16.26,28.12c-.29-.33,0-.92-.68-1.06-.27.31-.33.75-.16,1.13.28.1.58.08.84-.07Zm-25.71-15.62l1,.24.22-.77c-.16-.17-.38-.27-.61-.28l-.61.81Zm8.6-7.19c-.05-.29-.32-.48-.61-.43-.07.01-.15.04-.21.08-.24.11-.45.31-.2.71.36-.05.71-.18,1.02-.36Zm-6.2,11.58c.06-.26-.07-.53-.31-.65l-.84.28c.27.57.68.49,1.15.37Zm3.44,6c.39,1,.64,1.1,1.17.64-.28-.21-.55-.42-.83-.61-.05,0-.15.01-.34,0v-.03Zm7.14,5.22c-.73-.65-.92-.63-1.41.15.47.04.95,0,1.41-.12v-.03Zm-4.58-2.61c.08.4.24.61.61.57.19-.16.3-.41.3-.66-.29-.16-.65-.12-.91.09Zm-1.68-.73q-.7-.63-1.12-.21c.32.15.6.49,1.12.18v.03Zm16.15,3.48c-.19-.23-.2-.69-.82-.59l.38,1c.21-.06.38-.23.44-.44v.03Zm-9.27-30.47c-.42.13-.49.47-.52.84.19.16.36.12.62,0-.31-.26.23-.53-.1-.84Zm-7.8,5.92c0,.3-.06.45-.06.59s.06.39.38.38c.32-.36.21-.63-.32-.97Zm23,1.9c-.18-.22-.06-.6-.4-.7s-.36.19-.46.4c.12.3.45.44.75.33.02,0,.04-.02.06-.03h.05Zm-23.2,16.36c.4.32.94.39,1.4.17-.4-.4-.79-.44-1.4-.17Zm3.39-19.88c.33-.22.57-.36.32-.77-.44.08-.71.19-.36.77h.04Zm-2.21,5c-.32-.6-.65-.29-1.07-.32.26.52.6.37,1.03.27l.04.05Zm25,3.18c-.22-.53-.53-.64-1.09-.62.2.36.59.58,1.01.57l.08.05Zm-29.4.21c-.18.36-.53.58-.15.89.11.08.21.06.34,0,.27-.39-.09-.6-.27-.94l.08.05Zm28.57,15.22q-.5-.39-.85.11c.29.09.6.05.85-.11Zm-19,.82c-.28.28-.49.62-.62,1,.65-.12.83-.39.62-1.01h0Z"/>
    <path class="cls-1" d="m63.31,28.2c-.3,0-.42-.21-.59-.45l.28-.75-.35-.32.3-.87c.11-.04.23-.07.35-.08.31.08.64.04.93-.11.68-.42,2.52.38,2.85,1.21.1.25.46.32.37.63l-.3.24.2.76c.2.26.55.1.74.29.75.85-.39,3.28-1.94,4.19-.24,0-.27-.41-.57-.27s.07.37-.15.58c-.94.27-1.94.21-2.84-.17-.84-.43-1.51-1.14-1.89-2-.79-1.67-.27-3.66,1.23-4.73.18.66-.13,1.37.35,1.81-.4.68-1-.29-1.2.15s.12.67.15,1l-.33.38c.12.47.69.15.76.6.42-.39.41-.87.62-1.2s.68-.2,1-.29c.37.53-.55.52-.27.92.08.43.45.43.72.58.39,0,.56-.42.94-.53,0-.39-.32-.84.35-1l-1.14-.51c.19-.44.16-.94-.08-1.35-.58.26-.2.84-.49,1.29Zm2.06,4.2c.56-.19,1.11-.08,1.27-.69-.03-.3-.29-.52-.59-.51-.42.21-.53.6-.68,1.2Z"/>
    <path class="cls-1" d="m55.18,30.07c.28-.06.58,0,.83.14.4.43-.38.79,0,1.21-.21.08-.46,0-.68.3-.14-.54-.19-1.1-.15-1.65Z"/>
    <path class="cls-1" d="m36.15,61.45c.28.17.51-.15.77-.09.26.3-.1.84.45,1.06-.61-.12-1.1-.31-1.23-1v.03Z"/>
    <path class="cls-1" d="m38.52,62.45l.43.2-.08.63c-.37-.15-.73-.09-1-.35.14-.37.4-.44.65-.48Z"/>
    <path class="cls-1" d="m61.38,34.77c.24.11.42.31.5.56-.1.19-.28.21-.46.26-.31-.22-.32-.47-.04-.82Z"/>
    <path class="cls-1" d="m50.78,23.53c.07-.17.08-.38.23-.47.15-.1.34-.06.44.09.16.19-.07.34-.08.53l-.58-.14h-.01Z"/>
    <path class="cls-1" d="m70.52,52.58c.11.37-.08.76-.43.9-.08-.42-.11-.79.42-.91h.01Z"/>
    <path class="cls-1" d="m61.34,38.42c-.28-.25-.15-.54-.11-.88.55.28.05.6.12.87h-.01Z"/>
  </g>
</svg>