<?xml version="1.0" encoding="UTF-8"?>
<svg id="Capa_1" data-name="Capa 1" xmlns="http://www.w3.org/2000/svg" width="33.19mm" height="33.16mm" viewBox="0 0 94.07 94.01">
  <defs>
    <style>
      .cls-1 {
        fill: #4fb7f7;
        stroke-width: 0px;
      }
    </style>
  </defs>
  <g id="OBJECTS">
    <path class="cls-1" d="m88.86,33c-.06-.41-.01-.83.14-1.22-.27-.34-.47,0-.77-.06-.12-.42-.14-.87-.07-1.3.4-.26.47.28.95.13.19-.12.33-.3.4-.51,0-.22-.07-.31-.17-.34-.28-.03-.54-.16-.73-.37-.18-.2-.08-.35.05-.51.16.06,0,.39.36.35.6-.66.24-1.44.15-2.23,1.07.78,1.45,2.2.9,3.41.22.23.54.07.86.28-.08.47.41.86.33,1.41-.43-.34-1.04-.27-1.39.15h1.26c-.23.15-.54.19-.61.52.2.36.72.3.91.7-.44.23-1.07-.13-1.37.41-.24.32.14.53.08.77s-.48.33-.39.71.48.11.72.17h0l-.66.71c.09.47-.13.94,0,1.42-.64.31-.11,1-.51,1.45-.17.27-.17.61,0,.88.32,0,.24-.32.56-.38-.27.35.35.61-.07,1s.77.71-.1,1.06l.56.27c-.2.6-.45,1.24.07,1.7s.85-.51,1.52-.25c-.59.3-.28,1-.9,1.33s-.83.68-1.37.69c-.1.2-.01.44.19.53,0,0,0,0,.01,0,.12.1.23.22.33.35l.37-.44c.38-.33.59.24.88,0s.83-.58.9-1.17c0-.31.34-.41.62-.49h0c-.07.27-.07.55,0,.82.21.32.7.12.89.46,0,.51-.66.19-.67.64s.23.56.2.88h-.46c-.27.15,0,.56-.37.66s-.62,0-.48.64c.49-.44.82,0,1.21.23.37-.48.67-.9.24-1.43.28,0,.45-.16.64-.3v2.64c-.34.09-.19.38-.21.59-.01.92-.09,1.83-.23,2.74-.07.31-.08.64-.38.76.24,1.8-.35,3.46-.7,5.16l-.48-.86c-.93-.13-1.3.54-1.81,1.09.29.5.82,1,.4,1.66.51.23.88.69,1,1.24-.27.82-.39,1.76-1.37,2.09-.11.39.26.54.26.91-.38.69-.44,1.62-1.19,2.2.27.83-.8,1-.81,1.78s-.57,1.3-.9,1.92c-.14.35-.36.66-.63.92-.37.14-.58-.17-.89-.14-.2.22-.09.6-.36.79.55.82.25,1.49-1.14,2.57-.29-.47-.8-.75-1.35-.74-.31.25.07.37.06.4-.09.39-.39.25-.45.38-.15.27-.17.59-.06.87.15.31-.3.48-.09.78.82.22.65-.67,1-1l.4.16c-.34.56-.72,1.1-1.14,1.6-.21-.41-.37-.74-.88-.44-.17.37-.22.76.22,1-.34.87-1.11,1-1.85,1.31,0-.61.47-1.1.38-1.69h0c.33.14.71.09,1-.13-.33-1.05-1.24-.93-2.13-1.05.19-.46.47-.89.22-1.4-.16-.31-.46-.24-.81-.57.16.85-.44,1.23-.57,1.81l-.55-.2c-.24.84-.17,1.73.2,2.52.49.25,1.06,0,1.43.5l-.07.48c-.43-.15-.9-.13-1.31.06.41.75,1.14.43,1.7.6q-.1.6-.69,1.07c-.26,0-.24-.3-.42-.39-.52.3-.41.86-.53,1.32-.55.57-1.15,1.08-1.8,1.53-.21-.44-.28-.89-.64-1.17.62-.45-.54-1.06.2-1.49-1.1-.49-.87,1-1.67.93-.07.48-.07.97,0,1.45.33.38.59-.11.88.16.12.39-.39.77,0,1.17l-.84.59c-.38,0-.48-.44-.86-.5-.21.36.21.82-.17,1.16-.26.28-.58.49-.94.62-.12-.52.41-.47.51-.78-.79-.16-.24-1-.7-1.36.25-.16.63-.13.69-.52l-.6-.53c.26,0,.55-.17.43-.41-.23-.5.08-1,0-1.46h-1c0,.64.47,1.13.41,1.73-.8.25-.84,1.12-1.44,1.66.73.21.4.65.32,1h0c-.58-.1-.94.33-1.38.54,0,.22.23.21.35.29q0,1-.42,1.55c-.64-.31-1.28-.79-2-.45-.42-.06-.34-.55-.88-.51-.36.15-.69.61-1.2.76q.18.77.73,1.11c-.29.44-.76.71-1,1.26-.88-.49-1.35,1.17-2.3.38.31-.85.8-1.63,1.44-2.28-.41-.44-.69-.07-.94-.21-.27.07-.09.46-.36.53-.31-.15-.23-.82.19-1.49l-.52-.23c-.08.07-.18.13-.17.17.15.91-1,1.66-.33,2.61-.32.26-.36.75-.81.86,0,.31.35.42.48.76-.87.42-1.8.71-2.75.87,0-.43.45-1-.33-1.06,0-.11.13-.29.1-.31-.4-.29-.52-.88-1-1-.5.65-.51.85,0,1.18.21.18.48.28.76.3-.06.41-.28.77-.62,1-.43-.29.05-.62-.15-.91s-.77-.27-1.32-.17c.5.22.73.82.51,1.32-.03.07-.08.15-.13.21-4.48,1-6.87,1.19-7.68.66-1.31.59-2.81.59-4.12,0-.37.18-.69.6-1.18.25,0-.32.33-.44.37-.75s-.11-.34-.39-.46c-.23.51-.69.89-1.24,1-.57.11-1.15.11-1.72,0-.34-.4-.1-.85-.3-1.22s-.65-.14-.87-.15-.23.2-.14.22c.3.02.53.29.5.59,0,.08-.03.15-.06.22-.33.23-.67.15-1.12,0-.22,0,.17-.46-.26-.57-1.05.33-2.18.28-3.2-.14-1-.27-1.91-.57-2.88-.79s-1.82-.69-1.94-1.82q-.91-.08-.93.78c-3.49-1.36-6.8-3.13-9.87-5.28-3.03-2.16-5.81-4.65-8.29-7.43-2.4-2.84-4.53-5.91-6.35-9.15.53-.35,1-.88,1.63-.33.34.27-.27.59,0,.86.07,0,.18.09.21.06.24-.2.46-.41.67-.6.08-.34-.26-.39-.37-.61.17-.39.36-.84-.15-1.13s-1,.09-1.5.42c.24-.35.44-.73.6-1.12q-.24-.59-1.09-1.24l-.75.24c-.02.11.05.22.17.25.01,0,.02,0,.03,0,.52.1.45.57.41.86s-.35.53-.83.12c-.53-.84-.94-1.75-1.21-2.7.09-.34.3-.64.59-.84-.32-.68-1.28-.81-1.42-1.66.43-.46.68-1.07.7-1.7-1.59.09-1-1.35-1.49-2.07.31-.26.51-.61.59-1l-1.13-.62c.07-.43.53-.54.76-.87-.31-.35-.72-.06-1.06-.11-.22-.52-.29-1.08-.22-1.64.49-.37,1.14-.62,1.3-1.34-.44-.23-.92-.38-1.41-.42-.16-.36.28-.46.26-.74s-.36-.07-.52-.19c-.03-.07-.06-.14-.07-.22-.14-2.35-.14-4.72,0-7.07.39-5.15,1.63-10.2,3.67-14.94,2.97-6.89,7.54-12.98,13.33-17.76.64-.42,1.25-.89,1.83-1.39.59-.54,1.24-1.01,1.94-1.4.66-.45,1.34-.87,2-1.28s1.38-.81,2.09-1.18,1.42-.74,2.14-1.08,1.46-.65,2.2-.95,1.48-.58,2.24-.84,1.51-.5,2.28-.73,1.53-.44,2.31-.63,1.55-.37,2.34-.49c1.58-.28,3.17-.46,4.77-.54.4.05.81-.04,1.15-.25h5c.41.2.87.29,1.32.25,5.35.37,10.58,1.69,15.47,3.89.35.15.9.19.82.91.65-.22,1.36-.06,1.85.42.14.18-.07.18-.17.35.13.29.52.34.77.61l.49-.3c1,.2,1.65,1.11,2.54,1.57s1.11,1.6,2.09,2l.26-.28c1.87.72,7.43,6.09,9.4,9.06-.06.19-.41.08-.39.36,1.07.26,1.42.61,2.25,2.32-.41.26-.35-.54-.83-.27.03.36.14.7.33,1-.34.16-.69-.43-1.11,0,0,.36.31.65.49,1,0,.21-.38.17-.47.43l.44.22c0,.26-.4.42-.17.74s.67.05,1,.13c-.6.4-.13,1.44-1,1.63-.06.4.5.19.29.8,0,0-.35-.09-.58,0s0,.47-.06.7c-.22.12-.47.12-.69,0,.18-.32.32-.73,0-.93-.51-.33-.36-.84-.52-1.27q-.41.34-.1,2.63c1-.33,1.19.93,2.14,1,.88-1.15.42-2.76,1.28-3.93l.86.29c.31-.23.34-.68.77-.78.17.12.4.23,0,.48s-.36.51-.76.46-.4.33-.54.58c.46.58.75,1.27.84,2-.2-.29-.28-.71-.9-.57.43,1-.69,1.47-.73,2.38.13.34.68.49.62,1-.44,0-.51-.36-.64-.57-.46-.14-.84-.15-1.12.25-.27.27-.31.69-.09,1,.24.34-.19.79.19,1.15.75-.12,1.08-.81,1.58-1.26.18.11.23.39.19.4-.71.13-.72.88-1.22,1.28-.48-.17-.93-.41-1.34-.7-.22.02-.41.15-.51.35,0,.54.8,1.14.09,1.75-.38-.93-.71-1.88-1-2.84-.07-.15-.07-.32,0-.47.4-.65.08-1.21-.21-1.86l-.53,1c-.3-.64-.57-1.21-.83-1.78h.29c.77-.2.87-.36.92-1.06s-.08-1-.72-.94c-.29,0-.31-.34-.58-.34l-.25.52c-.62-.05-1.15-.48-1.31-1.08,0-.42.34-.9-.14-1.3.59-1.21.56-1.31-.57-1.84-.12.3-.42.44-.64.64.08.2.23.36.43.44-.19.18-.36.3-.58,0-.7-.88-1.42-1.74-2.12-2.61-1.68-1.92-3.55-3.66-5.6-5.19-1.28-.96-2.62-1.83-4-2.63-.41-.25-.86-.43-1-.93-1.26-.06-2.43-.65-3.24-1.62l-.28.25c-1.36-.45-2.7-.95-4.08-1.36s-2.7-.69-4-1c-.17-.25.16-.64-.25-.85-.39,0-.52.23-.57.65l-.72-.58c-.29-.11-.24.26-.49.31l-.6-.37c-.4.39-.97.55-1.51.41-1.66-.11-3.34-.11-5,0-5.57.28-11.01,1.81-15.9,4.48-10.29,5.45-17.58,15.24-19.84,26.67-.55,2.48-.81,5.02-.79,7.56v1.64c-.46.11-.58-.27-.84-.41l-1,.68.27,1.03c-.16.45-.61.66-1,1-.2.64,0,1.34.5,1.78.66-.15,1.19-.64,1.38-1.29.4-.08.58.19.9.32.3,2.37.81,4.72,1.53,7l-1.08.5c-.19.26.05.57-.18.74.3.49.63.48,1.59,0,.16.1.13.27.18.41-.14.3-.44.12-.68.28s-.07.73-.28,1c.27.26.57.15.83.18-.06.32-.52.29-.58.63l.32.3c.24-.34.94-.4.43-1.05-.17-.28-.41-.56.12-.75.08.07.15.16.21.25.38,1.15.87,2.26,1.48,3.31.29.38.29.91,0,1.29.18.44.45,0,.74.25.27.69.9,1.3,1.31,2.07-.09.23-.35,0-.51.21,0,.3.22.65-.23,1-.3.24-.47.61-.45,1,.1.41-.07.77,0,1.1.03.54-.16,1.08-.53,1.48.08.25.1.54.42.64.93-.58,1.17-1.61,1.6-2.68l-.18-.55c.07-.17.18-.19.3-.14.38.14.5-.09.58-.5l.93,1.15c-.06.75.05,1.5.33,2.2.49-.06.41-.59.77-.73.73.66,1.4,1.38,2,2.16.51.8,1.73.94,1.67,2,.83.39,1.65.58,1.87,1.4,1.5.56,2.57,1.73,3.9,2.47s2.65,1.48,4,2.16c-.03.92-.14,1.83-.34,2.73-.09.29-.1.28-.8.6,0,.23.16.35.22.51,0,.38-.62.26-.55.65s.64-.07.6.45l-.62-.03c-.19-.36-.25-.9-.79-1q-.12.54.23,1.08l-.33.12s0,.07-.05.12c0,.4.47.38.58.81.64-.58,1.53-.3,2.27-.84-.63-.75.13-1.59-.19-2.37.31-.25.7,0,.94-.32,0-.46-.27-.6-.77-.72.54,0,.62-.38.75-.7-.05-.22-.23-.37-.54-.54.15-.02.31-.02.46,0,2.57,1.1,5.25,1.91,8,2.41.4.07.39.09,1,.71l.3-.46,2.84.33c.56.29.24.82.65,1,.58-.07.21-.56.34-.84.21-.11.46-.14.69-.07.68.11,1.45-.3,2,.4.25-.27.49-.55.9-.3,0,.43.12.85.37,1.2-.45,0-.56.36-.58.75.4.19.81.21,1-.21.33-.59.1-1.14-.43-1.7,1-.22,1.76-.53,2.53.07l.63-.47c-.11.58.01,1.17.34,1.66.76-.51.75-1.62,1.63-2,.7-.24,1.43-.35,2.17-.34,0,.28-.38.13-.34.4.07.51.42.46.78.37.46.64.76,1.44,1.71,1.63-.41.45-.48,1.12-.17,1.65.54-.13.45-.66.66-1s.58-.5.23-1c-.18-.25.77-.29.37-.85-.4.05-.77.2-1.1.43-.39-.59-.25-1.47-1.12-1.91,1.92-1.06,4.09-1.21,5.78-2.39l.86.27c.13.21.18.45.14.69-.31,0-.43-.5-.88-.28-.12.44.19.75.49,1.17.53-.29,1,0,1.53.18l.31-.57c.33-.11.46.1.57.41.3-.63.86-.51,1.3-.7l1.54.65c.42.75-.81.93-.43,1.68.51,0,1-.34,1.55-.13-.1-.69-.17-1.22-.24-1.71-.56-.69-1.59-.58-2.07-1.38-.91.4-1.9.56-2.89.49,0-.52-.48-.68-.64-1.11.21-.37.64-.41,1-.64.47.2.75.85,1.47.6-.14-.4-.22-.81-.23-1.23l3.9-2.5c.07.59.63.55,1.07,1-.05-.48.08-.75-.17-1-.26-.09-.53-.13-.8-.09.5-.37,1.05-.66,1.65-.83.23.33.13.62.18.89l-.15.79c.26-.15.38.24.69,0l.06-.55.61-.25c.16.68.06,1.39-.28,2,.9-.17,1.06.45,1.38.89l1.76-1c-.11-.3-.52-.11-.55-.48.28-.5,1-.28,1.34-.81.14-.51-.13-1.03-.63-1.21-.4.32.21.88-.32,1.16-.46-.35-.4-1.07-.91-1.38.15-.08.21-.25.16-.41l-.89-.32c-.27.4.1.8-.08,1.17-.25.1-.35-.08-.45-.24-.16-.57-.07-1.16-.22-1.75s.25-.89.76-1.19c.14.29.21.68.57.77s.62.09,1,.14c.16-.1.19-.31.27-.51-.22-.39-1,0-1-.68.47-.35.31.3.28.29.32.08.65-.05.84-.32.1-.12.18-.24.24-.38.47,0,.28.4.58.37.23-.26.12-.57.11-.9-.38-.22-.7-.55-.9-.94,1-1.13,1.94-2.32,2.81-3.56.27.87-.93,1.44-.2,2.2-.34.21-.71,0-1,.25-.25.49.39.42.42.73s-.07.71-.1,1.08-.57.29-.58.69c.11.25.32.44.58.53.82-.47,1.25-1.4,1.09-2.33-.06-.7.04-1.41.27-2.07.09-.18.15-.37.19-.56,0-.84-.36-1.8.66-2.37,0-.91.69-1.47,1-2.31q.11.73-.3,1.27l.32.71c.59-.06,1.17,0,1.11.87-.19-.29-.38-.61-.85-.31.1.35.21.72-.11,1-.46-.25-.79.06-1.21.21.11.68.02,1.37-.25,2-.34,1,.22,1.45.82,2.07.27-.37.48-.67.63-.89,0-.36-.36-.44-.28-.73l.52-.25q-.57-.58-.6-1.7l.49-.55c.35.43-.31.79-.06,1.22.49.37.85,1,1.69.85-.23.62-.7.94-.76,1.49,0,.21.42.27.1.73l-.73.6c-.56-.53-1.3-.86-2.07-.91-.24.21-.39.51-.41.83.29.2.55.43.78.7.24.33.44.63.84.6.52-.22.23-.9.73-1.06.16.31.51.47.85.38.19,0,.1-.55.48-.56l.3.63c.21-.6.65-.47,1.12-.32-.12-.85-.74-1.5-.24-2.21-.31-.34-.53-.74-.65-1.18.19-.3.33-.64.39-1-.2-.63-.8-1.04-1.46-1l.08-.54c.4-.21.57-.69.39-1.1-.2-.55-.25-1.14-.15-1.72.07-.63-.2-1.26-.71-1.64.09-.42.26-.82.51-1.17.42.34.46.8.64,1.18.24.06.23-.13.28-.28.58.73.54,1.77-.09,2.46l.41.18-.34.82.58.23c-.09.38-.73.71-.09,1.18.43.28,1.17,0,1.5.75.11.25.59,0,.92.09.17.27,0,.89.71.66.26-.3-.35-.27-.21-.48-.1-.5.54-.36.49-.9-.63-.52.6-1.58-.4-2.28-.5.58-.62,1.4-.29,2.09-.66.23-.29-.52-.77-.51-.44.08-.86.23-1.24.46.11-.79.32-1.56.64-2.29-.14-.26-.49-.29-.6-.62.04-.09.1-.18.16-.26.29-.34.78,0,1.09-.31,0-.26-.45-.25-.31-.57.15.17.39.22.59.12l-.21-.85c-.29,0-.56.12-.76.32-.42-.5-.42-1.17-.71-1.73.5-.56,0-1.38.49-1.94-.51-.81-1,.14-1.48,0-.19-.2,0-.41.09-.62.75-2.33,1.26-4.74,1.54-7.17.06-.39.16-.77.28-1.15.01.18.11.34.25.44l.91-.11c0-.51.89-.56.55-1.32-.49,0-1.1-.49-1.44.35-.26,0-.37-.11-.34-.34.06-.7.15-1.39.22-2,.34-.39.46.23.7.1.52-.18.52-.67.83-1.13-.58,0-.93-.49-1.57-.28-.3-1.68-.13-3.4-.54-5.13l.45.1c.29.41,1,.88,1.24.75.14-.25.11-.55-.06-.77-.32-.09-.66-.14-1-.12l.33-.51c1-.37,1.36.36,1.66,1.09.49-.09.41-.51.67-.69l-.44-.7c-.13-.47.32-.45.28-.75l-.3-.13c0-.68.64-1.11.83-1.72-.42-.64-.89-1.28-.17-2-.24-.32-.48-.56-.94-.27-.02-.56.13-1.12.45-1.59-.1-.41-.58-.37-.65-.75.06-.26.25-.46.5-.55.32.08.25.49.52.61.36.38.84.15,1.21.36.13-.3.12-.48,0-.63-.36.11-.74.12-1.11.03ZM3.76,56.19c.1.18.27.31.47.36.11-.28.48-.47.28-.85-.43-.24-.44.18-.62.33-.32-.34-.79-.22-1.18-.32-.18,0-.38.23-.31.52s.38.23.67.36c.06-.4.36-.44.69-.4Zm16.07,25.91q.4.75,1,.36c0-.25-.31-.22-.3-.44s.61-.23.48-.66c-.24-.17-.53-.07-.79-.14-.1-.14-.29-.19-.45-.12l-.54,1.15c.21.09.45.03.6-.15Zm59.53-62.29c-.34.07-.06-.61-.52-.4s-.09.57,0,.86c-.27.19-.49.45-.64.75.3.1,0,.56.43.71.08-.36.26-.68.53-.93.27-.2.41-.52.38-.85.14,0,.32,0,.43-.29l-.34-1.13h-.16l-.11,1.28Zm-31.2,72.62c.45.15.22.93.86.9q.11-.87-.72-1c.15-.14.48-.12.41-.55s-.89-.55-.64-1.23c.36-.07.49.38.72.38.52-.15.85-.33.57-.89l-.65-.17c.11-.6.88-.76,1-1.41-.34-.26-.78-.31-1.17-.14-.21.29,0,.44,0,.63-.84.23-.87.31-.64,1.42l-1,1.33,1.26.73Zm43.45-39.29c-.25.18-.31.53-.13.78.04.05.08.09.13.13.34.31.56.2.62-.25l.55-.08c.11-.43-.3-.67-.23-1,.26-.15.65-.1.77-.51-.23-.65,0-1.6-1.1-1.75-.28.37-.27.88-.64,1-.14.53.37.62.46,1-.5,0-.41.37-.43.68Zm-8.41-32.23c.28.22-.14.61.2.84.55-.23.38-.74.55-1.1-.3-.15-.45,0-.62.1-.46-.54.21-1,.1-1.52-.37-.3-.84-.44-1.32-.41-.07,0-.13-.06-.13-.13,0-.01,0-.02,0-.04.09-.27.86-.09.43-.7-.67,0-1,.53-1.34.92.13.41.54.4.72.65-.14.07-.37.09-.41.2-.33.57-.33,1.26,0,1.83.34.58.53,1.24.53,1.91.3.25.74.21.99-.08,0,0,0-.01.01-.02-.16-.25-.06-.52,0-.77-.2-.24-.57,0-.75-.31.18-.29.72-.14.77-.58.06-.19-.3-.16-.15-.45l.41-.34ZM23.87,85.14c.92-.91,1.36-1.61,1.21-1.87s-.67-.14-.8-.36c0-.38.35-.28.33-.58-.36-.23-.84,0-1.22-.28-.15.41-.61.33-.91.67.13.59.06,1.21-.2,1.75-.21.57-.06,1.2.38,1.62.26-.41-.16-.88,0-1.24.55-.26.88.06,1.21.29Zm21.27,4.56c-.83-.25-1.39-1.08-2.36-.76,0,.91.79,1.5.63,2.44.39-.37.69-.66,1.12-.24l-.28,1.19c.35.14.75.11,1.07-.08-.23-.83-.3-1.7-.18-2.55Zm-10.38,1.61c.81-.18,1.56-.58,2.18-1.14l.17-1.12c-.36-.18-.63.27-.94,0s.38-.81-.26-1c-1.16.83-1.05,2.06-1.15,3.26ZM8.37,56c-.87-.26-.34-1.25-1.15-1.54-.19.74.37,1.83-1,1.92.48.62-.1,1.38.42,1.92.57-.1.75-.61,1.09-.9s.14-.89.64-1.4Zm57.42,30.7c-.12-.62.19-1.24.75-1.52-.89-.64-1-.66-1.64-.29-.44.52-.64,1.2-.56,1.87.09.27.31.47.59.52l.86-.58Zm26.64-36.45c-.15-1.23-.94-1.95-1.09-3.2l-.33,1.06-.84-.27c-.47-.29-.23-.77-.65-1-.07.4-.07.8,0,1.2.35.7,1,.65,1.48.77.32.41-.19.67,0,1s.37-.23.61-.17l.82.61Zm-23.34,29.78c.1.49.27.96.52,1.4-.21.1-.38.28-.46.5.36.33.63.85,1.32.55l.55-.83c-.94-.36-.58-1.48-1.24-2-.27.04-.51.18-.69.38Zm17.5-26.53c.59-.11,1-.44,1.43-.23l.21-.83c.59-.29.75.14,1,.46-.17.17-.44.25-.31.56.39.1.79-.14.89-.53.05-.18.02-.37-.07-.53-.47-.59-1.48-.2-1.77-1.07-.64.59-1.11,1.34-1.38,2.17Zm-35.43,35.75l.3-.13c1-.35,1.09-.76.31-1.39-.26-.21-.28-.7-.78-.67-.34.22-.62.52-.83.86l1,1.33Zm37.54-29.59c.59-1.23.44-1.85-.6-2.51-.5.27-.14.77-.27,1.16-.29.77-.05.94.87,1.35Zm-33,29.85c0-.69,1.1-1,.58-1.9-.17-.11-.39-.11-.56,0-.12.17.2.38,0,.53s-.22-.43-.52-.35c-.27.05-.52.19-.71.39-.12.33-.09.69.07,1,.35,0,.43-.37.72-.39.1.22-.24.41,0,.64s.26.08.46.08h-.04Zm5.69-4.72q.44-.43.39-1c-.25.35-.77,0-1,.59-.15.34-.6.6-.62,1.1s.46.56.67.86l.58-.55-.02-1ZM3.01,53c-.34-.12-.73.04-.87.38-.13.57.26,1.12.06,1.71.27.11.47.44.83.26.1-.27-.29-.38-.13-.78.07-.24.65-.22.72-.69l-.61-.88Zm89.05,4.25c.58-1.53.58-1.55-.48-2.1-.59.14-.67.65-.81,1.13.5.22.77.73,1.29.97ZM5.24,50.87l-1.08-.22c-.43.16-.25.64-.52.83.2.67.57,1,1.38.72.02-.39.38-.72.22-1.33Zm7,24.09c-.33-.19-.55-.44-.95-.33-.06.38-.41.61-.64,1,.57.27.54.85.69,1.47.4-.32.63-.49.53-1-.03-.29.25-.69.41-1.14h-.04Zm-1.7-2.9c-.36-.11-.41-.65-.82-.78-.33.21,0,.49-.14.69s-.85.06-.86.67c.46.24,1.13-.14,1.52.58.11-.41.42-.61.3-1.16Zm80.5-9.71c-.35-.41-.56-.92-.61-1.46-.4.42-.62.76-.29,1.2-.16.26-.52.29-.59.65l.82.57.67-.96ZM5.43,55.35c.3-.62.93-1.07.93-1.88-.5.54-1.52-.17-1.85.82q.87.08.92,1.04v.02Zm17.89,26.15c.6-.33,1.2-.23,1.69-.63-.3-.49-.79-.21-1.08-.43s-.26-.58-.61-.72c-.15.59-.2,1.2,0,1.78Zm63.09-23.9c.25-.52.61-.98,1.06-1.35-.63-.29-1.14-.59-1.61.07-.05.53.51.77.55,1.28Zm-31,28.18l-1.19.47c-.1.47-.05.97.16,1.41.28-.79,1.33-.92,1.05-1.88h-.02Zm-44.35-15.11c-.3-.72-.24-1.55.18-2.21-.17-.28-.32-.39-.59-.34-.6.65.16,1.49-.35,2.15.24.17.37.43.76.4Zm51.57,14.65c.46.21.77.56,1.19.19.11-.4-.03-.83-.37-1.08-.8-.12-.56.55-.82.89ZM3.15,48.62c-.46,0-.76-.36-1.21-.36-.07.38-.59.54-.5,1l.82.13c.16-.33.59-.38.89-.77Zm17.29,28.92l.31.95c-.23.21-.58.25-.49.67l.84.17c.02-.59.09-1.19.2-1.77-.26-.16-.59-.17-.86-.02Zm65.63-16.86c-.38,0-.6.11-.59.45.08.52.34,1,.73,1.36.46-.77.02-1.24-.14-1.81Zm-60.16,27.57c-.04-.38.04-.76.22-1.1-.27-.28-.43-.66-.85-.5-.24.34.08.56.09.82s-.2.52-.06.78c.08.03.16.05.25.07.12-.02.23-.04.35-.07ZM72.64,9.03c.2-.32.15-.74-.12-1-.26-.08-.5.19-.75,0q0,.95.87,1Zm-25.79,80c.09.49-.45,1,.31,1.41.61-.37.45-.88.27-1.41h-.58ZM55.85,4.75q.42-.68-.58-1.09c-.17.16-.27.38-.28.61.21.27.53.44.87.44v.04Zm31.16,65.33c-.36,0-.7-.18-.88.24.09.39.42.69.82.72.27-.27.3-.7.07-1v.04Zm-71.47,5.17c-.38-.57-1.07-.14-1.4-.58-.24.2-.34.36-.15.7.55-.27,1.04.44,1.55-.12ZM76.44,14.75c-.64-.3-.77.08-1,.42s-.19.66.33.83c.13-.46.36-.89.67-1.25ZM10.65,66.43c.27.78.72,1.15,1,.89.13-.13.1-.29.06-.55-.35.09-.6-.36-1.06-.34Zm76-7.3c0-.47-.29-.63-.58-.83-.24.12-.41.26-.38.56.2.39.5.55.93.27h.03Zm-5.25-42.09c-.25.24-.67.4-.41,1,.34-.31.77-.26,1.13-.46-.09-.43-.39-.48-.72-.54ZM3.95,58.51c.64-.43.31-.94.22-1.68-.48.67-.71,1.12-.22,1.68Zm35.18,30.16l-.59-.84c-.27.36-.6.67-.28,1.13.28.14.5-.15.87-.29ZM71.48,8.67q-.65.82-.1,1.38c.24-.43.27-.93.1-1.39h0Zm-3.26,1.32q.33-.13.66-.51c-.25-.29-.6-.23-.89-.34-.18.25-.12.6.13.78.03.02.07.04.1.06h0Zm8.47,5.62c-.24.19-.38.48-.38.79.29.13.48.54,1,.26-.43-.25-.1-.85-.62-1.06h0ZM4.54,59.94c0,.46-.5.82.08,1.19.29-.08.52-.31.6-.6l-.68-.59Zm.59-14.6q-.41,1,0,1.44c.29-.4.23-.79.01-1.44h-.01Zm34.49,44.11c.42.1.72.08.88-.34-.21-.17-.32-.44-.6-.52-.21.23-.32.55-.28.86Zm-8.91-.35c-.37-.49-.66-.47-.93,0,.1.29.35.51.65.57l.28-.57ZM55.9,8.41c.27.25.44.41.7.36s.38-.51.48-.94c-.54.09-.68.6-1.18.58Zm21,4c-.62,0-1-.15-1.35.2.06.24.13.43.41.49.17-.27.48-.35.95-.69h-.01Zm-3.83,5.27q.4-.48-.07-1.06c-.28.22-.33.62-.11.9.05.07.12.12.19.16h-.01Zm2.66,0q.12-.71-.38-1c-.06.38-.15.77.39.98v.02Zm-39.55,69.8c-.04-.33-.16-.64-.37-.9-.08.46-.37.76-.27,1.17.31.11.48,0,.64-.27Zm-1.55-3.15c-.42.57-.11.91,0,1.29.76-.37.29-.76,0-1.29ZM1.97,51.25q.73,0,.81-.67c-.4,0-.73.28-.81.67Zm88.39,6.09c.24-.37.24-.84,0-1.21-.52.39-.53.72,0,1.21Zm-81.39,9.36c.45-.35.54-.63.27-1-.29-.07-.44.1-.59.35l.32.65ZM55.34,1.7c-.28.08-.51.3-.61.57.16.14.07.49.43.48.1-.29.19-.58.28-.87.01-.05-.03-.09-.1-.2v.02Zm12.82,4.26c-.59,0-.77.25-.67.74.47-.03.66-.22.67-.76v.02Zm10.46,8.29c.31-.17.5-.49.51-.84-.79-.09-.75.24-.51.84Zm8.28,30.53c.19.17.47.17.66,0-.2-.21,0-.57-.34-.78-.18.18-.42.38-.32.76v.02Zm-83.29,1.65c-.17-.21-.42-.34-.69-.35-.12.44.14.64.31.88.23-.08.38-.29.38-.53Zm29.54,39.82c.29,0,.53-.07.64-.34-.15-.2-.09-.57-.54-.56-.13.28-.16.6-.1.9ZM2.15,46.81c-.54,0-.64,0-.7.12,0,.28.23.51.51.51.03,0,.07,0,.1,0,.15-.16.17-.4.06-.58l.03-.04Zm74.15,29.32c-.36-.22-.82-.22-1.18,0,.42.27.72.68,1.18,0Zm-60.19-.25c-.11.19-.08.43.06.59.31-.14.59-.35.81-.61-.27-.17-.61-.16-.87.02Zm-.22-1.23c-.18.51-.06.77.4.87l.26-.33c-.14-.26-.37-.46-.66-.54Zm-3.53-6.09c-.11.26-.48.08-.54.44l.57.53c.15-.28.49-.5-.03-.97Zm-3.05-8.06c-.5-.23-.78,0-1.16.39.54.1.94.18,1.16-.39ZM81.59,24.31c.38.3.54.05.68-.24-.05-.16-.18-.28-.34-.32-.22.1-.36.32-.34.56Zm-40.7,62.94c.18-.08.37-.14.32-.4s-.35-.45-.65-.16c-.02.33.12.47.33.56Zm-19.85-1.7c-.02-.3-.12-.59-.3-.83-.21.26-.29.59-.23.92.22.02.38.07.53-.09Zm8.26-.6c.31-.18.3-.41.15-.69s-.35-.11-.57,0c.15.2.09.53.42.69Zm40.8-1.7c-.31-.27-.49-.58-1-.39.24.31.37.73,1,.39Zm6.93-2h-.23l-.19,1.22c.65-.47.43-.88.42-1.22Zm-58.31-3.39c.26.14.47.24.7-.12-.28,0,0-.45-.42-.43-.21.09-.33.32-.28.55Zm-4.76-4c.33-.21.57-.35.3-.79-.35.18-.72.18-.3.83v-.04Zm-4.62-4.15c.08-.39-.16-.6-.34-.85-.21.13-.35.21-.32.4s.28.47.66.45Zm-2.25-7.85q.41-.33,0-.71c-.17.24-.27.47,0,.71Z"/>
    <path class="cls-1" d="m67.28,89.17c.32-.47.92-.42,1.21-.86.23.21.28.4,0,.55s-.73.48-1.21.31Z"/>
    <path class="cls-1" d="m80.87,77.48c-.53,0-1.13.24-1.33-.59.64-.18.87.48,1.33.58h0Z"/>
    <path class="cls-1" d="m71.04,85.87l.31.14c.15.26-.09.33-.21.48-.25-.17.07-.44-.11-.61h.01Z"/>
    <path class="cls-1" d="m27.41,55.79c0-.37-.23-.51-.55-.42-.34.11-.68.24-1,.4-.33-.4-.49-.91-.45-1.42.19-.4.7-.65.81-1.27-.43-.61-.96-1.14-1.55-1.59,0-.52.79-.32.73-.87,0-.37-.26-.45-.63-.47s-.18-.57-.52-.79h-.53q-.19-.66-1.15-.9c-.84-1.54-1.32-3.25-1.41-5-.14-1.71.39-2.15,2.2-1.83-.09-.63-.6-1-.71-1.6.06-.3.45-.13.56-.36.17-.45.05-.96-.31-1.29-.54.15-.29.44-.13.7,0,.11-.09.14-.17.07-.67-.68-1.05-1.59-1.06-2.54-.47-2.56-.12-5.19,1-7.54.34-.41.93-.38,1.17-.85.06-.25-.3-.22-.3-.44.65-.5.92-.55,1.42-.15.27.23.53.49.75.77,4.7,5.42,11.07,9.11,18.1,10.5.86.3,1.77.45,2.68.45.23.02.46-.06.64-.21.15-1.06,0-2.22.2-3.36.28-1.12.67-2.21,1.16-3.26.47-1.04,1.1-2.01,1.85-2.88.75-.89,1.63-1.65,2.61-2.27,1-.66,2.09-1.17,3.24-1.53,1.09-.35,2.23-.55,3.38-.59,1.14-.04,2.29.07,3.41.3,1.17.24,2.31.65,3.36,1.22,1.01.55,1.95,1.22,2.8,2,1.53-.06,2.81-1,4.37-1.09.71-.74,1.62-1.25,2.62-1.46,1-.25,1.58.55,1.31,1.53-.15.58-.38,1.13-.68,1.64-.24.31-.58,0-.72.45.53.55-.77,1.06-.11,1.72-.16.15-.35.24-.36.5.2.26.48.14.73.1.31-.22.12-.61.32-.9.28-.2.6-.35.93-.44.68.21.39,1,.81,1.34h0c.11.92-.27,1.83-1,2.4-.18,0-.21-.34-.47-.25,0,0-.15.13-.14.16.12.3.22.61,0,.89s-.59,1-1.14.93-.25.43-.51.53-.12-.52-.49-.59-.55.3-.72.61c.13.34.43.42.84.48-.48.49-.81,1-1.51.63-.21.63-.71,1.13-.74,1.81.11.39.54.31.78.57-.36,10.45-5.39,20.2-13.69,26.56-.39.29-.75.62-1.29.44-.04-.39-.27-.73-.61-.91,0,.53-.18,1,.47,1,.06.38-.18.59-.46.76-1.37.91-2.81,1.7-4.31,2.36l-1.06-.29c0-.49-.4-1-.13-1.73-.49.18-.76.72-.61,1.22.08.52.24,1.18,1.15,1.13-.86.44-1.76.8-2.69,1.07-.87.27-1.75.53-2.64.75s-1.86.44-2.8.6c-.9.17-1.82.27-2.74.3-.8.01-1.6.07-2.39.18-.51-.35-.3-.76-.54-1l-.77.2c0,.44.55.12.5.62-.61-.16-1.23.61-1.89-.07,0,0-.2.06-.31.08-1.23.1-2.47,0-3.68-.27-.34-.06-.63-.27-.79-.57-.28.12-.47.41-.88.31-2.84-.63-5.6-1.59-8.22-2.86-.18-.44-.35-.87-.51-1.29-.44.13-.53.4-.33.9-.84-.48-1.54-.85-2.21-1.27-1-.65-1-1.31-.21-2.15,2-.22,4,0,5.86-.11.32.11.21.46.43.59.29-.15.11-.55.38-.7.85-.4,1.85-.07,2.67-.57l.25.29c.4.06.14-.56.4-.5.56-.11.73.47,1.18.39s.43-.52.45-.92l1.69-.73c.43.19.26.64.54.92.46-.22.31-.54.13-.92.41-.01.79-.19,1.07-.48l-1-1.09c-.85.33-1.44-.23-2-.51-.36-.3-.11-.78-.46-1-.1-.09-.23-.15-.32-.06-.34.36-.62.24-.93-.09s.32-.8-.28-1l-.27-.66c.13-.27-.08-.64.22-.87.23,0,.43.29.7,0-.1-.31.2-.64,0-1.06-.36,0-.69-.41-1.07-.24-.26.38.21.52.14.77l-.67.78.21.32h0c-.3-.16-.52.14-.82.14-.65-.47-1.05-1.2-1.09-2-.29,0-.5-.13-.58-.32-.17-.39.19-.55.23-.81.24-.13.53.25.75-.09.12.67.56.45,1,.37l-.6-.92-.29.47Zm21.7-21c.11.29-.36.53-.08.85s.47-.07.62-.31c-.13-.22-.13-.52-.39-.67l-.4-.85c-.27.12-.6.07-.82.34.23.38.63.63,1.07.67v-.03Zm-9,31.08l.13-.37c-.35-.17-.77-.13-1.07.11.17.43-.43.7-.33,1.23.76.18.69-.67,1.12-.83.14.69-.56,1.06-.64,1.67-.03.12,0,.25.07.35.28.17.63.14.88-.07-.05-.35-.3-.69,0-1.12.19-.3.14-.69-.11-.94l-.05-.03Zm7.52,1.08c.03.4.29.74.67.87.23-.12.41-.25.36-.56-.2-.31-.68-.12-.89-.44,0-.67.41-1.29.2-1.87l1.66-1.36c-1-.29-1.58.44-2.37.43l.09.42c-.18.08-.4-.06-.58.14-.4.94.74,1.57.4,2.58l.46-.21Zm-10.77,4.58c-.19.34-.36.67.11,1,.28-.19.46-.5.47-.84-.11-.23-.28-.21-.42-.25.66-1.22.53-2.58.72-3.86l-1.2-.33c-.06.36,0,.76-.25,1.07l.65.28c-.27.29-.43.66-.46,1.06-.26.16-.56.06-.69.34-.08.22-.08.47,0,.69.19.26.54.08.77.28s.05.43.3.56Zm3.68-9.89c-.1.76-.14,1.4-.19,2s.83,1,.67,1.79c.44.13.71.49,1.14.42.17-.33-.13-.69.1-1,.2,0,.41.33.55.1.14-.78-.86-.21-.8-.81s-1-.28-.74-1l1.63-.34c.11-.43-.17-.61-.3-.86-.49.2-1,.22-1.36.63-.17-.35-.41-.67-.7-.93Zm32.06-27.8c.61-1.73.51-2.14-.57-2.62-.27.42-.78.63-1.27.5,0,.78.92.67,1,1.27-.05.23-.46.36-.23.74l1.07.11Zm-19.79,33c.24-.25.57-.42.67-.83-.45-.39-.06-1-.34-1.6-.33.45-.7-.06-1.07.19q-.38.74.34,1.39c0,.35-.4.35-.55.59.15.54.39,1,1,1.11.23-.17.29-.49.13-.72-.03-.05-.08-.09-.13-.13h-.05Zm-7.6,2.71c-.01.63-.5,1.14-1.13,1.19.34.67,1.06.8,1.54,1.22.21.18.52-.06.66-.35l-.34-1.15c.16-.25.26-.54.3-.84-.32-.14-.69-.17-1.03-.07Zm28.52-34.52c.9-.03,1.69-.6,2-1.45-.13-.19-.12-.47-.42-.53-.56-.13-.68.43-1,.67-.23-.11-.4-.25-.62-.14-.55.46.33.91.04,1.45Zm-44.07,17.16c-.06-.7.54-.71.59-1.16-.19-.25-.47-.42-.78-.46-.32.16-.59.41-.79.71-.25-.21-.49-.44-.86-.32-.09.52.24.9.14,1.3.58.22.91-.68,1.7-.07Zm-1.83,16.54q.63.77.61,1.52c.36.14.76.11,1.1-.07-.18-.4.13-.81,0-1.22l-1.5-1.13c-.25.29.06.64-.21.9Zm14.14,3.68c0-.87,1.16-.58,1.38-1.38-.45,0-.56-.42-.75-.73-.38.29-.74.6-1.06.95-.26.37-.49.77-.69,1.18.36.12.76.12,1.12-.02Zm27.83-32c.44.5.78,1,1.52,1,.32-.46-.11-.75-.17-1.1.09-.12.32,0,.38-.32-.1-.37-.4-.65-.78-.72-.54.25-.55.82-.95,1.12v.02Zm-39.61,31.19c.28.14.55.3.81.48.22.19.32.58.73.23.16-.14.42.41.65-.07-.49-.65-.75-1.59-1.85-1.75-.17.41.32.9-.34,1.11Zm40.12-29.35q0,1.44.79,2.17c.61-.65.24-1.43.44-2.21-.38.2-.84.22-1.23.04Zm-8.89-8.08c.23-.46-.08-.78-.35-1.1.31-.23.57-.52.76-.86-.24-.18-.58-.14-.76.1,0,.01-.02.02-.02.03-.52.66-.87,1.43-1,2.26l1.37-.43Zm-7.16,33.63c.27.37,0,.87.29,1.25.21,0,.37.31.7.09-.35-.48.14-.84.21-1.33-.27-.29-.06-.92-.78-1.11.1.49-.3.72-.42,1.1Zm10.28-29.79c.19.83.45,1.14.89,1l.58-.84c-.18-.2-.17-.49-.4-.58-.48-.07-.77.2-1.07.42Zm-14.93-5.91c-.57.92-.46,1.11.78,1.37.37-.78.15-1.14-.78-1.37Zm15.49-.7c-.2-.33-.46-.34-.72-.49-.15.49-.52.88-1,1.07.14.27.16.48.34.58l.77-.24.61-.92Zm3.44,5.52c.19-.38.55-.59.64-1-.22-.28-.12-.75-.63-1-.18.7-.56,1.33-.01,2Zm-42.57,4.54c-.89.56-1,.87-.43,1.19l.84-.28c.04-.35-.12-.7-.41-.91Zm23.44,24.62c.92.31.31,1.29.88,1.77.49-1.12.25-1.76-.88-1.77Zm-26.17-30.43c.14-.52,0-.8-.46-.92-.38.15-.63.51-.63.92.34.17.75.17,1.09,0Zm38.3,6.8c-.33-.07-.64-.16-.87.16.45.67,1,.94,1.44.68l-.57-.84Zm-29.13,2.48c0-.3.42-.47.12-.79-.17-.09-.37-.09-.54,0,0,.44-.28.88,0,1.35.38.16.67.1.84-.29-.06-.19-.29-.14-.42-.27Zm35.2-.87c.1-1-.09-1.34-1-1.46.32.52.21,1.2,1,1.46Zm-.94,3.19c.47-.16.32-.61.48-1-.46-.1-.83-.19-1.17.1.04.53.35.71.69.9Zm1.24-7.42c-.05.41.17.81.54,1l.67-1c-.5-.45-.83-.01-1.21.02v-.02Zm8.33-12.74c-.35-.42-.72-.37-1.2-.11.22.49.59.9,1.06,1.15-.06-.35-.01-.72.14-1.04Zm-16.08,5.5c0-.39.68-.37.5-1-.46.21-1-.29-1.49.32.43.12.57.47.99.68Zm-26.17,35.26c-.07.34,0,.7.18,1,.29,0,.56.26.88.1.06-.82-.76-.7-1.06-1.1Zm2.16-8.35c-.19-.11-.41-.11-.6,0l-.17.89c.27,0,.54.11.79-.09.13-.25.12-.55-.02-.8Zm-2.22-10.81c-.17.31-.44.52-.28.87.26.18.6.18.86,0q-.03-.54-.58-.87Zm-2.17,12.61c.52.06,1,.32,1.32,0,.08-.43-.24-.29-.35-.41s-.25-.29-.5-.18l-.47.59Zm8.08-1.5c-.53,0-1.01.32-1.2.81l.69.33c0-.46.53-.58.51-1.14Zm-7.78-2.5c.33-.22.61-.51.81-.85l-.33-.33c-.36.18-.66.47-.86.82.07.17.21.3.38.36Zm3.09,14.62c.18-.15.29-.37.31-.61-.29-.13-.34-.53-.7-.56-.3.12-.35.38-.39.75.39-.09.55.21.78.42Zm36-24.43c-.33.19-.54.54-.56.92.34,0,.08.62.52.51q.3-.51.05-1.43h-.01Zm-13.45,18.23c.39-.55.46-1.26.18-1.87-.49.51-.56,1.28-.18,1.87Zm-18.9,4.53l1-.22c-.33-.3.15-.7-.22-1-.53.22-.6.66-.78,1.22Zm18.82-33q.57-.74,0-1.29c-.51.43.12.88,0,1.29Zm-16.67,34c.43-.55.1-.91,0-1.26-.19-.06-.4-.03-.56.08l.56,1.18Zm-11.87-23.36c.55.21.85,0,.92-.55-.65-.33-.79.07-.92.55Zm34.8,7.57l.61.89c.13-.57.29-1.05-.27-1.39-.23.12-.24.34-.34.5Zm-14.69,5.84c-.29-.46-.59-.56-1-.25.01.31.15.6.39.81l.61-.56Zm-7.51,7.32c.1-.3.18-.51,0-.72-.26-.12-.56-.09-.79.07.12.35.43.59.79.65Zm22.72-28.79c-.09.32-.62.34-.55.82.32.2.58.23.77-.15s.21-.5-.22-.67Zm-30,32.07c-.29.12-.48.4-.48.71.15.26.31.34.54.28.23-.3.2-.73-.08-.99h.02Zm11.92-3.84c0-.25,0-.39-.27-.44l-.93.35c.42.6.81.08,1.18.09h.02Zm-4.29,1.4c.3.39.58.49.93.22.05-.2.09-.39-.1-.54-.27.11-.57.11-.85.32h.02Zm31.21-37.62q.56-.77.22-1.62l-.22,1.62Zm-20.52,2.83c.16-.19.13-.47-.06-.63,0,0-.01-.01-.02-.02-.22,0-.51-.11-.57.3.13.29.38.33.65.35Zm9.43,6c.31-.05.57-.25.7-.53-.08-.21-.13-.44-.38-.57-.18.35-.29.74-.32,1.14v-.04Zm-1.42-.81c.38.17.33.6.67.85l.21-.9c-.29-.13-.62-.1-.88.09v-.04Zm11.06,3.59c.06.18.14.35.38.34s.45-.29.47-.6c-.38-.2-.65-.06-.85.3v-.04Zm-43.13,11.54c.15-.41.59-.62.27-1-.31-.08-.45.1-.6.34l.33.66Zm21.95,13.56c-.57.1-.79.29-.59.78.44-.08.64-.23.59-.78Zm-4.61-2.74q-.48.64.07,1c.1-.33.07-.69-.07-1Zm-12.46,5.22c-.77,0-.94.14-.82.47l.26.2c.28-.13.49-.37.56-.67Zm17.49-39.72q-.59-.4-.85,0c.24.21.61.21.85,0Zm17.91-.06c.04.32.3.56.62.56.07-.22.14-.43-.08-.62-.18-.08-.38-.06-.54.06Zm-16.09.19c-.31.19-.61.4-.51.91.5-.17.55-.52.51-.93v.02Zm-31.19,4.6c.08.26,0,.6.49.66.14-.23.14-.53,0-.76-.19-.02-.34-.06-.49.1Zm.93,2.05q.69-.22.29-.65c-.26.1-.39.39-.29.64,0,0,0,0,0,0Zm5.33,4.34c.34-.13.51-.51.39-.85-.03-.09-.08-.16-.15-.23.04.36-.5.58-.24,1.08Zm2.62,11.82c-.17.66.07.79.59.63-.04-.35-.24-.52-.59-.63Zm11.6,12.69q-.42.5,0,.84c.16-.26.16-.58,0-.84Zm-5.94-1.07c.05.34.18.5.5.52.09-.16.38-.23.23-.55-.23-.13-.51-.11-.73.03Zm17.1,4.5c.29-.4.36-.65-.06-.84-.31.28-.3.51.06.84Zm-6.08,0q.6-.19.39-1l-.39,1Z"/>
    <path class="cls-1" d="m85.26,40c-.37-1.51-.75-3-1.13-4.53.22-.28.48-.17.8-.07,0,.39.1.83.56.92.47,1.08-.19,2.06-.12,2.8s.63.65.83,1.05c-.29-.14-.62-.2-.94-.17Z"/>
    <path class="cls-1" d="m73.93,77.51c.1.16.2.34.45.24.71.08.1.82.68,1-.39.13-.66.18-.8,0-.2-.28-.52-.46-.86-.5l-.61.25v-.24c.03-.85.65-.68,1.14-.75Z"/>
    <path class="cls-1" d="m86.81,36.64c.19-.63-.53-1-.79-1.45.06-.18.26-.28.44-.22.07.02.13.07.18.13.32.69,1,1.13,1.22,1.86,0,.06,0,.14-.07.21l-.98-.53Z"/>
    <path class="cls-1" d="m87.12,23.25v.34c.13.28.59-.28.63.35-.27.31-.81.28-1.06.7-.29-.32-.46-.65-.82-.82.31-.44.8-.46,1.24-.58h.01Z"/>
    <path class="cls-1" d="m90.47,35.47l.4-.26c-.08-.3-.29-.61.11-.94l.65.62c-.81.08-.51.79-.63,1.24-.5-.05,0-.69-.52-.65h-.01Z"/>
    <path class="cls-1" d="m29.28,59.25l.22.65c-.05.14-.05.31-.24.42-.36,0-.55-.35-.76-.61s.36-.42.29-.73h0c.17.1.27.27.49.27Z"/>
    <path class="cls-1" d="m7.64,49.68l.45-.53.22,1.59c-.38-.23-.62-.62-.67-1.06Z"/>
    <path class="cls-1" d="m23.76,49.4c0,.38.4.64.31,1.06-.41-.19-.71-.56-.82-1,.12-.32.35,0,.5-.08v.02Z"/>
    <path class="cls-1" d="m13.94,69.54c.17-.25.3-.52.39-.81.33,0,.25.32.34.49-.13.31-.43.3-.73.32Z"/>
    <path class="cls-1" d="m87.11,23.25c0-.38-.54-.51-.37-.93q.42.41.38.94h0Z"/>
    <path class="cls-1" d="m81.54,28.77h-.23c-.22-.2-.35-.48-.37-.77.34.11.58.41.6.77Z"/>
    <path class="cls-1" d="m78.23,32.11c.31-.23.28-.6.36-1q0,.65-.35,1h-.01Z"/>
    <path class="cls-1" d="m92.87,44.11c.08-.24-.24-.24-.25-.42.18-.3.35-.22.53,0s-.15.32-.27.45v-.03Z"/>
    <path class="cls-1" d="m9.22,59.48c.14-.37.31-.39.51-.09-.19.28-.35-.09-.51.09Z"/>
  </g>
</svg>