<?xml version="1.0" encoding="UTF-8"?>
<svg id="Capa_1" data-name="Capa 1" xmlns="http://www.w3.org/2000/svg" width="33.18mm" height="33.19mm" viewBox="0 0 94.04 94.08">
  <defs>
    <style>
      .cls-1 {
        fill: #4fb7f7;
        stroke-width: 0px;
      }
    </style>
  </defs>
  <g id="OBJECTS">
    <path class="cls-1" d="m78.79,81.33c-.12.64-.78.24-1.06.56-.2,1-.21.93-1.34,1.14-.38.02-.67.34-.65.73,0,.1.03.19.07.27-1.19.81-2.1,2-3.55,2.37l-.42-.54c0-.21,0-.46-.23-.64-.22.14-.48.2-.74.15-.12-.4.47-1-.29-1.26-.16.43,0,.93-.33,1.26-.3,0-.52.15-.65.57.6-.13.51.69,1.11.72.23-.49-.14-.79-.32-1.14h.35c.22.34.71.15.95.47-.49,1.47-1.31,2.17-2.52,2.12-.35.52-.88.9-1.48,1.08-.34-.31-.25-.89-.65-1.17-.04-.37,0-.73.13-1.08-.29-.34-.56-.43-.94-.18,0,.54,0,1.14.67,1.4,0,1.29-.81,1.89-2,2.34-4.54,1.86-9.35,2.99-14.24,3.34-.35-.03-.7.05-1,.24h-5c-.3-.17-.65-.26-1-.24-4.31-.27-8.55-1.17-12.6-2.67-3.44-1.25-6.72-2.9-9.77-4.92-.38-.25-.87-.43-.75-1.11-.64.05-1.27-.18-1.73-.63-3.09-2.35-5.89-5.07-8.33-8.09-.28-.35-.73-.63-.68-1.2,0-.11-.15-.26-.27-.36-1.16-1.09-2.09-2.4-2.73-3.86-.06-.18-.14-.35-.23-.52-1.31-1.79-2.29-3.8-2.91-5.93,0-.25.42-.19.33-.47l-.72-.45c0-.34-.37-.58-.29-1q.67.57,1.43,0c-.69.1-.73-.59-1.17-.73-.26.1-.48.24-.73,0-.37-1.16-1-2.34-.31-3.55-.16-.44-.57-.21-.7-.38-.46-1.36-.76-2.77-.9-4.2.23,0,.35.27.57.13s.16-.48-.13-.61-.6-.09-.36-.53c-.6-1-.27-2.19-.42-3.28.14,0,.23.22.41.14s.13-.24.19-.37c.08.14,0,.35.28.4.45-.29.41-.69.25-1.14-.47-.12-.82-.72-1.39-.26v-3.9c.24-.46.33-.98.27-1.49.1-1.5.31-3,.64-4.47,0,.23-.07.47.18.63.28-.08.48-.32.53-.6-.19-.11-.41-.14-.63-.1,0-.7.12-1.4.34-2.07.2-.28.53-.18.7-.27.16-.15.21-.39.12-.59-.18-.17-.39.11-.59-.12.92-3.67,2.31-7.21,4.14-10.52-.18.65-.1,1.34.21,1.93.36.23.79.36,1,.94.25-.55.43-1.13.52-1.73l-.36-.32-1.21-.93c.11-.45.33-.86.64-1.19,0,.53-.17,1,.37,1.19.35-.14,0-.49.19-.74l1.31-.34c0,.19,0,.4.15.58.37-.33.91-.5,1.07-1.07-.53-.27-.77.14-1.09.34-.46-.38-.95-.59-1.5-.08-.12-.93-.1-1,.92-1.36l-.27-.36c.12-.8.78-.19,1.12-.38.25-.43-.11-.69-.22-1.12,2.74-3.91,6.05-7.39,9.83-10.32.37-.13.6.1.87.14s.23.44.57.35c.56-.65-.25-.68-.5-1,.53-1,1.68-1.18,2.45-1.85.82-.63,1.71-1.15,2.66-1.56.93-.48,1.81-1,2.76-1.49s1.89-.83,2.78-1.22c.29.14.32.49.64.4s.1-.41.2-.67c.73-.21,1.41-.87,2.27-.32.44-.23.64-.75,1.25-.84.09.42-.4.9.05,1.27.15.13.37.16.55.07.25-.15-.12-.37.14-.56.42-.07.6.43,1,.59.24,0,.36-.17.49-.38l-.54-.77c-.32,0-.66.27-1,0-.05-.17-.06-.36.12-.4.8-.18,1.61-.34,2.44-.51l.75.54c.18.4.32.81-.1,1.15l.6.81c.16-.07.37-.18.32-.32-.1-.57-.17-1.15-.19-1.73l-.64-.69c.77-.32,1,1,1.78.55.23-.33-.17-.5-.18-.81l1.56-.29c.51-.07.72.9,1.5.19-.12,0-.22-.08-.26-.19.21-.19.5-.24.76-.15.26.26,0,.64.3,1,.33-.2.07-.7.41-.94,1.95-.21,3.91-.21,5.86,0-.18.4-.77.45-.76,1,.47.17,1,0,1.57.51l-.24-1.42c1.14-.17,1.23-.13,2.09.86.16-.24.52-.46.11-.77.26-.07.55-.01.76.16.16.29.19.64.07.95-.2.42-.2.92,0,1.34-.34.22-.18.64-.45,1,.4-.08.58.48,1,.11.15-.45-.49-.59-.39-1,.69-.12.48-.66.42-1s-.31-.82-.09-1.27c.33-.15.71-.12,1,.09,0,.24-.33.38-.15.63q.75.1,1.55-.4c2.33.42,4.61,1.06,6.82,1.9.37.24-.06,1,.64,1,0,.14-.17.26,0,.44.36,0,.79.2,1.17-.33l-1-.24c0-.15,0-.32.14-.5,1.41.5,2.78,1.11,4.1,1.82.31.23.64.42,1,.56.53.17.89.65.9,1.2.44.3.5-.17.77-.28,2.41,1.46,4.69,3.11,6.83,4.94.31.42-.1.62.22.94.16.11.27-.29.64-.2,1.1,1.23,2.45,2.37,3.6,3.73,1.31,1.51,2.54,3.08,3.68,4.72.35.52.87,1,.22,1.68.92.46,1.67,1.2,2.12,2.13-.18.61-.82,1.13-.36,1.8.54.16.48-.5.92-.52.38.6.95,1.16.75,2-.12.54.48.72.48,1.18-.17-.09-.33-.25-.62-.11.21.43-.3,1.15.61,1.31.21-.33.09-.7.14-1,.25,0,.32.17.4.37,1.36,3.33,2.32,6.82,2.85,10.38.18.94.29,1.89.32,2.85.13,1.4.18,2.81.14,4.22-.22.33-.53-.06-.66.22,0,.46.43.29.68.66.04,2.94-.29,5.88-1,8.74-.25.33-.69.08-.89.46,0,.44.46.58.62,1-.12.34-.11.79-.36,1.08-.52.08-.36-.42-.62-.52-.42.56-.36,1.47-1.32,1.7.43.28,1.11.36,1.06.85s.38,1.12-.25,1.53c-.39.28-.75-.08-1.15-.1-.68.54-1.16,1.34-2,1.65-.22.41,0,.83-.28,1.1.18.31.44.05.63.26-.15.51-.81.42-1,.81-.3.22,0,.54,0,.63-.37.5-.61,0-.94.15-.23,1.1-.92,2.06-1.89,2.63-.27.13-.39.57-.58.86-1.33-.51-1.55-.82-1.34-1.88.3-.2.64-.35,1-.43.21-.03.35-.22.32-.43-.01-.08-.05-.16-.11-.22l1.09-.64q-.62-.35-1.73,0-.68.37-.62,1.12c-.32-.36-.16-1.08-.9-1-.29.43,0,1.12-.58,1.34,0,.42.38.33.56.5.24.36-.08.9.23,1.22s-.09.93.48,1c0,.41-.37.42-.54.59-.16.39.4.35.38.65,0,.12,0,.26-.15.29-.43.09-.62.3-.45.72s.65.1,1,.26l.51,1.07c.53-.06.93.29,1.39.49h0c-.19.32-.42,0-.62,0-.25.26,0,.42.15.6-.34.68-.96,1.17-1.69,1.35-.67-.25-.47-1.05-.92-1.43l-.81.11c-.08-.3.13-.7-.37-.94-.41.47-.19.79.22,1.07.03.8,0,1.6-.07,2.4-.55.32-1,0-1.31-.33-.44.26-.17.7-.37,1l-.47-.21c-.64.51,0,1.45-.64,1.87.13.31.28.49.55.53.17.07.36.07.53.01Zm7.77-19.38c.47.35.88.34,1.4-.42-.57.21-.94,0-1.28.26-.1-.34.47-.5.31-.89-.5,0-.68.45-1,.56.02.24.13.46.31.63l.26-.14ZM9.91,28.35c.14.12.12.38.39.43.26-.05.5-.16.69-.34-.09-.36-.31-.71.07-1.16-.86.21-.53-.62-.83-.86-.18.03-.32.15-.4.31-.06.37.33.62.28,1l-.33.47c-.27.08-.59-.37-.87.19.15.25.12.67.6.8l.4-.84Zm-2.45,26.36c.69-.17.33-.6.24-1-.28-.58.57-.87.42-1.52l-1.41.58c.24.44-.22.72-.19,1.09.11.38.31.72.59,1l.35-.15ZM22.16,13.46c.43-.34.78-.79,1.4-.84,0-.37.13-.7-.27-.93l-1.37,1.07.12-.49c-.4-.28-.44.19-.65.27s-.2-.36-.45-.29-.26.18-.24.38c.3.48.85.5,1.31.69-.29.29-.82-.23-1.09.45.55.31-.24.79.06,1.29.65-.38,1.23-.75,1.18-1.6Zm26.17-8.89c.15,0,.32,0,.4-.22.1-.4-.45-.54-.39-1,.53-.33.4-1,.59-1.5s-.6-1-.31-1.64c-.29-.13-.64-.01-.8.26.08.46.19,1-.52,1.25.56.87.49,1.87.87,2.72-.58.23-.17.91-.59,1.26l.9.13c.29.22.07.6.37.76.19-.17.32-.39.4-.63-.15-.37-.26-.76-.32-1.16l-.6-.23Zm-18,4.56c.27,0,.56.07.79-.12.06-.42-.46-.39-.52-.69.11-.35.02-.73-.23-1-.45.04-.9-.09-1.26-.37l.49-.43c-.64-.09-.29-1.17-1.09-1-.29.43-.2,1.02.21,1.34-.66.12-1.33-.11-1.77-.61-.09.23-.45.11-.48.27,0,.85.76,1.19,1,1.83l-.56.45c-.07.27.15.36.25.49s-.42.43-.15.86c.38.3.85.44,1.33.4-.16-.35-.28-.7-.38-1.07-.07-.38,0-.73.55-.67.17,0,.27.06.38-.11.37-.53.83-.24,1.29-.11v.49c-.28.33-.31.8-.08,1.17.6-.35.46-.72.23-1.12Zm3.91-1.8c-.16.22-.48,0-.63.19s0,.66-.21.92-.57,0-.69.32c.08.18.09.38.27.5s.16-.27.33-.3c.13.55.05,1.14-.24,1.63-1.47.84-3,1.26-4.38,2.1-1.11.69-2.29,1.3-3.35,2.07-1.11.66-2.14,1.43-3.09,2.3,0,0-.07,0-.1.06-.24-.06-.52,0-.73-.26l.1-.78c-.17-.13-.4-.13-.57,0,.15.59-.16,1.24.11,1.55l-1.64,2.1c-.51.09-1.03.06-1.52-.09.69,1,.06,1.57-.45,2.19-.69.83-1.35,1.69-2,2.55-.3.49-.72.9-1.22,1.18,0,1.1-.79,1.75-1.22,2.61l-.67-.38-.54.58c.31.25.53.61.61,1-.72.43-.54,1.32-.93,2s-.45,1.54-1.17,2.08c.25.24.13.5,0,.77-.2.57-.38,1.14-.55,1.71-.97,3.38-1.52,6.87-1.62,10.39.05.49-.09.98-.4,1.36.12.09.3.14.26.35l-.57.7c.46.44.78,1.01.89,1.64.05,1.16.2,2.31.45,3.44.29.91.41,1.87.64,2.8s.48,1.84.79,2.75c3.07,8.98,9.3,16.54,17.53,21.27,5.87,3.4,12.54,5.19,19.33,5.2,3.5,0,6.99-.46,10.37-1.38,1.06-.28,2-1,3.19-.78.77-.55,1.62-1,2.51-1.33,2.29-1.05,4.47-2.32,6.53-3.77,2.19-1.6,4.24-3.38,6.13-5.32-.3.66,0,1.5-.68,2,.17.23.18.46.42.54l.26-.63c.33,0,.58.46,1,.09-.19-.46.34-1-.23-1.52.48-1-.25-.63-.68-.59.12-.15.24-.32.37-.47,2.48-2.84,4.55-6.01,6.14-9.42.13-.29.2-.62.5-.8.21-.13.33-.36.34-.6,0-.63.17-1.25.48-1.8,1.26-3.54,2.01-7.25,2.22-11,.21-3.99-.19-8-1.2-11.87-.91-3.19-2.16-6.28-3.72-9.21-2.18-3.72-4.87-7.11-8-10.08-.35-.41-.75-.77-1.19-1.07-.9-.49-1.71-1.12-2.41-1.87-.12-.15-.29-.26-.47-.32-1.43-.44-2.39-1.66-3.81-2.08v-1c.55.37.69-.34,1.2-.36-.41-.63-.5-1.42-.23-2.12-.43.16-.79.09-1,.38-.06.37.41.37.4.7-.01.33,0,.74-.53.86-.18.05,0,.26.05.39-.41,0-.71.33-1.09.42l-3.97-1.57c-.2-.28-.05-.62-.3-.82-.26.09-.13.46-.48.56-.89-.23-1.84-.5-2.81-.73-.96-.26-1.94-.47-2.92-.63-1-.13-2-.33-3-.41-.97-.12-1.95-.15-2.92-.1-1,.09-1.93-.34-2.89,0-.26-.07-.37-.45-.75-.33l-.33.46h-1.73c.2-.19.71,0,.64-.55-.39-.24-.9-.12-1.14.27-.05.09-.09.18-.11.28-.42-.9-1.09-.19-1.71-.25-.24-.67-.15-1.41.25-2,.36-.6.13-1.33.67-1.88l-.69-.34c-.5.28-.84.79-.91,1.36-.42-.34-.69-.24-.86.19.73.49,1.05,1.39.8,2.23-.3.15-.57-.29-.93.06.47.34.72.87,1.34,1-.3.19-.52.4-.85.26l-.48-.79c-.28.09-.53.15-.76-.1s-.41-.13-.56.15c.25.23.41.54.44.87h0c-.64-.29-.68.73-1.23.61-.37-.37.24-.69-.05-1-.27-.17-.62-.08-.78.18-.01.02-.02.04-.04.07.27.29.33.72.17,1.08-.32.06-.6.37-1.14.1.23-.85.4-1.72.5-2.6.68,0,.62-.6.86-1.12-.61.08-1.11-.09-1.58.15.08.43.42.57.56.85ZM6.98,29.33c-.43.08-.89.12-1.13.55.53.59,1.25.15,1.88.53-.02-.75.06-1.49.23-2.22-1-.56-1.15-.55-2.65.22.82.02,1.03.74,1.67.92ZM41.98,2.4c.47.64,1.26,1,1.08,1.9.63-.1.54-.46.48-.82.26-.15.65-.1.79-.53l-.54-1.33c-.36.12-.51-.32-.86-.42-.37.32-.05,1.24-.91,1.2h-.04Zm44.32,61.45c0-.26.37-.24.21-.51-.25-.1-.53-.1-.78,0,0,.39-.35.59-.53.85s.33.5.37.76-.35.21-.31.52l.91.77c.34-.2.33-.65.72-.69.11-.33-.34-.43-.25-.85-.06-.21.47,0,.4-.37l-.74-.48ZM4.81,37.77c0-.4,0-.63-.34-.62-.41.33-.55.88-.36,1.37.09.47.53.79,1,.73.35,0,.52.39.83.53q.14-.38-.41-1.73c0-.2.41-.06.31-.41-.35-.1-.72-.05-1.03.13ZM50.18,1.77c-.08.38.16.58.34.8.31,0,.39-.41.7-.41,0,.22-.26.41-.06.64l.31.1c0,.41-.48.54-.57,1,.54.14,1.03.45,1.38.88.32-1.23-.32-2.15-.54-3.12-.52-.11-1.06-.08-1.56.08v.03ZM6.08,50.77c-.91.32-1.59-.39-2.4-.09v1.57l.83.23c.22-.17.33-.32.27-.57.68.02,1.26-.51,1.3-1.19v.05Zm-3.46,3v.37c.74-.57,1,.77,1.63.29.19-.3-.12-.52,0-.63.51-.61.17-.95-.26-1.26-.36-.03-.73.09-1,.33l-.37.9Zm77.76,20.88c.63.18.81,1.24,1.77.8-.3-.54.41-1,.14-1.49-.89-.44-1.32.29-1.91.69Zm-8.82,8.27c-1.23-.79-1.83-1.07-2.16-1,.32.62.25,1.39.72,2,.64-.13.9-.73,1.44-1Zm-.14-4.41c.05,1-.83,1.16-1,1.79l.29.56c.31-.28.73-.11,1.09-.58-.11-.45.59-1.09-.39-1.77h.01ZM46.78,2.35c-.93.15-1.15.36-.89.92.26.5.36,1.07.28,1.63,1.18-.74.28-1.72.61-2.55Zm-3.32,3.27c-.37-.1-.37-.49-.67-.54,0,1.07.24,1.41,1.44,1.73-.2-.47-.2-.99,0-1.46,0-.08-.07-.2-.1-.28-.41.01-.45.35-.67.55Zm35.78,71.48c.18-.44.69-.49.91-.95l-.59-.82c-.94.84-.95.92-.32,1.77ZM4.24,42.71c.53-.2.76-.43.86-.81-.03-.4-.24-.77-.56-1-.53.55-.36,1.12-.31,1.81h.01Zm8.46-19.37c.35-.16.59.33.91.07.09-.25-.19-.49,0-.77s.51-.42.25-.86c-.89.13-.81.97-1.17,1.56h.01ZM46.56,1.65c0-1-.45-.79-.9-.73.11.6-.46.76-.76,1.12.76.4,1.03-.56,1.66-.39Zm-22.23,8.88c-.2-.54.73-.38.23-1l-1.41.72c.41.37.71.65,1.18.51.17-.21-.03-.28,0-.23Zm43.86-.87c.14.23.27.47.38.72.08.27.13.53.53.52.26-.73-.33-1.19-.44-1.78-.4.05-.32.38-.47.54Zm.43,2.5c.08-.48.18-.84-.11-1.17-.31-.03-.59.2-.62.52,0,.03,0,.06,0,.08-.02.43.35.44.73.57ZM44.56,3.44q-.79.62-.29,1.28c.67-.24.29-.73.29-1.28Zm6.86,84.23l.55.6.58-.3-.59-1.11c-.18.39-.27.65-.55.81h.01ZM35.16,6.03c.56-.27,1-.29,1.12-.82-.09-.26-.25-.5-.46-.68-.04.5-.45.79-.66,1.5Zm-18.47,8.14c-.1.67-.35,1.19.43,1.64.28-.58.1-1.27-.43-1.64Zm15.42-5.52c-.28.3-.34.74-.14,1.1.16.23.36.44.68.14.05-.5-.63-.64-.54-1.24Zm24-4.31l.21.22c.23-.4.58-.71,1-.89-.28-.19-.48-.4-.86-.35l-.35,1.02Zm-18.2,2.69c0-.46-.27-.67-.69-.62-.3,0-.53.26-.52.56,0,.02,0,.04,0,.05.26.16.39-.15.55-.11s.31.4.68.12h-.02Zm21.39.44c.34.69.52.81.86.55-.09-.28-.07-.61-.28-.85-.22-.07-.32.08-.56.3h-.02ZM7.3,55.9c-.23.26-.23.66,0,.92.38,0,.57-.16.63-.54-.12-.21-.25-.46-.61-.38h-.02ZM41.06,2.56c.22.1.49.07.68-.08-.35-.35-.34-1-1.21-1.13.25.37.43.78.53,1.21Zm51.73,39.2c-.3.08-.53.31-.6.61l.28.5c.27-.07.5-.26.62-.51-.03-.23-.14-.44-.3-.6Zm-14.9,32.25l-.81.41c.08.25.12.48.34.62q.55-.32.47-1.03ZM11.2,25.14c.17-.26.17-.6,0-.86-.27,0-.53,0-.66.36,0,.29.25.52.54.52.04,0,.08,0,.12-.02Zm59.23,56.21q.57.75,1.17.38c-.39-.22-.65-.6-1.17-.38Zm-4,1.21c.26-.49.12-1.09-.33-1.41-.19.49-.07,1.04.3,1.41h.03Zm9.43-1.81c-.14-.47-.16-.97-.07-1.45-.61.24-.45.7-.64,1,.18.21.3.46.71.45ZM5.05,48.75c.39-.24.33-.56.12-1-.18.24-.48.14-.56.44.12.12.12.39.44.51v.05Zm-3.32,4.06q.47-.75.13-1.23c-.3.28-.24.67-.13,1.18v.05Zm87.88,5.34c0,.3.1.6.27.85.3-.09.48-.41.39-.71-.01-.04-.03-.08-.05-.11-.16-.17-.42-.21-.61-.08v.05Zm-.66,4.56c-.23-.18-.57-.14-.76.09-.05.06-.08.14-.1.22-.11.26.1.43.36.54l.5-.85Zm-84.12,2c-.23-.13-.52-.13-.75,0-.09.41,0,.66.38.77.22-.21.35-.49.37-.79v.02ZM36.42,3.83c.73.19.86.08.92-.73-.37.16-.68.41-.92.73Zm38.47,6.74c.38,0,.71.75,1.21,0-.45-.05-.76-.45-1.21,0Zm-47.42.06c-.4-.2-.87-.2-1.27,0,.43.77.86.12,1.27,0Zm-3,4.09c-.12-.61-.62-.35-1.08-.7.26.82.56.98,1.11.7h-.03Zm-14.83,5.92c.57-.4.59-.75.35-1.2-.55.26-.43.64-.35,1.2Zm-5.08,6.79c.35.43.65.57,1.07.08-.37-.26-.61-.63-1.07-.08Zm69.74-14.49c.52-.47.21-.74-.15-1.06-.19.21-.25.51-.15.78.03.09.16.16.3.28ZM49.85,2.94c-.31.21-.82.2-.93.87.52-.2.95-.24.93-.88h0Zm-27.54,7c.3.21.56.3.74-.08.07-.15,0-.3-.13-.46-.17.12-.52.02-.61.49v.05Zm40.55-3.8c-.16-.25-.47-.35-.75-.27.13.3,0,.65.25.88.4-.12.34-.5.5-.66v.05Zm-8.25-.17q-.65-.73-1.22-.22l1.22.22Zm35.12,24.51c-.38.23-.79.08-1.17.41l.88.28c.28-.12.42-.44.3-.72,0,0,0-.01,0-.02v.05ZM24.24,8.76c-.23-.43-.5-.57-.89-.33.01.24.12.46.29.62l.6-.29ZM7.97,26.76q.12-.87-.28-1.26c-.16.44-.05.94.28,1.28v-.02Zm-6.21,14.63q.38-.94-.08-1.29c-.11.43-.08.88.08,1.29Zm81.8-15.88c.32.17.6.3.75-.13.06-.15,0-.32-.14-.4-.27.1-.61.07-.61.53Zm7.41,34.42q0-.77-.67-.48c-.02.36.31.33.62.48h.05Zm-6.57,4.82c-.25.06-.51.13-.75.22-.16.09-.34.21-.26.45q.54-.02,1.01-.67ZM2.01,34.87q.74.05.95-.61c-.4,0-.61.44-.95.61Zm71.72,50.27c0-.31.36-.61.06-1-.58.32-.45.65-.06,1Zm10.43-62.62c-.33-.06-.54.05-.59.41.15.21.27.41.59.26v-.67ZM7.16,35.83c.07-.29-.1-.44-.38-.57-.15.18-.23.39-.25.62.17.17.45.17.62,0,.01-.01.03-.03.04-.04h-.03ZM23.37,10.77c-.14.33-.22.56.1.71s.42-.12.48-.44l-.58-.27Zm-15.11,12c.59-.35.19-.65.15-.95-.35.22-.36.52-.15.92v.03Zm62.82-15.52c.14.25.24.54.62.54.17-.17.17-.45,0-.62-.2-.1-.45-.07-.62.08Z"/>
    <path class="cls-1" d="m78.79,81.33c-.17.06-.36.06-.53,0,.22-.51.18-1.19,1-1.37.22.28.48.59.93.35h0c-.25.11-.46.29-.61.52-.13.32-.45.52-.79.5Z"/>
    <path class="cls-1" d="m80.15,80.33c.32-.63.71-1.22,1.16-1.77,0-.23-.25-.45-.14-.73.12,0,.26,0,.3.07s.15.51.23.77c-.46.6-.98,1.16-1.53,1.68l-.02-.02Z"/>
    <path class="cls-1" d="m84.5,75.34q0-.71-.45-1.06c.41-.35.75-.78,1.25,0-.2.41-.48.77-.82,1.07h.02Z"/>
    <path class="cls-1" d="m91.1,63.14c.03.37-.11.74-.38,1-.48.12-.44-.57-.75-.5.43-.02.83-.2,1.13-.5Z"/>
    <path class="cls-1" d="m83.36,73.72c.09-.29.2-.43.41-.45q.11.42-.41.45Z"/>
    <path class="cls-1" d="m7.46,54.71c.05-.33-.34-.77.24-1,.09.4.45.83-.24,1Z"/>
    <path class="cls-1" d="m15.43,33.48c-.23-1.02.19-2.07,1.07-2.64,0-.2-.2-.22-.29-.35,0-.52.49-.4.81-.62.08-.36.15-.72.19-1.09,0-.13-.14-.28,0-.44.71-1.07,1.67-1.95,2.8-2.56.7.26.84-.83,1.51-.63,1.16-.63,2.46-.94,3.78-.9,4.34-.26,8.69-.51,13-.52,1.86,0,3.72-.07,5.57-.06.79-.09,1.59.05,2.31.38.13.12-.06.56.29.71.09.08.24.08.33,0,.16-.09.31-.21.44-.34.38-.53,1-.83,1.65-.8,1.11.08,2.23,0,3.31,0,.56.39,1.03.9,1.36,1.5.52-.07.31-.81,1.15-.69l-.66-.36c.53-.26,1.12-.37,1.71-.31,2.08,0,4.16.09,6.23.21.2-.02.4.03.56.16-.41.63.19.85.44,1.3.26-.57.23-.95-.28-1.18.83-.26,1.71-.3,2.56-.12.95.1,1.91.14,2.86.11,2-.04,3.97.42,5.75,1.33,1.61.82,2.93,2.12,3.75,3.73.93,1.95,1.52,4.04,1.73,6.19.55,6.13.71,12.29.46,18.44-.01,3.13-.31,6.25-.9,9.32-.15.72-.55,1.32-.66,2.06-.18.74-.49,1.44-.92,2.07-.39.65-.87,1.24-1.42,1.76-1.47,1.44-3.38,2.34-5.43,2.56-2.58.32-5.18.37-7.77.49-8,.35-15.9.32-23.86.22-1.03.12-2.08.02-3.07-.3-.32-.15-.58.21-.9.13-1.24-.3-2.5,0-3.74,0s-2.47-.18-3.7-.24c-1.38-.06-2.75-.2-4.11-.44-.74-.13-1.46-.32-2.16-.58-.19-.2-.3-.46-.32-.73,0-.31.43-.23.44-.51-.38-.36-.91-.26-1.29-.51-.31.42.33.55.17.87s-.44.18-.64,0c-1-.72-1.85-1.62-2.51-2.65-1.7-2.63-2-5.56-2.33-8.53-.19-2.11-.31-4.22-.4-6.34,0-.67-.34-1.43.29-2-.26-.53-.38-1.11-.35-1.7-.06-3,.1-6,.25-8.95.07-.4.49-.42.6-.62-.76-1.95-.29-3.78.2-5.61.06.59.37.51.73.26.22.16,0,.52.25.65s.32-.54.71-.42c.29.32.61.24,1,.08.12-.45.12-.91,0-1.36l-.84-.67c-.54.36,0,.79-.22,1.06.27.26.64,0,.78.38.14.38-.3.34-.56.36l-.36-.4-.59.17c0-.15,0-.31-.21-.4-.17.08-.36.11-.55.07Zm9.93,25.58c.18.37-.65.36-.32.8q.7-.28.48-.94c.04-.44-.07-.87-.31-1.24,0,.62-.49,1.04.15,1.38Zm40-24.37c-.12-.22.25-.41,0-.65-.27,0-.52-.25-.84-.11,0,.48.39.65.66.89-.39.2-.64.44-.26.92.64-.18.87-.49.44-1.05Zm-36.24,13.09c.36-.37.22-.77.12-1.26-.28.38-.75.41-.88.84.13.27.46.09.62.28l-.33.1c-.03.29.1.57.35.73.32,0,.78.22,1.07-.4-.35-.16-.89.39-.95-.29Zm-7.12,20c-.32.03-.61.17-.83.4.19.18.14.52.45.67.56-.07.78-.36.54-.94.35-.31.23-.63.08-1-.33.14-.54.29-.6.6l.36.27Zm31.85-36.32c.26,0,.5-.11.38-.43s-.34-.43-.64-.21c-.12-.18-.06-.32,0-.53.14-.44.44-.93,0-1.38-.02-.23.04-.47.17-.66.46-.68.41-1.59-.12-2.21.07-.2.37-.31.21-.69-.75,0-.78.95-1.41,1.18l-.88-.06v1c0,.5.25,1,.66,1s.47.46.75.61c0,.19.21.45.14.56-.28.56-.31,1.21-.09,1.79-.16.85-.06,1,.77.84l.06-.81Zm-31.12,31.55l-.34.31c-.43,0,0-.89-.79-.66l.27,1.31c.26,0,.45,0,.56.16.18.43-.13,1.05.65,1.31.11-.77.03-1.55-.21-2.29.41-.03.79-.26,1-.62-.22-.09-.45-.16-.68-.21-.27,0-.09-.63-.52-.42-.39.4.1.73.06,1.11Zm10.71-8.27c.4-.22.84.15,1.33-.14-.14-.49.75-.6.49-1.27-.4-.25-1.06-.28-1.11-1,.52-.22,1-.54,1.41-.92-.51-.29-1,0-1.39,0-.15.25-.07.53-.11.8l-.49.45c.65.29,0,1.1.72,1.3-.36.31-.79,0-1.08.33l.14.31c-.28,0-.54.17-.63.43.11.3.39.51.71.55v-.84Zm12.64-.76q.61.9,1.52.72c-.29-.29-.54-.57-.83-.81-.2-.12-.41-.22-.63-.29l6.54-3.45c.23.21.11.61.5.62.27-.33.24-.78.43-1.11,1.24-.9,2.84-1.14,3.93-2.31-1-.9-2.43-1-3-2.2-.29-.09-.5.23-.72,0-.59-.41-1.24-.74-1.91-1-.83-.49-1.68-.92-2.53-1.38-.83-.4-1.63-.84-2.4-1.34-.77-.46-1.58-.86-2.42-1.18-.44-.25-.81-.61-1.06-1.05-1.14.22-1.8-.75-2.81-1l-.47.24c-.3-.1-.42-.48-.78-.52l-.51.29c.26.48-.06,1.21.64,1.37.48,0,.22-.8.92-.55.1,2.52,0,5.1-.07,7.68-.05-.48-.36-.71-.83-.94-.14.67-.06,1.37.21,2,.55-.18.21-.69.48-.92.48.86.18,1.77.21,2.64-.31.35-.85.46-.78,1.05.17.25.63,0,.81.42-.18,1.76.06,3.6-.08,5.47.93.13,1.62-.62,2.46-.53.19-.74.94-1.19,1.68-1,0,0,0,0,0,0,.22-.62.84-1.01,1.5-.92Zm-17.71-25l-.17.51c-.09-.26-.08-.44-.42-.44-.18.59-.73,1-1.35,1,.4,1.22-.92.84-1.32,1.5.52.13.89.48,1.48.35l.3-.81c.77-.32,1.44-.6,2.13-.14.08-.56-.29-.84-.34-1.2s.4-.16.26-.47l-.57-.3Zm-.49,2.38l-1,.33c.41.47,0,.92,0,1.38.05.8-.08.81.86,1.09.32-.41-.12-.82,0-1.28.38-.19.75-.43.76-.9l-.62-.62Zm-9.11-2.37c.28.51-.32,1,.09,1.47.47-.1,1,.43,1.52-.13.13-.53.33-1.11-.24-1.64-.42.22-.9.32-1.37.3Zm3.69,4.51c.49-.61.44-1.55,1.42-2.08-.65,0-.65-.61-1.1-.78-.68.24-.48,1-1,1.42.87.27-.14,1.12.68,1.44Zm21.1,2.25c.12.27,0,.63.25.86.22-.33.47-.64.76-.91.07-.07.06-.22.07-.29-.12-.34-.45-.09-.6-.27.09-.21.26-.43-.06-.64s-.84.24-1.3.34c.16.49.29.92.43,1.34.39.12.35-.22.45-.43Zm-19.45,21.88c0,.52-.36.92,0,1.3.21-.03.4-.12.54-.27-.19-.58,0-1.26-.53-1.82l-.82-.19c0,.63-.67.65-.91,1.09.57.18,1.18.15,1.72-.11Zm35.18-28.24c.11-.33-.26-.4-.26-.62s-.13-.43-.5-.47c0,.62-.73.76-.92,1.45.84-.18.65.8,1.34,1-.08-.48.04-.97.34-1.36Zm-31.15,29.86c-.44.61-.65,1.37-.58,2.12,0,.47.39.65.92.45-.25-.37.13-.71.06-1s-.36-.23-.38-.42c.07-.36.53-.48.54-.91l-.56-.24Zm24-22.28c.76-.43.25-1,.5-1.38l-.8-.38c-.29.25-.73.13-1,.52.18.67,1.13.52,1.28,1.21l.02.03Zm-17.4,19.13h1.69c.22-.52.06-1.13-.4-1.47-.74.25-.61,1.27-1.29,1.47Zm-17.66-19.34c.22.4,0,.91.46,1.3.3.21.83,0,1.24.39-.33-.54-.6-1.13-.81-1.73-.29-.13-.62-.11-.89.04Zm31.76-7.78c-.33.35-.83.39-1,.82.08.62.62,1.08,1.25,1.05-.64-.6.63-1.17-.25-1.87Zm-7.16,2.16l-.9,1.11c.43.2.9.3,1.38.29.26,0,.67.13.79-.31.05-.11.02-.24-.06-.32-.28-.3-.69.13-1-.15l-.21-.62Zm-5.59,18.61c.52-.27.12-.59.35-.82s.66-.07.8-.53l-.34-.63c-.33.07-.14.47-.42.54s-.38-.42-.74-.2c.06.56.18,1.11.35,1.64Zm-1.1,8.08l-1.08-.22c-.21.08-.34.28-.32.5.15.43.63.51.88.83.27-.32.45-.7.52-1.11Zm-18.11-13.48c.33.06.57.1.78-.05q-.61-1.44-1.37-1.2c.09.5.72.71.59,1.25Zm19.16,2.9c-.26-.51.69-1-.12-1.37q-.63.3-1,1.12l1.12.25Zm-12.34-12.09c-.1.33-.29.63-.54.87-.19.24-.15.59.09.79.11.08.24.13.37.12l.6-.83c-.2-.27-.03-.71-.52-.95Zm33.21-9c-.12-.26-.12-.61-.62-.68,0,.73-.64,1.37,0,2.09.41-.45.42-1,.62-1.46v.05Zm-25.46,5.81c-.08-.91-1.07-.43-1.36-1-.18.27-.18.63,0,.9.41.17.83.53,1.36.1Zm-.08,29.91c-.6-.11-1-.06-1.18.56.37.19.81.28,1,.73l.69-.4c-.07-.32-.44-.16-.54-.4l.03-.49Zm-6-17.88c-.13-.68-.18-1.2-.63-1.58-.4.06-.75.3-.95.65.71.03.96.61,1.63.93h-.05Zm5.55,10.64q-.59.54-.18,1.19c.3-.04.59-.14.85-.3-.03-.34-.14-.71-.62-.89h-.05Zm-9.08-19.78c.46.36.91.61,1.44.26,0-.56-.39-.11-.6-.33s-.06-.65-.52-.7c-.29.13-.43.47-.32.77Zm20.85,29c.38-.13.4-.41.46-.66-.34-.31-.64-.74-1.2-.39.02.46.31.86.74,1.02v.03ZM23.56,29c-.49.14-.91.2-.74.89.49-.25.58.35.93.56.36-.59.04-.96-.19-1.45Zm9.09,26.54c-.09.9.28,1.16.78,1.34.41-.27.61-.56.3-1-.34-.03-.74.24-1.08-.34Zm12.91-16.98c-.34.48-.93.54-1.19,1q.85.36,1.53-.68l-.34-.32Zm-15.79,15.26c0,.36.15.53.52.66.11-.58.9-.11,1.11-.68-.5-.33-1.14-.32-1.63.02Zm1.26,13c.49.75.06,1.16-.09,1.57.09.16.27.25.46.23.22,0,.35-.15.51-.4-.35-.31.08-.97-.88-1.39h0Zm-.09-40.57c0,.33-.11.62.17.82q.72-.35.75-1s-.08-.1-.13-.16c-.3-.05-.5.14-.79.34Zm26.56,17.32c.6-1,.57-1.2-.24-1.58-.02.54-.22,1.11.24,1.58Zm.49-18.25c.42-.45-.16-.64-.27-.92.12-.15.3-.2.26-.41-.32-.15-.68-.15-1,0,.29.5.47,1.06,1.01,1.33Zm-38.33,10.2c.29.51.32,1.1,1,1.42l-.29-1.69-.71.27Zm30.42,3.56c.24.3.25.73.66.92.15,0,.27-.13.38-.41-.52-.16-.29-.78-.62-1.23l-.42.72Zm-13.63-.59c-.31-.56-.72-.48-1.15-.28-.09.21-.04.46.12.62.37-.03.72-.14,1.03-.34Zm25.11-9.08c.36-.46.59-.93,0-1.38-.71.47-.25.93,0,1.38Zm-33.46,41.22c.36.08.36.74,1,.54-.04-.41-.17-.8-.39-1.14-.49.03-.45.39-.61.6Zm15.05-32.88c.16.6.54.7,1,.78q-.09-.91-1-.78Zm-8.59,19.83c.36-.12.56-.54,1-.59-.53-.73-.87-.21-1.21-.06-.07.32-.09.47.21.65Zm-10.13,3.28c.09-1.12-.06-1.27-1-.93l1,.93Zm12.36,2.52l.22,1.12c.59-.22.26-1,1-1-.37-.22-.82-.26-1.22-.12Zm23.61.35c-.3.4-.1.63.16.74s.69.24.94-.24c-.35-.31-.82-.19-1.1-.5Zm-18.21-3.59c.14-.2.11-.46-.06-.63-.26-.15-.59-.06-.74.19-.03.05-.05.1-.06.16.12.3.47.45.77.33.03-.01.06-.03.09-.05Zm4.67-3.48c-.12-.33-.18-.59-.45-.71-.37.26-.46.76-.2,1.13.05.08.12.15.2.2l.45-.62Zm-25.63-16.63c.48-.32.52-.59.06-.92l-.91.28.85.64Zm-.21-3.61c.21-.18.51-.28.55-.7-.21-.11-.27-.44-.73-.39.24.34-.54.72.18,1.09Zm45.4-2.77q-.8.84-.3,1.39c.25-.42.35-.91.3-1.39Zm-27.08,20.6c-.61.08-.9.41-1,1.25.51-.46,1.22-.41,1-1.25Zm9.79-14.81q-.47,1.15,0,1.52c.21-.47.21-1.02,0-1.49v-.03Zm-.3-6.62c.42,0,.87.2,1-.53-.41.15-.76-.06-1.09-.12-.11.22-.08.49.09.68v-.03Zm2,8.92c-.2-.13-.47-.13-.67,0l-.19.83q.59-.13.87-.8v-.03Zm-13.71,25.17q.79.35,1.17-.2c-.39-.2-.87-.12-1.17.2Zm1.51-3.91c.06-.27.07-.46-.12-.64-.3,0-.59.12-.78.35.17.41.46.48.9.29Zm10.57-31.67c.37.11.6.53,1,.11l-.54-.81c-.32.15-.29.42-.46.7Zm17.14-1.39c.36.07.64.06.65-.35,0-.19-.14-.35-.33-.35-.03,0-.07,0-.1.01-.42.07-.39.33-.22.69Zm-47.92,9.08c-.06-.29-.27-.54-.55-.64-.21.13-.4.26-.33.56.24.31.53.21.88.08Zm15.73,6.23q-.05.73.63,1c.28-.7-.48-.69-.63-1Zm32.08,6.48c-.29-.43-.58-.58-1-.08.33.17.58.6,1,.03v.05Zm-17.4,5.1q.86-.4.59-.94c-.29.22-.5.53-.59.89v.05Zm-16.27.78c-.4,0-1,.66-1,.86.15.07.32.07.47,0,.26-.22.21-.63.53-.86Zm8,.73c-.23-.33-.45-.7-1-.4.1.36.48.57.84.47.06-.02.11-.04.16-.07Zm26.12,1.11c.18-.29.09-.67-.21-.85-.02-.01-.05-.03-.07-.04-.23.12-.37.37-.33.63.11.23.37.34.61.26Zm-23.72,1.26l-1-.23c0,.34.15.66.41.87.28-.12.49-.35.59-.64Zm-6.13,0c.56.71.84.82,1,.5l-.2-.5h-.8Zm-.28,1c.37,0,.26.67.8.56.19-.19.19-.49,0-.68,0,0,0,0,0,0-.28-.1-.58-.03-.79.18v-.06Zm-.9,4.37c-.09-.32,0-.74-.38-1q-.26.72.38,1.06v-.06Zm25,2.25q-.63,0-.8.65c.62.27.71-.14.85-.59l-.05-.06Zm-31.39.67c-.43.03-.84.15-1.22.36.31.21.5.43.81.38s.29-.34.46-.68l-.05-.06Zm2.3-13.03c-.92,0-1,.4-.8,1.07l.8-1.07Zm21.31-17.54c.05.3.27.53.56.6.16-.05.27-.19.29-.35-.16-.35-.47-.49-.85-.25Zm-15.64,21.13c.32.82.45.85.95.27-.37.05-.62-.27-.95-.27Zm7.63,2.69c.34-.35.41-.87.18-1.3q-.32.7-.18,1.3Zm12-28.25q-.17-.81-.71-.8c.06.38.32.69.69.81h.02Zm-19,36.54c-.18.07-.35.14-.34.43.18.13.27.42.6.42.21-.37.06-.64-.29-.84h.03Zm-9.1-21.94c-.27.39-.35.64.08.81q.16-.39-.08-.81Zm-1.62,2.8c.31-.39.39-.64-.07-.82-.29.26-.29.49.07.82Zm-2.08.85q.42-.5,0-.84c-.17.25-.17.59,0,.84Zm14.5-.16c.12.25.15.49.38.62.16-.16.27-.36.31-.58-.06-.15-.19-.27-.35-.31l-.34.27Zm-12.93.58c.18.16.45.16.63,0-.01-.24-.13-.45-.32-.59-.18.17-.38.26-.27.59h-.04Zm3.67.28c.52-.29.53-.56,0-.87-.2.26-.19.63.04.87h-.04Zm17.11.39c-.19.43-.34.69.12.87.34-.27.32-.5-.08-.87h-.04Zm-4.56-22q0-.71-.59-.82c.13.33.35.61.63.82h-.04Zm26.71,24.91c.07-.29-.1-.44-.34-.55-.18.14-.29.37-.29.6.18.16.46.14.62-.04,0,0,0,0,0-.01Zm3.38,1.18c-.54-.25-.8-.07-1,.29,0,.11,0,.21.17.29l.83-.58Zm-7.38,3.15c.08-.33-.11-.47-.32-.59-.16.03-.29.15-.34.3.02.15.12.28.26.35.06.07.17.05.4-.06Zm-6.6-34.08c-.11.52-.49.8-.23,1.27.46-.31.43-.68.18-1.27h.05Zm-12.1,35c.11.16.17.37.39.33.5-.24.19-.52.08-.78,0-.09-.12-.1-.22,0l-.25.45Zm-21.91.32c-.04-.34-.34-.59-.69-.57-.12.59.09.75.64.57h.05Zm11.67-29.69c-.62.29-.23.59,0,.91.23-.14.36-.41.32-.68l-.32-.23Zm40.36,32.92c.39-.16.74-.42,1-.75-.62-.14-.87.06-1,.75Zm-56.23,1.51c0,.54.08.85.62,1.07.04-.45-.21-.88-.62-1.07Zm18.05,1c-.48.19-.6.49-.86.78q.62-.09.86-.79h0Zm13-32.64q.79.05.93-.64l-.93.64Zm-32.39,5c-.31.4-.39.65.08.83.29-.24.29-.5-.07-.81v-.02Zm13.7-10.82c0,.33.12.49.4.52.12-.19.33-.34.2-.61-.2-.11-.45-.06-.59.11v-.02Zm-7.38,15.09q.44-.64-.23-1l.23,1Z"/>
    <path class="cls-1" d="m36.97,9.07c.23.08.24-.23.44-.25l.21.27c-.24.24-.45.24-.66,0v-.02Z"/>
    <path class="cls-1" d="m6.63,25.94v.47l-.32-.16c0-.13-.25-.21-.07-.39s.26.06.39.08Z"/>
    <path class="cls-1" d="m52.1,27.01c.25.18.62-.15.91.33-.37-.09-.7.03-.91-.33Z"/>
  </g>
</svg>